<mxfile host="Electron" modified="2024-05-17T11:22:43.732Z" agent="Mozilla/5.0 (Macintosh; Intel Mac OS X 10_15_7) AppleWebKit/537.36 (KHTML, like Gecko) draw.io/21.6.1 Chrome/112.0.5615.204 Electron/24.6.1 Safari/537.36" etag="1i_Kllp2t7GvX037XRBr" version="21.6.1" type="device">
  <diagram name="第 1 页" id="juNb_67ZTJd40nI2RS8V">
    <mxGraphModel dx="1177" dy="641" grid="1" gridSize="10" guides="1" tooltips="1" connect="1" arrows="1" fold="1" page="1" pageScale="1" pageWidth="15000" pageHeight="4681" math="0" shadow="0">
      <root>
        <mxCell id="0" />
        <mxCell id="1" parent="0" />
        <mxCell id="V1xVhpWKba1b41n8vRxY-325" value="" style="ellipse;shape=cloud;whiteSpace=wrap;html=1;fillColor=#f5f5f5;fontColor=#333333;strokeColor=#666666;dashed=1;" vertex="1" parent="1">
          <mxGeometry x="550" y="1140" width="260" height="205" as="geometry" />
        </mxCell>
        <mxCell id="V1xVhpWKba1b41n8vRxY-35" value="" style="ellipse;shape=cloud;whiteSpace=wrap;html=1;fillColor=#f5f5f5;fontColor=#333333;strokeColor=#666666;dashed=1;" vertex="1" parent="1">
          <mxGeometry x="800" y="597.5" width="260" height="205" as="geometry" />
        </mxCell>
        <mxCell id="V1xVhpWKba1b41n8vRxY-1" value="" style="ellipse;whiteSpace=wrap;html=1;aspect=fixed;" vertex="1" parent="1">
          <mxGeometry x="920" y="690" width="20" height="20" as="geometry" />
        </mxCell>
        <mxCell id="V1xVhpWKba1b41n8vRxY-3" value="" style="ellipse;whiteSpace=wrap;html=1;aspect=fixed;" vertex="1" parent="1">
          <mxGeometry x="920" y="750" width="20" height="20" as="geometry" />
        </mxCell>
        <mxCell id="V1xVhpWKba1b41n8vRxY-4" value="" style="ellipse;whiteSpace=wrap;html=1;aspect=fixed;" vertex="1" parent="1">
          <mxGeometry x="920" y="850" width="20" height="20" as="geometry" />
        </mxCell>
        <mxCell id="V1xVhpWKba1b41n8vRxY-5" value="" style="ellipse;whiteSpace=wrap;html=1;aspect=fixed;" vertex="1" parent="1">
          <mxGeometry x="870" y="860" width="20" height="20" as="geometry" />
        </mxCell>
        <mxCell id="V1xVhpWKba1b41n8vRxY-6" value="" style="ellipse;whiteSpace=wrap;html=1;aspect=fixed;" vertex="1" parent="1">
          <mxGeometry x="970" y="860" width="20" height="20" as="geometry" />
        </mxCell>
        <mxCell id="V1xVhpWKba1b41n8vRxY-7" value="" style="ellipse;whiteSpace=wrap;html=1;aspect=fixed;" vertex="1" parent="1">
          <mxGeometry x="980" y="920" width="20" height="20" as="geometry" />
        </mxCell>
        <mxCell id="V1xVhpWKba1b41n8vRxY-8" value="" style="ellipse;whiteSpace=wrap;html=1;aspect=fixed;" vertex="1" parent="1">
          <mxGeometry x="860" y="920" width="20" height="20" as="geometry" />
        </mxCell>
        <mxCell id="V1xVhpWKba1b41n8vRxY-9" value="" style="ellipse;whiteSpace=wrap;html=1;aspect=fixed;" vertex="1" parent="1">
          <mxGeometry x="920" y="630" width="20" height="20" as="geometry" />
        </mxCell>
        <mxCell id="V1xVhpWKba1b41n8vRxY-10" value="" style="ellipse;whiteSpace=wrap;html=1;aspect=fixed;" vertex="1" parent="1">
          <mxGeometry x="860" y="990" width="20" height="20" as="geometry" />
        </mxCell>
        <mxCell id="V1xVhpWKba1b41n8vRxY-11" value="" style="ellipse;whiteSpace=wrap;html=1;aspect=fixed;" vertex="1" parent="1">
          <mxGeometry x="980" y="990" width="20" height="20" as="geometry" />
        </mxCell>
        <mxCell id="V1xVhpWKba1b41n8vRxY-12" value="" style="ellipse;whiteSpace=wrap;html=1;aspect=fixed;" vertex="1" parent="1">
          <mxGeometry x="850" y="710" width="20" height="20" as="geometry" />
        </mxCell>
        <mxCell id="V1xVhpWKba1b41n8vRxY-13" value="" style="ellipse;whiteSpace=wrap;html=1;aspect=fixed;" vertex="1" parent="1">
          <mxGeometry x="990" y="710" width="20" height="20" as="geometry" />
        </mxCell>
        <mxCell id="V1xVhpWKba1b41n8vRxY-14" value="" style="ellipse;whiteSpace=wrap;html=1;aspect=fixed;" vertex="1" parent="1">
          <mxGeometry x="780" y="760" width="20" height="20" as="geometry" />
        </mxCell>
        <mxCell id="V1xVhpWKba1b41n8vRxY-15" value="" style="ellipse;whiteSpace=wrap;html=1;aspect=fixed;" vertex="1" parent="1">
          <mxGeometry x="720" y="840" width="20" height="20" as="geometry" />
        </mxCell>
        <mxCell id="V1xVhpWKba1b41n8vRxY-16" value="" style="ellipse;whiteSpace=wrap;html=1;aspect=fixed;" vertex="1" parent="1">
          <mxGeometry x="1060" y="760" width="20" height="20" as="geometry" />
        </mxCell>
        <mxCell id="V1xVhpWKba1b41n8vRxY-17" value="" style="ellipse;whiteSpace=wrap;html=1;aspect=fixed;" vertex="1" parent="1">
          <mxGeometry x="1120" y="840" width="20" height="20" as="geometry" />
        </mxCell>
        <mxCell id="V1xVhpWKba1b41n8vRxY-19" value="" style="endArrow=none;html=1;rounded=0;strokeWidth=2;" edge="1" parent="1" source="V1xVhpWKba1b41n8vRxY-11" target="V1xVhpWKba1b41n8vRxY-7">
          <mxGeometry width="50" height="50" relative="1" as="geometry">
            <mxPoint x="1180" y="970" as="sourcePoint" />
            <mxPoint x="1230" y="920" as="targetPoint" />
          </mxGeometry>
        </mxCell>
        <mxCell id="V1xVhpWKba1b41n8vRxY-20" value="" style="endArrow=none;html=1;rounded=0;strokeWidth=2;entryX=0.5;entryY=1;entryDx=0;entryDy=0;" edge="1" parent="1" source="V1xVhpWKba1b41n8vRxY-7" target="V1xVhpWKba1b41n8vRxY-6">
          <mxGeometry width="50" height="50" relative="1" as="geometry">
            <mxPoint x="1000" y="1000" as="sourcePoint" />
            <mxPoint x="1000" y="950" as="targetPoint" />
          </mxGeometry>
        </mxCell>
        <mxCell id="V1xVhpWKba1b41n8vRxY-21" value="" style="endArrow=none;html=1;rounded=0;strokeWidth=2;" edge="1" parent="1" source="V1xVhpWKba1b41n8vRxY-6" target="V1xVhpWKba1b41n8vRxY-4">
          <mxGeometry width="50" height="50" relative="1" as="geometry">
            <mxPoint x="998" y="930" as="sourcePoint" />
            <mxPoint x="990" y="890" as="targetPoint" />
          </mxGeometry>
        </mxCell>
        <mxCell id="V1xVhpWKba1b41n8vRxY-22" value="" style="endArrow=none;html=1;rounded=0;strokeWidth=2;" edge="1" parent="1" source="V1xVhpWKba1b41n8vRxY-4" target="V1xVhpWKba1b41n8vRxY-5">
          <mxGeometry width="50" height="50" relative="1" as="geometry">
            <mxPoint x="980" y="880" as="sourcePoint" />
            <mxPoint x="950" y="880" as="targetPoint" />
          </mxGeometry>
        </mxCell>
        <mxCell id="V1xVhpWKba1b41n8vRxY-23" value="" style="endArrow=none;html=1;rounded=0;strokeWidth=2;" edge="1" parent="1" source="V1xVhpWKba1b41n8vRxY-8" target="V1xVhpWKba1b41n8vRxY-5">
          <mxGeometry width="50" height="50" relative="1" as="geometry">
            <mxPoint x="930" y="872" as="sourcePoint" />
            <mxPoint x="900" y="878" as="targetPoint" />
          </mxGeometry>
        </mxCell>
        <mxCell id="V1xVhpWKba1b41n8vRxY-24" value="" style="endArrow=none;html=1;rounded=0;strokeWidth=2;" edge="1" parent="1" source="V1xVhpWKba1b41n8vRxY-10" target="V1xVhpWKba1b41n8vRxY-8">
          <mxGeometry width="50" height="50" relative="1" as="geometry">
            <mxPoint x="882" y="930" as="sourcePoint" />
            <mxPoint x="888" y="890" as="targetPoint" />
          </mxGeometry>
        </mxCell>
        <mxCell id="V1xVhpWKba1b41n8vRxY-25" value="" style="endArrow=none;html=1;rounded=0;strokeWidth=2;" edge="1" parent="1" source="V1xVhpWKba1b41n8vRxY-3" target="V1xVhpWKba1b41n8vRxY-4">
          <mxGeometry width="50" height="50" relative="1" as="geometry">
            <mxPoint x="930" y="872" as="sourcePoint" />
            <mxPoint x="900" y="878" as="targetPoint" />
          </mxGeometry>
        </mxCell>
        <mxCell id="V1xVhpWKba1b41n8vRxY-26" value="" style="endArrow=none;html=1;rounded=0;strokeWidth=2;" edge="1" parent="1" source="V1xVhpWKba1b41n8vRxY-1" target="V1xVhpWKba1b41n8vRxY-3">
          <mxGeometry width="50" height="50" relative="1" as="geometry">
            <mxPoint x="940" y="780" as="sourcePoint" />
            <mxPoint x="940" y="860" as="targetPoint" />
          </mxGeometry>
        </mxCell>
        <mxCell id="V1xVhpWKba1b41n8vRxY-27" value="" style="endArrow=none;html=1;rounded=0;strokeWidth=2;" edge="1" parent="1" source="V1xVhpWKba1b41n8vRxY-9" target="V1xVhpWKba1b41n8vRxY-1">
          <mxGeometry width="50" height="50" relative="1" as="geometry">
            <mxPoint x="940" y="720" as="sourcePoint" />
            <mxPoint x="940" y="760" as="targetPoint" />
          </mxGeometry>
        </mxCell>
        <mxCell id="V1xVhpWKba1b41n8vRxY-28" value="" style="endArrow=none;html=1;rounded=0;strokeWidth=2;" edge="1" parent="1" source="V1xVhpWKba1b41n8vRxY-12" target="V1xVhpWKba1b41n8vRxY-1">
          <mxGeometry width="50" height="50" relative="1" as="geometry">
            <mxPoint x="940" y="660" as="sourcePoint" />
            <mxPoint x="940" y="700" as="targetPoint" />
          </mxGeometry>
        </mxCell>
        <mxCell id="V1xVhpWKba1b41n8vRxY-29" value="" style="endArrow=none;html=1;rounded=0;strokeWidth=2;" edge="1" parent="1" source="V1xVhpWKba1b41n8vRxY-14" target="V1xVhpWKba1b41n8vRxY-12">
          <mxGeometry width="50" height="50" relative="1" as="geometry">
            <mxPoint x="820" y="774" as="sourcePoint" />
            <mxPoint x="870" y="760" as="targetPoint" />
          </mxGeometry>
        </mxCell>
        <mxCell id="V1xVhpWKba1b41n8vRxY-30" value="" style="endArrow=none;html=1;rounded=0;strokeWidth=2;" edge="1" parent="1" source="V1xVhpWKba1b41n8vRxY-15" target="V1xVhpWKba1b41n8vRxY-14">
          <mxGeometry width="50" height="50" relative="1" as="geometry">
            <mxPoint x="780" y="824" as="sourcePoint" />
            <mxPoint x="830" y="810" as="targetPoint" />
          </mxGeometry>
        </mxCell>
        <mxCell id="V1xVhpWKba1b41n8vRxY-31" value="" style="endArrow=none;html=1;rounded=0;strokeWidth=2;" edge="1" parent="1" source="V1xVhpWKba1b41n8vRxY-1" target="V1xVhpWKba1b41n8vRxY-13">
          <mxGeometry width="50" height="50" relative="1" as="geometry">
            <mxPoint x="880" y="727" as="sourcePoint" />
            <mxPoint x="930" y="713" as="targetPoint" />
          </mxGeometry>
        </mxCell>
        <mxCell id="V1xVhpWKba1b41n8vRxY-33" value="" style="endArrow=none;html=1;rounded=0;strokeWidth=2;" edge="1" parent="1" source="V1xVhpWKba1b41n8vRxY-13" target="V1xVhpWKba1b41n8vRxY-16">
          <mxGeometry width="50" height="50" relative="1" as="geometry">
            <mxPoint x="950" y="713" as="sourcePoint" />
            <mxPoint x="1000" y="727" as="targetPoint" />
          </mxGeometry>
        </mxCell>
        <mxCell id="V1xVhpWKba1b41n8vRxY-34" value="" style="endArrow=none;html=1;rounded=0;strokeWidth=2;" edge="1" parent="1" source="V1xVhpWKba1b41n8vRxY-16" target="V1xVhpWKba1b41n8vRxY-17">
          <mxGeometry width="50" height="50" relative="1" as="geometry">
            <mxPoint x="960" y="723" as="sourcePoint" />
            <mxPoint x="1010" y="737" as="targetPoint" />
          </mxGeometry>
        </mxCell>
        <mxCell id="V1xVhpWKba1b41n8vRxY-259" value="" style="group" vertex="1" connectable="0" parent="1">
          <mxGeometry x="1425" y="630" width="330" height="415" as="geometry" />
        </mxCell>
        <mxCell id="V1xVhpWKba1b41n8vRxY-258" value="" style="rounded=1;whiteSpace=wrap;html=1;" vertex="1" parent="V1xVhpWKba1b41n8vRxY-259">
          <mxGeometry width="330" height="415" as="geometry" />
        </mxCell>
        <mxCell id="V1xVhpWKba1b41n8vRxY-69" value="" style="ellipse;whiteSpace=wrap;html=1;aspect=fixed;" vertex="1" parent="V1xVhpWKba1b41n8vRxY-259">
          <mxGeometry x="155" y="80" width="20" height="20" as="geometry" />
        </mxCell>
        <mxCell id="V1xVhpWKba1b41n8vRxY-70" value="" style="ellipse;whiteSpace=wrap;html=1;aspect=fixed;" vertex="1" parent="V1xVhpWKba1b41n8vRxY-259">
          <mxGeometry x="155" y="140" width="20" height="20" as="geometry" />
        </mxCell>
        <mxCell id="V1xVhpWKba1b41n8vRxY-71" value="" style="ellipse;whiteSpace=wrap;html=1;aspect=fixed;" vertex="1" parent="V1xVhpWKba1b41n8vRxY-259">
          <mxGeometry x="155" y="240" width="20" height="20" as="geometry" />
        </mxCell>
        <mxCell id="V1xVhpWKba1b41n8vRxY-72" value="" style="ellipse;whiteSpace=wrap;html=1;aspect=fixed;" vertex="1" parent="V1xVhpWKba1b41n8vRxY-259">
          <mxGeometry x="105" y="250" width="20" height="20" as="geometry" />
        </mxCell>
        <mxCell id="V1xVhpWKba1b41n8vRxY-73" value="" style="ellipse;whiteSpace=wrap;html=1;aspect=fixed;" vertex="1" parent="V1xVhpWKba1b41n8vRxY-259">
          <mxGeometry x="205" y="250" width="20" height="20" as="geometry" />
        </mxCell>
        <mxCell id="V1xVhpWKba1b41n8vRxY-74" value="" style="ellipse;whiteSpace=wrap;html=1;aspect=fixed;" vertex="1" parent="V1xVhpWKba1b41n8vRxY-259">
          <mxGeometry x="215" y="310" width="20" height="20" as="geometry" />
        </mxCell>
        <mxCell id="V1xVhpWKba1b41n8vRxY-75" value="" style="ellipse;whiteSpace=wrap;html=1;aspect=fixed;" vertex="1" parent="V1xVhpWKba1b41n8vRxY-259">
          <mxGeometry x="95" y="310" width="20" height="20" as="geometry" />
        </mxCell>
        <mxCell id="V1xVhpWKba1b41n8vRxY-76" value="" style="ellipse;whiteSpace=wrap;html=1;aspect=fixed;" vertex="1" parent="V1xVhpWKba1b41n8vRxY-259">
          <mxGeometry x="155" y="20" width="20" height="20" as="geometry" />
        </mxCell>
        <mxCell id="V1xVhpWKba1b41n8vRxY-77" value="" style="ellipse;whiteSpace=wrap;html=1;aspect=fixed;" vertex="1" parent="V1xVhpWKba1b41n8vRxY-259">
          <mxGeometry x="95" y="380" width="20" height="20" as="geometry" />
        </mxCell>
        <mxCell id="V1xVhpWKba1b41n8vRxY-78" value="" style="ellipse;whiteSpace=wrap;html=1;aspect=fixed;" vertex="1" parent="V1xVhpWKba1b41n8vRxY-259">
          <mxGeometry x="215" y="380" width="20" height="20" as="geometry" />
        </mxCell>
        <mxCell id="V1xVhpWKba1b41n8vRxY-79" value="" style="ellipse;whiteSpace=wrap;html=1;aspect=fixed;" vertex="1" parent="V1xVhpWKba1b41n8vRxY-259">
          <mxGeometry x="85" y="100" width="20" height="20" as="geometry" />
        </mxCell>
        <mxCell id="V1xVhpWKba1b41n8vRxY-80" value="" style="ellipse;whiteSpace=wrap;html=1;aspect=fixed;" vertex="1" parent="V1xVhpWKba1b41n8vRxY-259">
          <mxGeometry x="225" y="100" width="20" height="20" as="geometry" />
        </mxCell>
        <mxCell id="V1xVhpWKba1b41n8vRxY-81" value="" style="ellipse;whiteSpace=wrap;html=1;aspect=fixed;" vertex="1" parent="V1xVhpWKba1b41n8vRxY-259">
          <mxGeometry x="55" y="160" width="20" height="20" as="geometry" />
        </mxCell>
        <mxCell id="V1xVhpWKba1b41n8vRxY-82" value="" style="ellipse;whiteSpace=wrap;html=1;aspect=fixed;" vertex="1" parent="V1xVhpWKba1b41n8vRxY-259">
          <mxGeometry x="35" y="230" width="20" height="20" as="geometry" />
        </mxCell>
        <mxCell id="V1xVhpWKba1b41n8vRxY-83" value="" style="ellipse;whiteSpace=wrap;html=1;aspect=fixed;" vertex="1" parent="V1xVhpWKba1b41n8vRxY-259">
          <mxGeometry x="265" y="160" width="20" height="20" as="geometry" />
        </mxCell>
        <mxCell id="V1xVhpWKba1b41n8vRxY-84" value="" style="ellipse;whiteSpace=wrap;html=1;aspect=fixed;" vertex="1" parent="V1xVhpWKba1b41n8vRxY-259">
          <mxGeometry x="285" y="230" width="20" height="20" as="geometry" />
        </mxCell>
        <mxCell id="V1xVhpWKba1b41n8vRxY-85" value="" style="endArrow=none;html=1;rounded=0;strokeWidth=2;" edge="1" parent="V1xVhpWKba1b41n8vRxY-259" source="V1xVhpWKba1b41n8vRxY-78" target="V1xVhpWKba1b41n8vRxY-74">
          <mxGeometry width="50" height="50" relative="1" as="geometry">
            <mxPoint x="415" y="360" as="sourcePoint" />
            <mxPoint x="465" y="310" as="targetPoint" />
          </mxGeometry>
        </mxCell>
        <mxCell id="V1xVhpWKba1b41n8vRxY-86" value="" style="endArrow=none;html=1;rounded=0;strokeWidth=2;entryX=0.5;entryY=1;entryDx=0;entryDy=0;" edge="1" parent="V1xVhpWKba1b41n8vRxY-259" source="V1xVhpWKba1b41n8vRxY-74" target="V1xVhpWKba1b41n8vRxY-73">
          <mxGeometry width="50" height="50" relative="1" as="geometry">
            <mxPoint x="235" y="390" as="sourcePoint" />
            <mxPoint x="235" y="340" as="targetPoint" />
          </mxGeometry>
        </mxCell>
        <mxCell id="V1xVhpWKba1b41n8vRxY-87" value="" style="endArrow=none;html=1;rounded=0;strokeWidth=2;" edge="1" parent="V1xVhpWKba1b41n8vRxY-259" source="V1xVhpWKba1b41n8vRxY-73" target="V1xVhpWKba1b41n8vRxY-71">
          <mxGeometry width="50" height="50" relative="1" as="geometry">
            <mxPoint x="233" y="320" as="sourcePoint" />
            <mxPoint x="225" y="280" as="targetPoint" />
          </mxGeometry>
        </mxCell>
        <mxCell id="V1xVhpWKba1b41n8vRxY-88" value="" style="endArrow=none;html=1;rounded=0;strokeWidth=2;" edge="1" parent="V1xVhpWKba1b41n8vRxY-259" source="V1xVhpWKba1b41n8vRxY-71" target="V1xVhpWKba1b41n8vRxY-72">
          <mxGeometry width="50" height="50" relative="1" as="geometry">
            <mxPoint x="215" y="270" as="sourcePoint" />
            <mxPoint x="185" y="270" as="targetPoint" />
          </mxGeometry>
        </mxCell>
        <mxCell id="V1xVhpWKba1b41n8vRxY-89" value="" style="endArrow=none;html=1;rounded=0;strokeWidth=2;" edge="1" parent="V1xVhpWKba1b41n8vRxY-259" source="V1xVhpWKba1b41n8vRxY-75" target="V1xVhpWKba1b41n8vRxY-72">
          <mxGeometry width="50" height="50" relative="1" as="geometry">
            <mxPoint x="165" y="262" as="sourcePoint" />
            <mxPoint x="135" y="268" as="targetPoint" />
          </mxGeometry>
        </mxCell>
        <mxCell id="V1xVhpWKba1b41n8vRxY-90" value="" style="endArrow=none;html=1;rounded=0;strokeWidth=2;" edge="1" parent="V1xVhpWKba1b41n8vRxY-259" source="V1xVhpWKba1b41n8vRxY-77" target="V1xVhpWKba1b41n8vRxY-75">
          <mxGeometry width="50" height="50" relative="1" as="geometry">
            <mxPoint x="117" y="320" as="sourcePoint" />
            <mxPoint x="123" y="280" as="targetPoint" />
          </mxGeometry>
        </mxCell>
        <mxCell id="V1xVhpWKba1b41n8vRxY-91" value="" style="endArrow=none;html=1;rounded=0;strokeWidth=2;" edge="1" parent="V1xVhpWKba1b41n8vRxY-259" source="V1xVhpWKba1b41n8vRxY-70" target="V1xVhpWKba1b41n8vRxY-71">
          <mxGeometry width="50" height="50" relative="1" as="geometry">
            <mxPoint x="165" y="262" as="sourcePoint" />
            <mxPoint x="135" y="268" as="targetPoint" />
          </mxGeometry>
        </mxCell>
        <mxCell id="V1xVhpWKba1b41n8vRxY-92" value="" style="endArrow=none;html=1;rounded=0;strokeWidth=2;" edge="1" parent="V1xVhpWKba1b41n8vRxY-259" source="V1xVhpWKba1b41n8vRxY-69" target="V1xVhpWKba1b41n8vRxY-70">
          <mxGeometry width="50" height="50" relative="1" as="geometry">
            <mxPoint x="175" y="170" as="sourcePoint" />
            <mxPoint x="175" y="250" as="targetPoint" />
          </mxGeometry>
        </mxCell>
        <mxCell id="V1xVhpWKba1b41n8vRxY-93" value="" style="endArrow=none;html=1;rounded=0;strokeWidth=2;" edge="1" parent="V1xVhpWKba1b41n8vRxY-259" source="V1xVhpWKba1b41n8vRxY-76" target="V1xVhpWKba1b41n8vRxY-69">
          <mxGeometry width="50" height="50" relative="1" as="geometry">
            <mxPoint x="175" y="110" as="sourcePoint" />
            <mxPoint x="175" y="150" as="targetPoint" />
          </mxGeometry>
        </mxCell>
        <mxCell id="V1xVhpWKba1b41n8vRxY-94" value="" style="endArrow=none;html=1;rounded=0;strokeWidth=2;" edge="1" parent="V1xVhpWKba1b41n8vRxY-259" source="V1xVhpWKba1b41n8vRxY-79" target="V1xVhpWKba1b41n8vRxY-69">
          <mxGeometry width="50" height="50" relative="1" as="geometry">
            <mxPoint x="175" y="50" as="sourcePoint" />
            <mxPoint x="175" y="90" as="targetPoint" />
          </mxGeometry>
        </mxCell>
        <mxCell id="V1xVhpWKba1b41n8vRxY-95" value="" style="endArrow=none;html=1;rounded=0;strokeWidth=2;" edge="1" parent="V1xVhpWKba1b41n8vRxY-259" source="V1xVhpWKba1b41n8vRxY-81" target="V1xVhpWKba1b41n8vRxY-79">
          <mxGeometry width="50" height="50" relative="1" as="geometry">
            <mxPoint x="55" y="164" as="sourcePoint" />
            <mxPoint x="105" y="150" as="targetPoint" />
          </mxGeometry>
        </mxCell>
        <mxCell id="V1xVhpWKba1b41n8vRxY-96" value="" style="endArrow=none;html=1;rounded=0;strokeWidth=2;" edge="1" parent="V1xVhpWKba1b41n8vRxY-259" source="V1xVhpWKba1b41n8vRxY-82" target="V1xVhpWKba1b41n8vRxY-81">
          <mxGeometry width="50" height="50" relative="1" as="geometry">
            <mxPoint x="15" y="214" as="sourcePoint" />
            <mxPoint x="65" y="200" as="targetPoint" />
          </mxGeometry>
        </mxCell>
        <mxCell id="V1xVhpWKba1b41n8vRxY-97" value="" style="endArrow=none;html=1;rounded=0;strokeWidth=2;" edge="1" parent="V1xVhpWKba1b41n8vRxY-259" source="V1xVhpWKba1b41n8vRxY-69" target="V1xVhpWKba1b41n8vRxY-80">
          <mxGeometry width="50" height="50" relative="1" as="geometry">
            <mxPoint x="115" y="117" as="sourcePoint" />
            <mxPoint x="165" y="103" as="targetPoint" />
          </mxGeometry>
        </mxCell>
        <mxCell id="V1xVhpWKba1b41n8vRxY-98" value="" style="endArrow=none;html=1;rounded=0;strokeWidth=2;" edge="1" parent="V1xVhpWKba1b41n8vRxY-259" source="V1xVhpWKba1b41n8vRxY-80" target="V1xVhpWKba1b41n8vRxY-83">
          <mxGeometry width="50" height="50" relative="1" as="geometry">
            <mxPoint x="185" y="103" as="sourcePoint" />
            <mxPoint x="235" y="117" as="targetPoint" />
          </mxGeometry>
        </mxCell>
        <mxCell id="V1xVhpWKba1b41n8vRxY-99" value="" style="endArrow=none;html=1;rounded=0;strokeWidth=2;" edge="1" parent="V1xVhpWKba1b41n8vRxY-259" source="V1xVhpWKba1b41n8vRxY-83" target="V1xVhpWKba1b41n8vRxY-84">
          <mxGeometry width="50" height="50" relative="1" as="geometry">
            <mxPoint x="195" y="113" as="sourcePoint" />
            <mxPoint x="245" y="127" as="targetPoint" />
          </mxGeometry>
        </mxCell>
        <mxCell id="V1xVhpWKba1b41n8vRxY-260" value="" style="group" vertex="1" connectable="0" parent="1">
          <mxGeometry x="1830" y="630" width="330" height="415" as="geometry" />
        </mxCell>
        <mxCell id="V1xVhpWKba1b41n8vRxY-261" value="" style="rounded=1;whiteSpace=wrap;html=1;" vertex="1" parent="V1xVhpWKba1b41n8vRxY-260">
          <mxGeometry width="330" height="415" as="geometry" />
        </mxCell>
        <mxCell id="V1xVhpWKba1b41n8vRxY-262" value="" style="ellipse;whiteSpace=wrap;html=1;aspect=fixed;" vertex="1" parent="V1xVhpWKba1b41n8vRxY-260">
          <mxGeometry x="155" y="80" width="20" height="20" as="geometry" />
        </mxCell>
        <mxCell id="V1xVhpWKba1b41n8vRxY-263" value="" style="ellipse;whiteSpace=wrap;html=1;aspect=fixed;" vertex="1" parent="V1xVhpWKba1b41n8vRxY-260">
          <mxGeometry x="155" y="140" width="20" height="20" as="geometry" />
        </mxCell>
        <mxCell id="V1xVhpWKba1b41n8vRxY-264" value="" style="ellipse;whiteSpace=wrap;html=1;aspect=fixed;" vertex="1" parent="V1xVhpWKba1b41n8vRxY-260">
          <mxGeometry x="155" y="240" width="20" height="20" as="geometry" />
        </mxCell>
        <mxCell id="V1xVhpWKba1b41n8vRxY-265" value="" style="ellipse;whiteSpace=wrap;html=1;aspect=fixed;" vertex="1" parent="V1xVhpWKba1b41n8vRxY-260">
          <mxGeometry x="105" y="250" width="20" height="20" as="geometry" />
        </mxCell>
        <mxCell id="V1xVhpWKba1b41n8vRxY-266" value="" style="ellipse;whiteSpace=wrap;html=1;aspect=fixed;" vertex="1" parent="V1xVhpWKba1b41n8vRxY-260">
          <mxGeometry x="205" y="250" width="20" height="20" as="geometry" />
        </mxCell>
        <mxCell id="V1xVhpWKba1b41n8vRxY-267" value="" style="ellipse;whiteSpace=wrap;html=1;aspect=fixed;" vertex="1" parent="V1xVhpWKba1b41n8vRxY-260">
          <mxGeometry x="215" y="310" width="20" height="20" as="geometry" />
        </mxCell>
        <mxCell id="V1xVhpWKba1b41n8vRxY-268" value="" style="ellipse;whiteSpace=wrap;html=1;aspect=fixed;" vertex="1" parent="V1xVhpWKba1b41n8vRxY-260">
          <mxGeometry x="95" y="310" width="20" height="20" as="geometry" />
        </mxCell>
        <mxCell id="V1xVhpWKba1b41n8vRxY-269" value="" style="ellipse;whiteSpace=wrap;html=1;aspect=fixed;" vertex="1" parent="V1xVhpWKba1b41n8vRxY-260">
          <mxGeometry x="155" y="20" width="20" height="20" as="geometry" />
        </mxCell>
        <mxCell id="V1xVhpWKba1b41n8vRxY-270" value="" style="ellipse;whiteSpace=wrap;html=1;aspect=fixed;" vertex="1" parent="V1xVhpWKba1b41n8vRxY-260">
          <mxGeometry x="95" y="380" width="20" height="20" as="geometry" />
        </mxCell>
        <mxCell id="V1xVhpWKba1b41n8vRxY-271" value="" style="ellipse;whiteSpace=wrap;html=1;aspect=fixed;" vertex="1" parent="V1xVhpWKba1b41n8vRxY-260">
          <mxGeometry x="215" y="380" width="20" height="20" as="geometry" />
        </mxCell>
        <mxCell id="V1xVhpWKba1b41n8vRxY-272" value="" style="ellipse;whiteSpace=wrap;html=1;aspect=fixed;" vertex="1" parent="V1xVhpWKba1b41n8vRxY-260">
          <mxGeometry x="85" y="100" width="20" height="20" as="geometry" />
        </mxCell>
        <mxCell id="V1xVhpWKba1b41n8vRxY-273" value="" style="ellipse;whiteSpace=wrap;html=1;aspect=fixed;" vertex="1" parent="V1xVhpWKba1b41n8vRxY-260">
          <mxGeometry x="225" y="100" width="20" height="20" as="geometry" />
        </mxCell>
        <mxCell id="V1xVhpWKba1b41n8vRxY-274" value="" style="ellipse;whiteSpace=wrap;html=1;aspect=fixed;" vertex="1" parent="V1xVhpWKba1b41n8vRxY-260">
          <mxGeometry x="55" y="160" width="20" height="20" as="geometry" />
        </mxCell>
        <mxCell id="V1xVhpWKba1b41n8vRxY-275" value="" style="ellipse;whiteSpace=wrap;html=1;aspect=fixed;" vertex="1" parent="V1xVhpWKba1b41n8vRxY-260">
          <mxGeometry x="35" y="230" width="20" height="20" as="geometry" />
        </mxCell>
        <mxCell id="V1xVhpWKba1b41n8vRxY-276" value="" style="ellipse;whiteSpace=wrap;html=1;aspect=fixed;" vertex="1" parent="V1xVhpWKba1b41n8vRxY-260">
          <mxGeometry x="265" y="160" width="20" height="20" as="geometry" />
        </mxCell>
        <mxCell id="V1xVhpWKba1b41n8vRxY-277" value="" style="ellipse;whiteSpace=wrap;html=1;aspect=fixed;" vertex="1" parent="V1xVhpWKba1b41n8vRxY-260">
          <mxGeometry x="285" y="230" width="20" height="20" as="geometry" />
        </mxCell>
        <mxCell id="V1xVhpWKba1b41n8vRxY-278" value="" style="endArrow=none;html=1;rounded=0;strokeWidth=2;" edge="1" parent="V1xVhpWKba1b41n8vRxY-260" source="V1xVhpWKba1b41n8vRxY-271" target="V1xVhpWKba1b41n8vRxY-267">
          <mxGeometry width="50" height="50" relative="1" as="geometry">
            <mxPoint x="415" y="360" as="sourcePoint" />
            <mxPoint x="465" y="310" as="targetPoint" />
          </mxGeometry>
        </mxCell>
        <mxCell id="V1xVhpWKba1b41n8vRxY-279" value="" style="endArrow=none;html=1;rounded=0;strokeWidth=2;entryX=0.5;entryY=1;entryDx=0;entryDy=0;" edge="1" parent="V1xVhpWKba1b41n8vRxY-260" source="V1xVhpWKba1b41n8vRxY-267" target="V1xVhpWKba1b41n8vRxY-266">
          <mxGeometry width="50" height="50" relative="1" as="geometry">
            <mxPoint x="235" y="390" as="sourcePoint" />
            <mxPoint x="235" y="340" as="targetPoint" />
          </mxGeometry>
        </mxCell>
        <mxCell id="V1xVhpWKba1b41n8vRxY-280" value="" style="endArrow=none;html=1;rounded=0;strokeWidth=2;" edge="1" parent="V1xVhpWKba1b41n8vRxY-260" source="V1xVhpWKba1b41n8vRxY-266" target="V1xVhpWKba1b41n8vRxY-264">
          <mxGeometry width="50" height="50" relative="1" as="geometry">
            <mxPoint x="233" y="320" as="sourcePoint" />
            <mxPoint x="225" y="280" as="targetPoint" />
          </mxGeometry>
        </mxCell>
        <mxCell id="V1xVhpWKba1b41n8vRxY-281" value="" style="endArrow=none;html=1;rounded=0;strokeWidth=2;" edge="1" parent="V1xVhpWKba1b41n8vRxY-260" source="V1xVhpWKba1b41n8vRxY-264" target="V1xVhpWKba1b41n8vRxY-265">
          <mxGeometry width="50" height="50" relative="1" as="geometry">
            <mxPoint x="215" y="270" as="sourcePoint" />
            <mxPoint x="185" y="270" as="targetPoint" />
          </mxGeometry>
        </mxCell>
        <mxCell id="V1xVhpWKba1b41n8vRxY-282" value="" style="endArrow=none;html=1;rounded=0;strokeWidth=2;" edge="1" parent="V1xVhpWKba1b41n8vRxY-260" source="V1xVhpWKba1b41n8vRxY-268" target="V1xVhpWKba1b41n8vRxY-265">
          <mxGeometry width="50" height="50" relative="1" as="geometry">
            <mxPoint x="165" y="262" as="sourcePoint" />
            <mxPoint x="135" y="268" as="targetPoint" />
          </mxGeometry>
        </mxCell>
        <mxCell id="V1xVhpWKba1b41n8vRxY-283" value="" style="endArrow=none;html=1;rounded=0;strokeWidth=2;" edge="1" parent="V1xVhpWKba1b41n8vRxY-260" source="V1xVhpWKba1b41n8vRxY-270" target="V1xVhpWKba1b41n8vRxY-268">
          <mxGeometry width="50" height="50" relative="1" as="geometry">
            <mxPoint x="117" y="320" as="sourcePoint" />
            <mxPoint x="123" y="280" as="targetPoint" />
          </mxGeometry>
        </mxCell>
        <mxCell id="V1xVhpWKba1b41n8vRxY-284" value="" style="endArrow=none;html=1;rounded=0;strokeWidth=2;" edge="1" parent="V1xVhpWKba1b41n8vRxY-260" source="V1xVhpWKba1b41n8vRxY-263" target="V1xVhpWKba1b41n8vRxY-264">
          <mxGeometry width="50" height="50" relative="1" as="geometry">
            <mxPoint x="165" y="262" as="sourcePoint" />
            <mxPoint x="135" y="268" as="targetPoint" />
          </mxGeometry>
        </mxCell>
        <mxCell id="V1xVhpWKba1b41n8vRxY-285" value="" style="endArrow=none;html=1;rounded=0;strokeWidth=2;" edge="1" parent="V1xVhpWKba1b41n8vRxY-260" source="V1xVhpWKba1b41n8vRxY-262" target="V1xVhpWKba1b41n8vRxY-263">
          <mxGeometry width="50" height="50" relative="1" as="geometry">
            <mxPoint x="175" y="170" as="sourcePoint" />
            <mxPoint x="175" y="250" as="targetPoint" />
          </mxGeometry>
        </mxCell>
        <mxCell id="V1xVhpWKba1b41n8vRxY-286" value="" style="endArrow=none;html=1;rounded=0;strokeWidth=2;" edge="1" parent="V1xVhpWKba1b41n8vRxY-260" source="V1xVhpWKba1b41n8vRxY-269" target="V1xVhpWKba1b41n8vRxY-262">
          <mxGeometry width="50" height="50" relative="1" as="geometry">
            <mxPoint x="175" y="110" as="sourcePoint" />
            <mxPoint x="175" y="150" as="targetPoint" />
          </mxGeometry>
        </mxCell>
        <mxCell id="V1xVhpWKba1b41n8vRxY-287" value="" style="endArrow=none;html=1;rounded=0;strokeWidth=2;" edge="1" parent="V1xVhpWKba1b41n8vRxY-260" source="V1xVhpWKba1b41n8vRxY-272" target="V1xVhpWKba1b41n8vRxY-262">
          <mxGeometry width="50" height="50" relative="1" as="geometry">
            <mxPoint x="175" y="50" as="sourcePoint" />
            <mxPoint x="175" y="90" as="targetPoint" />
          </mxGeometry>
        </mxCell>
        <mxCell id="V1xVhpWKba1b41n8vRxY-288" value="" style="endArrow=none;html=1;rounded=0;strokeWidth=2;" edge="1" parent="V1xVhpWKba1b41n8vRxY-260" source="V1xVhpWKba1b41n8vRxY-274" target="V1xVhpWKba1b41n8vRxY-272">
          <mxGeometry width="50" height="50" relative="1" as="geometry">
            <mxPoint x="55" y="164" as="sourcePoint" />
            <mxPoint x="105" y="150" as="targetPoint" />
          </mxGeometry>
        </mxCell>
        <mxCell id="V1xVhpWKba1b41n8vRxY-289" value="" style="endArrow=none;html=1;rounded=0;strokeWidth=2;" edge="1" parent="V1xVhpWKba1b41n8vRxY-260" source="V1xVhpWKba1b41n8vRxY-275" target="V1xVhpWKba1b41n8vRxY-274">
          <mxGeometry width="50" height="50" relative="1" as="geometry">
            <mxPoint x="15" y="214" as="sourcePoint" />
            <mxPoint x="65" y="200" as="targetPoint" />
          </mxGeometry>
        </mxCell>
        <mxCell id="V1xVhpWKba1b41n8vRxY-290" value="" style="endArrow=none;html=1;rounded=0;strokeWidth=2;" edge="1" parent="V1xVhpWKba1b41n8vRxY-260" source="V1xVhpWKba1b41n8vRxY-262" target="V1xVhpWKba1b41n8vRxY-273">
          <mxGeometry width="50" height="50" relative="1" as="geometry">
            <mxPoint x="115" y="117" as="sourcePoint" />
            <mxPoint x="165" y="103" as="targetPoint" />
          </mxGeometry>
        </mxCell>
        <mxCell id="V1xVhpWKba1b41n8vRxY-291" value="" style="endArrow=none;html=1;rounded=0;strokeWidth=2;" edge="1" parent="V1xVhpWKba1b41n8vRxY-260" source="V1xVhpWKba1b41n8vRxY-273" target="V1xVhpWKba1b41n8vRxY-276">
          <mxGeometry width="50" height="50" relative="1" as="geometry">
            <mxPoint x="185" y="103" as="sourcePoint" />
            <mxPoint x="235" y="117" as="targetPoint" />
          </mxGeometry>
        </mxCell>
        <mxCell id="V1xVhpWKba1b41n8vRxY-292" value="" style="endArrow=none;html=1;rounded=0;strokeWidth=2;" edge="1" parent="V1xVhpWKba1b41n8vRxY-260" source="V1xVhpWKba1b41n8vRxY-276" target="V1xVhpWKba1b41n8vRxY-277">
          <mxGeometry width="50" height="50" relative="1" as="geometry">
            <mxPoint x="195" y="113" as="sourcePoint" />
            <mxPoint x="245" y="127" as="targetPoint" />
          </mxGeometry>
        </mxCell>
        <mxCell id="V1xVhpWKba1b41n8vRxY-293" value="" style="shape=image;verticalLabelPosition=bottom;labelBackgroundColor=default;verticalAlign=top;aspect=fixed;imageAspect=0;image=data:image/png,iVBORw0KGgoAAAANSUhEUgAAAyMAAAPoCAIAAABCnrblAAAAAXNSR0IArs4c6QAAAERlWElmTU0AKgAAAAgAAYdpAAQAAAABAAAAGgAAAAAAA6ABAAMAAAABAAEAAKACAAQAAAABAAADI6ADAAQAAAABAAAD6AAAAABKazWhAABAAElEQVR4AezdeeBtU/k/8F9zSElIxnvNUohUxkQZ0jckiQZChuZBc6pvGn0zRZRIInOUIUOGkJLSSMlwpSRTmZuH3+veJ6vjcwf3fD7nnM/0Xn+ss/baz1rrWe+z97Pe+1lrr/2If//73/8vIQgEgSAQBIJAEAgCQaAPCDyyD3WmyiAQBIJAEAgCQSAIBIHpCIRp5ToIAkEgCASBIBAEgkC/EAjT6heyqTcIBIEgEASCQBAIAmFauQaCQBAIAkEgCASBINAvBMK0+oVs6g0CQSAIBIEgEASCQJhWroEgEASCQBAIAkEgCPQLgTCtfiGbeoNAEAgCQSAIBIEgEKaVayAIBIEgEASCQBAIAv1CIEyrX8im3iAQBIJAEAgCQSAIhGnlGggCQSAIBIEgEASCQL8QCNPqF7KpNwgEgSAQBIJAEAgCYVq5BoJAEAgCQSAIBIEg0C8EwrT6hWzqDQJBIAgEgSAQBIJAmFaugSAQBIJAEAgCQSAI9AuBMK1+IZt6g0AQCAJBIAgEgSAQpjXoa+Df//53a/Kf//xnSycRBIJAEAgCQWDYCBhcKgy7hhTsEwKP8Mf0qepU24lA4Vy3wSMeDA4lidXZSneWSjoIBIEgEASCQFcI1ECjSA01VbZz9Oms7V//+tcQyc6zSfcEgTCtnsDYXSXtNugs1m4J173wqEc9qvNs0kEgCASBIBAEZomAMaWNIJ0ChpJHPvI/M1dknGrP81VEjgQx+U2ys4ake4JAmFZPYHz4SoZc5Qq0C72zsExBTi76TliSDgJBIAgEgTkj0IaPEpuZe9XgUmc72VUVzKAzZ3hHcjZMayTodVHWkqx6mKi4rvghOTJnvje6aCOiQSAIBIEgMOkRqKGkYCgW1Tmy1FlMSyKTJ4O5WMK0BoPzf1upJ4niWHKH3BLOlmgeL/4LWVJBIAgEgSAwewQ6HVSkDCslWwNNHba0wxpfimzJz3Aze2h7cyZMqzc4PmwtrmlXs0u885b4+9///pjHPEam4HIX1EOgZB62zggEgSAQBIJAEKghwwhiKIGGRDmrWr5M6TrlrKHn0Y9+tIRMRYxN0oGxfwiEafUP26E1m0C89957b7/99jvvvPOPf/zjHXfcIb7lllvuu+8+ibvvvvtPf/rTn//857/85S9uA2Fo+RwHgSAQBIJAEJgVAqiSgGA99rGPnWeeeeadd97HPe5xT37yk+eff/6FFlpo4QeD9BOf+MTFF1+cgOd8NdVzflVZRG3m6tU8c2Zy5h6BMK3/YlWUv/yotdOVq7Y9IpCTrsMm45CMq7CeDKQVrOcDtKlI1bRp06655pqf//znt956K16FbKFTDzzwwH8bfvB9kKp8+u0yo8JOgaSDQBAIAkEgCMwSAUNPjUHO1ggiUQOKuHJqgHv84x+PeyFbT3va05ZYYonllltutdVWW2aZZRZddNFFFlmkhjNlCVepqqRqM7Q5FCQIiNt4R6Bk5KukDhM3BMK0/gNF5xVTF1O7ziQIyaxEFfjb3/7m0aEy+Z9ccy4vzqpf//rXP5wRbpwRbr755vJOOUtYWZVw2z7hCU94ylOessACC7jW55tvPk8e9fDhWcRZwh5H/qNZfoJAEAgCQSAIzAUCiI4Rx3O+h/m//vWvZks825s/qSmUe+655/7775evJpJiY42xT8zLhW+tsMIKz3rWs9Zcc80pU6YsuOCC8otRVcsKcoM1mvWPf/zDaGVck6gRkJi0WH4VSVwIhGk95EpwVbluXDT4kIRLsK4Y6QqknSIg4YJ2loPqJz/5yY9mhEsuueS3v/0tElZiipBcbLHFXLUYlWeIZZddttIeIJ70pCehU2RUKCgiXQXFCUEgCASBIBAE5hKBNkLV8FSlanyRRoDwJEzLvMptt91mpoUX4De/+c1NN90kjZAZ+4x3VQqdmjp16tprr41yrbHGGquvvjp3gPGuZhuLe5WvoViaUjV4SdRYVvUkbgiEaf0HClfMDMLzH9LTAKpEu15b/i9+8Yvvfe973/nOdy699FLsysXnUvYEQMA1uuKKK6600kou0Gc84xmYlsvUpHhdgiTJ1M3QishpV2rnfdKaSyIIBIEgEASCwBwQMLjUUFVjGUnjWg0oRY9qDOqckJG+66670C/rW7gMrrrqKtMyAl5V7i7uAO6u5z//+eutt97666/PU1B8S+VVD0nBpKSGiqvVODgHPSfhqTCtWfzpLtbiQ3W9iuvQ9XT99defddZZ3/rWt1yR1l25tpxyLXJW4f7Pfe5z11prrSWXXNKqQ1dbXXBFodqFLlE3Q7sB2l1RqlRbdUvMQrlkBYEgEASCQBB4KAJDhowaxWoMKsEaWWrckeNQUEpOla2BiX/LMPeDH/yAH+HHP/4x11etKlaVJS7PfvazN910U8Rr5ZVXxq6KbKmthrmqgQehsbGH6jh5j8K0Hua/53F1hVlz9Y1vfOO0005D/M1z11VlBpBz1WXHy2qG26y2fNduI1gOhbqU65puN4NDDTtsOSRLlZbzMJrldBAIAkEgCASBDgRqHGmDCCeTHFxKINXOyjdOOSQp5kQQcxnIryGs5L0Rf/XVV/N1nXvuuZdffrnFXlWz9cTGvq233vqlL30pz4Ily0opq5Rqpat4h16TPRmm9ZArwNWGj9fl4uKzBuuCCy447rjjzjnnHLzeWdLcV+uuu+6LZgSr2smj9vKdrau24hJu6Ua/SNbFKjFLvqWg/KwohE9CEAgCQSAIPCwChiHDipGrBheDiKBUMR4DinyhRpyWXzysrUV2tnhSNVdFpIuWmcM5//zzzzvvvMsuu8zqrsr3UhdfwzbbbLPxxhvzNRTZUrBqSNwQCNP6DxR1XTpwlbhcTA4ee+yxX/va18xYO+V6taR9o402etnLXva85z3P1iSubMJ1jbarvIq3y9phS0u0i15+pSUSgkAQCAJBIAj0D4HO0a1akSM0LiUt3+GQccqhU6YCJQTjnUOeLf6tU045xfSi2R6ZRkAOCIPjK17xCtOL/evI+K15IjMtf38xId4pzAZbL8YtrivGheW6cQE5WxeZTUQ5sY455pgLL7zQLKFTOLtlgNykaNbSSy9NXm2cpeP3L4/mQSAIBIEgEASGgYBR1XApWFfzhz/8gZfrpJNO8nKY1V1GWMOltTSvf/3rN9hgA2n1E6tX7KWNnsZZiRp5K1Hjr/TEDhOWadX/57KQKGLU+Y/ah12my8X8oCln/zGe7oo5/vjjv//97yslx84ir3rVq7bddtupU6eaH1TchVKTgI3DTeyLI70LAkEgCASBINBIEijaSMrpwN0lvu6660499dSjjz7aUvpyceFbRs+dd97Z8FpiVUMNnZwd6jGYylRbpSc2yBOWac3ub/PXCjiWP9i/jm/hWCeeeOIXv/jFX/7yl64JF8o666yz2267bbHFFlg5mRKuy0tZNefFitnBm/wgEASCQBCYeAg0goUnGQdrvqi6WaOkzbq8mH/kkUfaV3L6KPvvf9vkyEj66le/2kuLDokZOsV8WuWzmHgoza5HE5lp+Uf9nf7UxqAbCnKc4vA8/PDDjzrqKJTcdWDf9pe85CW77767zRpcRq6J9gpru8jqclEW/Wq1JREEgkAQCAJBYAIjYBDUu5r+qyFVuoI5opoaMj4SM5l48MEH2wsJ91LEB3/MJ+Jb3tZ3aFw2vBITDKOqmgyeiwnLtMpj6b+sS0HCH8yDVTnWYH35y18+7LDD+LH82XxXlvLttNNOdsNyKchx6fj7MariZC4gFcrvJPIkE4JAEAgCQSAITGwEjICtg4bUShtM5QvFnIyw5bJySMaOXBwZ1uT4NJBT9t9661vfusMOO9jE28DahmZVFfdq9U/IxIRlWu3fwpD8qf57/25lnnDCCQceeOCVV16JReFYppN33HFH+7kTcH0QxqhISoiLqLXaKrMEWmYSQSAIBIEgEAQmKgKdw+KQMdEw6qwRtliXYVSiyf/sZz879NBDLYDmvDAW+6jiRz7ykU022YTXA1Yki3VN+CF1IjMt/6u/39/pX/d32hDLJmwf/ehHbY7l4vBPmyt83/ve50vm5b00V1iUvP71umLKp+XaqsuoTlXmRL2p0q8gEASCQBAIAg2BxpyMfTUaOmWIFNdoyC9FxqhqoCyZGkDL0WVXiIMOOsiuScoaZ71n9v73v3/VVVclbEiV2RqaqIkJy7T8hfWf1b9oWyyezM9+9rOYtZwNN9zwve99r83WsDHsyiXi4mg0y3/f3k0l7JTairSpU3oyXBkT9YpPv4JAEAgCQaArBAyRRr0a+2r4K+5V46whssZHvMpZHKvOyjeYNhl868Mf/rC3+80nmk3aZZdd3vWud9mcsvwXXekz7oTHPdOqK6AuAuj7a+ufLgolh4BN3j/0oQ/97ne/w6a9DYFN29MWr3IF+I/rmhh3/1wUDgJBIAgEgSAwjhDgwvBdu4997GO+a0ft5Zdf/oMf/OBrX/taaaOz4bh5NAzlMovVFRUzUhdpK1/aOOr19I6U6uNL6U5tiyeJ/SX1r+iRQ3+GP9VHA/yRtvqQ6dVCK/Le9KY3+fyzf67mFhUp3l1lO2tOOggEgSAQBIJAEOgVAsU37KxkfumII4647bbbjNQ+nrjPPvusssoqWjFqc4IUtWqN1vhew7rM8biC/lGWp7X+jMdEMaSiTUixQ39SZdrqfdddd+Wx9A/Z4d3XdSx+9zJq/dm4MzHpEq54PCIQnYNAEAgCQSAIjH0EjLNcG/PPP/8LXvAC+1becsstvCHWT1s8bT7RfhDeTKxx3NBsKEeqJASEzGH5vXRzCBUbBx3Xh7Gv5Rw0bB4pdKr9MZjyXnvt5f1SOYsssoi5YZvV+qsIl3OyeBV+RkD+HOrPqSAQBIJAEAgCQWDkCJQ7qgZrtRmCP//5z++3334ol7RpROt8fELRKTLiYlQGbkO2NLrSBvGRKzPIGsb97GH9Jf4DS919M8c/ceaZZ5oltATef7PZZpsdcsghU6ZMKWrlTyq+Rawol79TZvjWIK+5tBUEgkAQCAKTGQHeqXpR0dBs5/B3vOMd5513nvTiiy/uLcXNN9/cuEyAmJHaAI2igatG7fGI27jc6BxPagHo0mKfsbQf6Zvf/GZThBySFmPZxsPiu6lTp/r/8DATwGhWselOP1Zo1ni8cKNzEAgCQSAIjDsEjNdFszixKI9CWRdvAsq28mYVp02bZgR/29ve5qzBGtlCuYgVx6qxvuLx1fFx6dPqBBqL8n+I8WJ/z9lnn+0PWH/99ffdd18f1ZHf/tTazUGOoIYqhWaRL/o1vv65aBsEgkAQCAJBYDwiUONyaS5dWwH89Kc/NYhfdtll2JX5KM4tK7eM0QQ4R4QaqZ2VHl+9niBMy3o63yv8/e9/71+R+PSnP10r3zGq9vf4k/xD/lEkWia+5a8iIBGmNb6u2mgbBIJAEAgC4xGB9nZhrdnShRqFJZySaatLryWahjKTaGJqiy22MF6XMAGTV+Ox1+Np9hDWQqHsvxGkkaf999//la985c033/y0pz3Nrv+ckFyO+FObFizHlRjNUoQfsmiWdCVKoGpOHASCQBAIAkEgCPQDAVSpBty26KpGYdOFTllsbQT/yle+YjS3BabvUh9wwAHGekXEzZVVM4+d6mECQmfOmEqPG58WlP0foCx6K5Zz9913e8fwqKOOQqHWWGMN/FccB9WYusKiTBAIAkEgCASBOSDAh4J41TQiFsVXYmtTmzT5TLVxnyeFP+WpT32qGurVt1ZVEQODficPa2fHTmLc+LSKwxb5BZ/Erbfe6qVQNMvh9ttv77vRvhLtr0J+xzK3HTv/fTQJAkEgCASBIDDqCJR/q6ab0CzMaaWVVjr99NN9IRGFOvnkk1/zmtf89re/pSenV5EBY71DTIBAOcmUGvWOzE6BcePT0oGaOvRnSFj/bossu5KCeO+99/b5pPnmm88fUPOD/gP/1uz6nPwgEASCQBAIAkFgjCCAJOFMQumDPEk4lLC5uq/3OFxrrbWOPvpoa+TNaJVny0AvLYz9EX88MS2fpawNZC+55BIfp8Rw7Sr7yU9+crfddvM/8WNhVxCXRnvHyAUUNYJAEAgCQSAIBIE5IGDU5jThQ8GuMKdaJlT0S9rMlQ23EIAll1zyyCOP3HjjjXlVnOVY6SyFljWuNoe2RuXUeGJakBXOOuss1OrOO++cOnXqYYcd5jM7/pjCzl8C63J6iUcF0DQaBIJAEAgCQSAIzD0CBm7Dd43aRnn8SVzFizxdfPHFZrFuvPHGRRdd1Bp5K7eKV4nxs5rLkhiz4/54WqcFfYuxLMm6/fbbl1lmGY7EF73oRf4M9LbgFgO66PDc/8eRDAJBIAgEgSAQBEYLgRq7sStsyUBvEC++hWZVWHfddb/0pS9ZvGV9to2cMAGqEqs9I8xlORyzNItu48an5Z/4whe+8Pa3v90/Ae5TTz0V2WreLD2pP4aYP6bSMhOCQBAIAkEgCASBMY5A80jVIE7bztG8HCi//OUv7fvwox/9yEohWw1YRESs1meP8UF/jPq0itIW1tISJgprh/5VVlnla1/7mv37MV/5LdQhmiVnyKkmk0QQCAJBIAgEgSAw1hBoHqkaxKnXOZrzqqBiK6+8si0zLY3Hrvbcc0/OF/TA1KFTmJYixRY60y1zdPv7ELIyuqpU62isRFGl4lsg9rlvbxcCd7XVVjvjjDNWWGEFyPobxGNB5+gQBIJAEAgCQSAI9BaBolDFCtSMAxj9jzvuuDXXXBM9eOtb32pKUT7CgKghWEXOxDWf6JQaOue+eqve3Nc25mYPQQkXwJUz0CwsD9Yee+xx3333PfvZzz7mmGNMHRbN6iS8c9/hSAaBIBAEgkAQCALjBQFMCx8otxadkaprr73WAvkrrrjCoTcTLZAvOkVSKE+NRNEsVKHYwij2d8wxLVgACKwwkjj33HN92fuBBx5As0455ZSll14aky0eNhaI6ij+c2k6CASBIBAEgsAERoDnRe9qftCIjzAhAIJ1Wt5D3HrrrVEuAjxbyFbbPp5A0YNK4BJtanK0sBqLTAu49dLmpZdeutVWW/3xj3/kKjQ7O2XKFBwL/YJaubWgFr41WpdO2g0CQSAIBIEg0FcEanZLE4iU4b64ARqARf3mN7956Utf+otf/OLJT36yKcVNN930z3/+8zzzzEOYgLg4VvnD+qrkw1Y+FpkWdDAq8AHx17/+tXcMzzzzTJOG1ZmaXhT7GmWjrg/bzwgEgSAQBIJAEAgC4wgBhEkw0CNYCBPNax6wyJP4qquu8sWeadOmLb744t/85jef/vSnW3FEhtNrLLiyGtRjbkU8TLmsbEz6ute9jntwqaWWsjZrxRVXpDFYLXODOB6GZtkxNg6t9kcmEQSCQBAIAkFgIiFg0Dfc19wfyiWNIRTZqonFVVdd9ctf/vLCCy/smzEWGt188824QScC5HGvzpxRSY85poU8oVn2yfjhD38IPm8drr322g1ZRBVwuCrQfZlHYlRQS6NBIAgEgSAQBIJAXxEoZ0oRAIO+tnAvcU0jIl74Fobw1a9+9UlPetJPfvITzOHuu+92lhh+poiyQ7hXXxWeXeWjybSKMBVwFdMSkdprr724AYG1zz771C7wpX3hJR+CBX1R3dn1LflBIAiMcQSYQsHt78YvVR1WuvKb/mRYjGYoJAQyBCpuh5Ujs/JbDUkEgSAwfhGo4Z63pbrg7mYo3PUOX/CCF3ziE5/AEM477zzbmzuFhDWxsWAHHuVD2aXQ4GNYIExC4VXQHHjggfvuu6/MD3zgA/bQangNXr20GASCwAAQmGEDHlF3enEsT1NIlbiMQzOUlUOlsqTOtnSTKYWrzhIYQBfSRBAIAoNEwOp464hqubatCdAvr81hXZdddpkd5J/ylKfY3ZRJYU+aX2aQ6s3c1miuiLfoCjSPf/zjSy3pc845Z7vttvP6gDc2bf/KsGKpZVVnVj05QSAITAAE3PgCsyjoTnEmJKmRrdZHOSUjpyWqyBBSpUL1yOwUa/UkEQSCwHhHoIyGXqBTqIIEyrXrrruedNJJVhYde+yx3qhjAZxlCkZ9+ms0mVb7p1EunNTrAxtttJEVbWusscbpp5/uk90ECs2GaSuSRBAIAhMAAbd2I0ntmUqirKdT0p5cEaaylc2qyheKSEmQqWkF6c4KW3oCYJUuBIEg0BAoUyBmBNzmaNZ88813++23v/jFL7Zga6GFFrryyisXWWSRye7TKoC8FMCnJX3//ffzY/FpLbbYYmjW6quvDjuBIXaWn1C6QZxEEAgCEw+BYl3udGxJ7yTc+zLd/vzcd9xxBzpl1kCmU3bNecITnsC2MiAEyCtVn+BAuaoS8cRDKT0KAkGAe7sevZrRgInbX6bZw2222cZWW5ttthn/FivBbpSJIDNaNmHUfFoAqufRQsoHjA455BAwgYbTr04VduxmE84VFgSCwERCoHEpnXKbY0s1ESCNXd1www0XX3zxd7/7Xfvq3XrrrbfddptMkmyCCQI21IOZb6HabM+rM3Y2nn/++Z2tSUYmdbSs6kT6g9KXIDBmEWiPZDTktWEW3PtIlalDX/CTs/vuu+MVzpZkdWRUzMKoMS0Wtpx++ObZZ5/96le/2pcN3/CGN3zuc59zqqytHbPY0yY5Zv/vKBYEgsCwESgjWDTLsxaD4D3t00477dRTT7W+lRFwSuXMhQQBxrTaapxMDQzFOuus41nWgyzKxWiop60BHbZuKRgEgsAYRKBIAoNQZsEhglXLkGjr3reDwWc/+1kPYyeeeCKb0MmuOtMD69qoMS09LLAszFpvvfVsOyY+44wzQFMOLQ+vJgjQ0loUPyroDOxvSENBYHIiwFYK7u6iTezA0UcfffjhhzMLxcDsXeybp894xjOWX375ZZdd1q45DALTYTLxpptuuuaaa0wW/OpXv7r++uvL5qJZO+20k32PFSzrMTmBTa+DwIRHoEwH68FWSLMAEp7EOLc8rZkc80G/qVOnXnDBBcxCQ2NUuETfmdZ0OzrjSbR4FSD0U7p66/A1r3nNCSecYP3aWWedxaSOCgrtP0giCASBfiDACBQTEteHYBlE7Mr9Xqc8Wdl+cP/99//lL38p03vaDKUvyFqy6TsbcsqA0K1siEQV9CDr06hXXHEFH5iFnhiY/OWWW+5DH/rQ9ttvr6BW6mG32m0Pvv3oZuoMAkFgFBEo41BuGpufWx3PIOywww5f+cpXaOVs2ZxmTAanqrb7GtjTql/nK8HSVcIT51FHHcXy6rw9HfqqRioPAkFgdBFg3Zo1cO+XMpXDleWJqz4N62Ox73vf+6699lpvyZBBm6qgGQHpOqz8VlvZFoc+lvqOd7xDDQiW2QQfRLO6q8TUVo2qTVWjC0VaDwJBoE8IuN9Ziar8sMMO4wJHp4488sjKqdUI0jNsyX/E+qRJZ7V992nppC6hUy3hsNKc/y984QutdUU8Lcvg8aMZE+lsQhAIAhMJAeSmnqkk9MtyK3c66uOuv/rqq3feeecf/OAH8l/ykpfYS9lcIZ5URoN8+aWaZWhWgkmtJ9QCqjmueMVwtXPPPVf++uuv74teK6ywghYdtrJVJHEQCAITDIHmr6rdTbGLCy+8kF/829/+9pJLLslieDCzgrPZk8F0fxBMqxnExrHYUHB4ij3llFNME3i3aJlllmF2s4J1MP96WgkCg0egPXGhO4ydNewSPPy2d/G45bVBn4V45zvfyQ5wbqFNxcyaQSTMaCBMjS051AticiqTcJP/1Kc+9clPfvLee++1usu7SLVntLOoGxo3+O6nxSAQBAaAADvDGjAOnuLEHDobbrghr/nLXvay448/3r3PCJQtahZpAFr1/Ws8ZRx1aboJnLHvs14xl94I8KEiZ63M2HjjjZlLmTiZxAC6nSaCQBAYJAKYk6fJMoLaZQTd7FdddRXzh2YtscQS1g/4Omy9buxU+bRYDMJVimUQ2NBmTGZYlOkCJdbOlhlZd911V111VW8vqt/CWO5zs4qKqzl2ZpB/fdoKAgNDoPnOWQM+LXbGXY9afOtb3/LSjOWbbEIzIBLEBqNb331a1Zmyj2I2kcFl+zbZZBM9x7EsYpXDELOABAbW88Hgm1aCQBAoBDxWudOxnKJc3i604P3nP/+5lwSPO+44b8NUfjN/ZS5mNgjyVVjsqhPb4k/kJVTCyJK0T7R18UzNKqusYkvk8p0Xjessm3QQCAITBgEuc8bEbc5KSEvY6MEcolUE3kM0k6inrAQGNrAu953QMXxtpYVe6T+maeUEn579nbn3y2KyjDObzoGhkIaCQBDoKwJ1gzMFrFuZv7e97W0+mmEO0WtBaFYxKtyozJ9DtoKkgjKFSlBSplCZnTqTr0wJNIudUeRZz3rWMcccs/DCC1ssb3tkk4lOVVudZZMOAkFgAiDgltcLyw/c5h7tpC1JYlI+/vGP20DKE5c5NFZCfp0dWJf7zrT0hOGrjpUNtQXOoYceyollTQYLWx32gkARsoH1PA0FgSAwMATc5kWeqsUDDjjg61//OmvoWcuOo0WqWEAyJVkWs0iVuEpJeBItQzlEc6WcrXokFG+LXp/3vOd9+MMfVvM3v/lNlqfODimewyAQBCYAAm7zMh3oBGvAVrjfxc997nPtZcpKHHHEET/96U/J1D6dA+ty32cP9U2HrXKtly0dWgBrITxn/kUXXbTgggsCAjo6XKAMrOdpKAgEgYEhwPDx4WuOBbDR6HOe8xxe/de//vWoj0xGoDRpiV4pVlaF/Xn729/ulW+LNpgdazXkF6vrNMc9b71XvUg9QSAIDBsBN7uy9jJ9/vOfb7nCdtttZ3spfq8iJxXXZKI0SZah56ag7z4thozqjT9aCG9DB93Ye++9ufSdkkYwYSEwx3ISgkAQmGAIoFlucJ1ys3/sYx8ztWfJ1Hvf+163v1CdbYke9p0Brdre9a532WX+gQce2HfffbVez77iGYZnumIJQSAITFQE2Bazh3zbEhjImWeeyRAVOam4DILuO3Sq5zj0nWnRuPgTtugp1iypnBe84AVbbrlldUbPGTuxrtZTb887mQqDQBAYXQQYAfaLEeC6N4sn7SOnU6ZMaVqxAC3dw4QVC8iWJ72pU6e+5S1vsWjBtyhsuKUJOlSjrenigj1sPVUFgSAwRhBgCqyL9yl6RsDjFjZCMcaBaRKjH0JZgPJs9VbtvjOteqlQrJ+WvvpImTWwNs6xikL38Ed9K1IZh1Zv/9rUFgTGDgIeohgyd7opvHvuuWe11VbzaULqYTkV+qSqysvIMC9eQrSrltZ9V5ExdaoarUQ97/VJjVQbBILAKCJg+xi3uZfwrNaydZ9t/Or7PGgJ01QmotRjGawf7bmqfWdaulG+uN///vcHHXQQc2audKONNpKpk/rTCBYgilH2vJOpMAgEgdFFoG5zOzvYup2HyabwCyywQD+eHYd0sxiVhzqGyKrQHXfckYDpAzsZlnltNCvGZwh0OQwCEwaB9iqiffXQD/065JBDfBKRfahHLDEbhZOUQeh5x/vOtOhdJBGF9C0zxu6jH/1o89tXQieF/nWy56ilwiAQBLpCAK1hCuwfeMstt/Bq+3q0W76rGoYnrF32hzsN2aLApptualH8XXfdZUdTFXbq0CcLOzy1UyoIBIEeIoBdsABlBHyqixGwB4Jt/NiHyi+PuxbZBBajh01XVX1nWt768TTpO68+8ajJbbbZZvXVV2fUyq6JndUxlEsPhZ73MBUGgSAw6ggwZG7z733vexK2XVh66aXd+8zcABQrkldtWa3lfW+29eyzz27WphL0aTkD0CpNBIEgMDAE+Ku40vEtiTXWWOMVr3gFymFfzzvvvBMDoYZ7n2kq108/7FLfmZbuWaT1jW98w6ZhT3ziE3fbbbfiWDpWQSeLTjocGO5pKAgEgUEiwIThNz7yim9tscUW0lrvx7PjkE5pt3KYHYZIvNVWWzE19o6nQ9mcMq9hWkOgy2EQmDAI4Fj64k5HNlCrPfbYw/Qat9bJJ59ck4ZlkRgBAv3odS8rLaPW+JNDweH9999/8MEHS/jGma1KdYOjS5dar6pvYjn96GTqDAJBYHQRYApso2Xq0KPX05/+dE+NaFY/nh2HdLPZFvllbe3kx9RaMWZnHQqwRWLWlj59MrJDVMphEAgCg0RgBteYvoqpbnC2yMRa7X7g5RivyJQy7cGPNei5ej1jWrTXDXRKr6QpWt0Tn3DCCchjObTke7L04mHPe5IKg0AQGLMIMA433HCDN6sXWmihRRddlFmQ00xbX9WuZz+xFgUKCDTx9VXt1tyBfHyrDFdflUnlQSAIDB4B5KkeqMRMgTvdLjNeyvFBMG4thqgsEjFn+6Fez5hWKVemk9IOS2OE8dhjj5VvKwuvWMuvDvejM6kzCASBsYkAmzBt2jQGjtO+vvBKzzIU/Va4DFEzoIsssshTnvIUFgnTkoljiRklajSZfquU+oNAEBgkAvVAVS0yO25/02vej5HjXT3PXSyA/Io7hXulZM+YFoPVdCoDqjMSvn3x4x//2Pasu+++u0OmlmSncCuVRBAIAhMVASSmvPSsmP1sGIdiOQPoL7NTQVva1boZTCbI1znks0jiOhW7NIC/I00EgVFBwJ2OSDE7AitkYdaee+5pRcHll19+/vnnN1NAjJXouYb/pUcjr1oHqidVlTSNfWDIty985qxWaLFlJTby5lJDEAgC4wiBWhHFtJVRG7DmzI4WmVFGVqADu1Q6yKxEUa4BK5bmgkAQ6DcC7nF3N/ohLiLFEK299tqYicxjjjlGJhMhLaAuPdenZ0xLT6ozVKRxKX3VVVddfPHFcnbZZReb6NTyfj2pRM87kwqDQBAYmwi469kEJqKWpbNlcvqx8nSW3Z9hkKYzLY1WXIa10s5KdD4lOkwIAkFgwiDgxm/PUe70YiBskak2RolPy8vI8i0i1+UyCL3te8+YFrVaTyToqjOo4n333bfccsttsskmZWGrD5XubU9SWxAIAmMWATe+aTsxz1Z94HkwqmqxzFFZJzF6V588e9KTnlTmqE4NRp+0EgSCwOARcKcjJJ6vxBhVkSr0a/PNN19hhRXuvffek046iVb9+A5PdbZnTIvSAnqo3rJczNkpp5wix5c3vOxTi/+d0ueBPcsO/h9Ni0EgCMyMgLueEXD7e/R64IEHCMgZ2BNXWSctClqnAwVKH5bXWfkSoVwz/3HJCQITAAE3eFkbMU7iTq/DhRde+NWvfrX017/+dfur6yk70I/+9oxpUQ5hZLPKWunYBRdc4ONiNnfYeuutnbU2ojpAoKX70aXUGQSCwFhDwF2/1FJLiW+//fbbbruNrZCuB7O+qlpNsJ4skhYZqN/85jeYFtu6zDLLlMmiAIEywX1VJpUHgSAwKgi48bXLlSWudMVu/O22286Xp231VyudWAmBuRB6qGovmVapXvpJf/WrX2XmfE/alzdkFpEsw8fA9bAPqSoIBIExjgDjteqqq5qww3Js98Dk1QL5fqutXU2U8SnTZM9SVM8TIOZXlpdApwnut0qpPwgEgTGCAPuAn2AppuBOPfXU4idlKHqrYS+ZFs2oKFCXMfVlMXxr2223nWeeeYZQq2bgetuZ1BYEgsDYRIAFWGyxxbiR2Icf/OAHlOTYlu63tsW0tFJky6GXutmfqVOnTpkyRb6c8mwNsVFOJQSBIDCxEUBR7PniM4jswDnnnHPdddcxDsW3etvxXjKtspvl2fKhQ+shllhiiY022qhMmPwydgMwr73FKLUFgSAwQgTYLxZgvfXWc/ufd955FsUzbcIIq52b4iYILHTVuoQVop4AtbvuuuvWlyqky2T1w7zOjXqRCQJBYLQQcPvjJ3xaHr24288444w+8ZNeMi1glZbM2WmnneZw4403th80E1a2rAQc9qkzo/Vvpd0gEAQeFgFG7SUveQnSYytjn+fCewZgBzRKsWaXfvazn1199dUyvXPU8ktGPAB9HhalCASBIDBIBJCTpz3taRtssIHE6aefboPlfsy59YxpddIpHzjz9VZg+aQ0wljr3yWKb/XJOzfI/yZtBYEg0BUC5TGyT6A9X6zQ8gUMZgHZ6qqS4Qlb6q4hO+VYxmDxqAUZK6+8sk0Ly9de7ErMLhXlGl4rKRUEgsB4RMBdj5lstdVWDIIdQL3G149e9IxplXJlqrjgOOK44573vOeVOXO206oW5epHf1JnEAgCYxABtzyyZUutl7/85dxaxx9//K9+9asBvINcREpD+JZFGBa9YlTbbLONtfmMVdmrYoGVHoPQRaUgEAT6hwCKwgJY2ICx+EKXPRPKIPS2xZ4xrbKkrBUtrcMQe2r0JVdW1SNso1YMX+Neve1JagsCQWDMIuBBi01gH3baaScsx9Y1hx9+eD8s2hAEGBytiJmgz3/+8zfddJOZgh122IE+zSiVYkMK5jAIBIEJj4B736MXU4CrmEBkKPiJ+mGXesa0/CXltfLgyAVH9c0224ze8q3tb7FeCXl8nPBXcDoYBDoR4FISGARvybzxjW9kAb74xS9+97vfJVN2rayHdBmNzrJzma56LBKthHoEhkisOZ+6/9znPudw1113XXbZZVkh+Wp2imJz2UTEgkAQmEgIMAjMRVmMDTfckFmw8AmHYRYqs1eOoZ4xLWaL+8p/8L3vfc/mhAsuuOCLXvQi6k6kfyV9CQJBYCQIMF5ozW677cZRz9X9zne+k7uesUOP5CNbZeCGYd0UUY/FWCYKy3rKURu7xHpae/GRj3xE6yuuuOIee+wRuzSSPzFlg8CEQYB9YHaYCD3yzUDb7N1xxx22oZEvyGy2ouUMr+89Y1qsGHNJiQsvvJCxW3PNNe1z37QcnnIpFQSCwIRBgIlg0ZAh83f77ruvQy8hfuADH2A3WAyGrLZ+kCjD11XHmRoV1sOeCtGs8lTJl95vv/2+853vEPj0pz/91Kc+VU5XlUc4CASBCYlAGQ0GgdGw4d8666yjmzaLZzeaASnKJZY5bBB6xrQ8R1LCQvhLLrmE9ltssUVNBwxbsxQMAkFggiHAJiBD7Jo3fd72trc5POKIIw477DAWQ3jCE57AnJVHqtuOKyUojq4hamyitPp5zjRh3lD9XGgvfvGLZQ6DyXWrT+SDQBAYRwh42PMQyD4wDrxFd911F+WLXYkrXYnhdapnTItpY+ms0LrzzjslvHXIpI5Es+H1J6WCQBAYgwh4ZGQWPCZiPCwac/axj33MynTpt7/97daqFzcqbxPJ4XWBwbEfKS5VDYm/8IUv7LXXXqrdcccdP/7xjxOQSWB49adUEAgCEwkBhqg9etVc3LzzzuvTqJgMWyHobHNlsV3D7vswLdrM7VGCfTTBKWHB6QorrNAUnVk4OUEgCEwqBFgx3qbiW8gQ6uNFmUMPPdRDJOqDbL33ve/FuqTZtWFYNBUyOExQm4JU2/ve9z4133///S996UsPPPDAVu2wmdyk+svS2SAwGRBgcFgPzm8J60eXXHJJ9sHCBodlKBrfGokvvGdMq3jVFVdcYWPAtdZay4vc/qRScTL8W+ljEAgCc0AAx0KwGC8yZcLwHo+PthL1JQms6P/+7/9sc3XttdfW2bIncx+ziQqiWVrB6myebNvkT33qU2qwkuFLX/qSta61iosCjXLNQeGcCgJBYMIjgGPhTwKjobMLLbSQJea8XN///vfLSjQTNMLHs54xLbqaN/zhD39IITtpMZ0j1GzC/8fpYBCYPAgwZDWpp8s1ecc+8GAhQKeccsqb3vQmPMkXCb3+c8ABB7Ak3SKjuCK4lLL777+/fQjPP/98TdhR4mtf+5pWpFlVcVOj2yYiHwSCwARDgEHwEKhTGBVq5dDCJ/GVV1557733shhO4TbMC4E6HB4CPWNa9PAq9bRp0+j07Gc/uxgijYenVkoFgSAwwRDAq6pHNUVYaXbDR3IOPvhgi9aXWmopO4u+5z3v8VHCo48+2uvWjAnrJhbKILZ0JRhHiXr6/P3vf3/MMcdsuumm7373u/GtRRZZxFr7gw46iC1iiDQkFkqNKj7BEE53gkAQ6AoBdoB9YBzQKcaBJfHFMInrr7/+xhtvLCthYrHqJNNV5Z3CPWNCdLVIizVcZpllvC1Jxc5mkg4CQSAIzIwA48XJxAW+55578mlZt45acY2/7nWv4xrfZZddzjnnHI9wpgXrDRt2hpGpeUBm0aHd+2zrbI+ujTbayAb0viGNS22//faXXnqpTC02UhWjNDP+yQkCkxmBclMxQWVMcKzFF1986aWXdmhnULFTtfW6xEiA6tnmyFRkH6lib0CTnRKM4Eg0S9kgEAQmPALsl2dKFk1PV1ppJRvHY0tWymNdv/71r62vOuqoo+yAxao8/elPtxGXj2YwfA888MA999yDY9nQ+eqrr/ZKNouJYFkeav4RwbLds0OVt8fQ0KwJfy2lg0FgeAhgL1UQaeEL9z6fhZ4WxbMhRcXkj9CA9IxpWQjP20ZdWtbUIeVaB4bX/5QKAkFgYiOACTEUmJbArjEd66+/Pp7kLesTTzzRFoK4FEblO4k26mPsCBOrmUTIVM4CCyyAh+FYW2655SqrrFLUjUwZookNYHoXBILAsBEoisIKsT+MSRkNj3xc6fgMXzv3udlDcXtmG15bPWNaFlUU01p99dVL+xFywOH1J6WCQBAYRwiUlSj/U5k5XEpAmPbZZx+ThhZM/OpXv7IywcfITAj+8Y9/dBaFmn/++U0XLr/88mussYZ45ZVXZg2ZS8aHgCfR4lt52BtHF0NUDQIDRmC6rXlwt2S2oswRkyLzmmuu8YBn8SjrJJ+DXGLY6g2/5JAmb7vttt/97ndUWW211Zxi6WLjhkCUwyAQBIYgUI+SZezKYpSXq0yeiULOKvvz2QDC8yVf1+WXX05YJZ47Tz75ZIniZwxOmUJnlWWIqs4hzeUwCASBINAQYHPa/KBMh+zGM5/5TDbEGzae65ZYYomySK3I8BI9WxHvrUOm0Fp4oUxhxcNTK6WCQBCYDAgwbchWsSIJNoSNq8ACOiRQDnz2rp4pHXpdkYxStd8goOpssznKlsBkwDB9DAJBYNgIsDDKMiCtBovirQ1lTKzWYkaKitXDW5PpNtEzpmXLQW0jgHYOlCga2Axft2pFPggEgcmAABPBVgjFjbCoSui7TD4t9EtaQr7JRGkJq0KddSifBeTNKlPDLCJnZBwSEwsOE4JAEAgCMyNQ9oGRqUc+AmzIfPPN5/VDCS/5iVspJqWlu00Mk2nNsGDT17Fqr3T1cjWdpk6dSsvKZwo7texWs8gHgSAw4RFoJqKZC4nOXrOAghzrrupU2TveLJ6tMj6tLDHcqwkr2OrvrDPpIBAEggAE2AehLMx0QzNj9pC3yIoFaWtDS6bsTPnUh4fbMJlWNV9NUtQzpUlNh3xuTe9SbnhqpVQQCAJBIAgEgSAQBAaPgNk5rMZbz+LpXKzDszU8ZYbPtLSn+aJT9q2/5ZZbHPJpVf7wtEmpIBAEgkAQCAJBIAiMIgJTpkzROv/R3XffPZ1nPfghimGr1DXTQq2KXWmymjdXiPohW7xtZjdnnJ++NsLZkcxrDrtLKRgEgkAQCAJBIAgEgeEh4MU+c4i2RLZ9VRGeWhM1vNqU6pppTWd3D7qySgOHvjJmjaqFFHxuDoetTQoGgSAQBIJAEAgCQWAUEcBk8Jn7778f2So1agnXsFXqmmlVS8WxxJpHrWw7gWlZC+9zGSXQFsUPW7MUDAJBIAgEgSAQBILAgBFYcskla3MZTAvDwWdQnZHM0Q2TaVW3aSBIl4ftyTOCw8ofobdtwMimuSAQBIJAEAgCQSAI+ILqggsuCAfbxIvb9N2wkemaaQ2hdTSwOJ9PC+OjnFesbdlMG2RriOSwVUzBIBAEgkAQCAJBIAgMBgF8ZuGFF7Z9DC9StYjqDNmApitNumZa1Vi5sqolm0xYos+DxeGGXdXnxpyia1eqRDgIBIEgEASCQBAIAqOLAFaDaeEz3vajSe31MJJpuhF997D4Fq533333SVunVTnFsTrZ2OiiltaDQBAIAkEgCASBIDA3CGA15uhI2lRBPLODaW4q6ZQZjtuJEp1VODR7iFdZptXYlcyW7hROOggEgSAQBIJAEAgCYxYBBGahhRbCYeyrwJXFxSUeCaUZDtOCTjVZlEva7l7SVpBJV2aTGbNQRrEgEASCQBAIAkEgCAxBAJNZYIEFZBa3GXJ2GIfDmT0smqWxxrQeeOAB6fnnn18sNIFhKJQiQSAIBIEgEASCQBAYLQSsgJp33nmRGdtXlQ4jZDVd+7S03Tqv7Tr8y1/+ItMHX0ubkK0GURJBIAgEgSAQBILA+EKgvlXvS/ZFcgbNtAosc5ZFp8TSxbTs9OVso1+l3/gCN9oGgSAQBIJAEAgCkxwBniOerWJaIyczXfu0Cn0NV9t4Fab1t7/9TaK9clinKp7k/1a6HwSCQBAIAkEgCIwvBPi0sBrcpid8put1WtqGV9vCqw7tVkob85oFpbMOi3iNL3CjbRAIAkEgCASBIDA5EShKo+9oDC8Sn5YcYYSeo2H6tCbnf5BeB4EgEASCQBAIAkGgKwTCtLqCK8JBIAgEgSAQBIJAEOgCgTCtLsCKaBAIAkEgCASBIBAEukIgTKsruCIcBIJAEAgCQSAIBIEuEAjT6gKsiAaBIBAEgkAQCAJBoCsEwrS6givCQSAIBIEgEASCQBDoAoEwrS7AimgQCAJBIAgEgSAQBLpCIEyrK7giHASCQBAIAkEgCASBLhAI0+oCrIgGgSAQBIJAEAgCQaArBMK0uoIrwkEgCASBIBAEgkAQ6AKBMK0uwIpoEAgCQSAIBIEgEAS6QiBMqyu4IhwEgkAQCAJBIAgEgS4QCNPqAqyIBoEgEASCQBAIAkGgKwTCtLqCK8JBIAgEgSAQBIJAEOgCgTCtLsCKaBAIAkEgCASBIBAEukIgTKsruCIcBIJAEAgCQSAIBIEuEAjT6gKsiAaBIBAEgkAQCAJBoCsEwrS6givCQSAIBIEgEASCQBDoAoEwrS7AimgQCAJBIAgEgSAQBLpCIEyrK7giHASCQBAIAkEgCASBLhAI0+oCrIgGgSAQBIJAEAgCQaArBMK0uoIrwkEgCASBIBAEgkAQ6AKBMK0uwIpoEAgCQSAIBIEgEAS6QiBMqyu4IhwEgkAQCAJBIAgEgS4QCNPqAqyIBoEgEASCQBAIAkGgKwTCtLqCK8JBIAgEgSAQBIJAEOgCgTCtLsCKaBAIAkEgCASBIBAEukIgTKsruCIcBIJAEAgCQSAIBIEuEAjT6gKsiAaBIBAEgkAQCAJBoCsEwrS6givCQSAIBIEgEASCQBDoAoEwrS7AimgQCAJBIAgEgSAQBLpCIEyrK7giHASCQBAIAkEgCASBLhAI0+oCrIgGgSAQBIJAEAgCQaArBMK0uoIrwkEgCASBIBAEgkAQ6AKBMK0uwIpoEAgCQSAIBIEgEAS6QiBMqyu4IhwEgkAQCAJBIAgEgS4QCNPqAqyIBoEgEASCQBAIAkGgKwTCtLqCK8JBIAgEgSAQBIJAEOgCgTCtLsCKaBAIAkEgCASBIBAEukIgTKsruCIcBIJAEAgCQSAIBIEuEAjT6gKsiAaBIBAEgkAQCAJBoCsEwrS6givCQSAIBIEgEASCQBDoAoEwrS7AimgQCAJBIAgEgSAQBLpCIEyrK7giHASCQBAIAkEgCASBLhAI0+oCrIgGgSAQBIJAEAgCQaArBMK0uoIrwkEgCASBIBAEgkAQ6AKBMK0uwIpoEAgCQSAIBIEgEAS6QiBMqyu4IhwEgkAQCAJBIAgEgS4QCNPqAqyIBoEgEASCQBAIAkGgKwTCtLqCK8JBIAgEgSAQBIJAEOgCgTCtLsCKaBAIAkEgCASBIBAEukIgTKsruCIcBIJAEAgCQSAIBIEuEAjT6gKsiAaBIBAEgkAQCAJBoCsEwrS6givCQSAIBIEgEASCQBDoAoEwrS7AimgQCAJBIAgEgSAQBLpCIEyrK7giHASCQBAIAkEgCASBLhAI0+oCrIgGgSAQBIJAEAgCQaArBMK0uoIrwkEgCASBIBAEgkAQ6AKBMK0uwIpoEAgCQSAIBIEgEAS6QiBMqyu4IhwEgkAQCAJBIAgEgS4QCNPqAqyIBoEgEASCQBAIAkGgKwTCtLqCK8JBIAgEgSAQBIJAEOgCgTCtLsCKaBAIAkEgCASBIBAEukIgTKsruCIcBILAIBD497//3Zr529/+Jv2vf/2rch7xiEdI/OMf/xBL//3vfxe3swpKiytUkcRBIAgEgVFEIExrFMFP00EgCMwagSJPOJNQEo985CNlilEo8bzzzouBST/mMY+RaPIlIxZa2Vm3kdwgEASCwEAQCNMaCMxpJAgEgW4QKJcVRiU87nGPw6jkYE7//Oc/H/vYx0pwZeFY6JRa5YhLWKLExI961KO6aTOyQSAIBIG+IPDovtSaSoNAEAgCI0Dg0Y+ebpqwJVwKzUKw8KpiTjiWU8WxeLNkEiAvFuSjXJUYQfspGgSCQBDoGQLxafUMylQUBIJArxDAsVSFMImRJzRLAq/CqIpjcXFJoFl4VTGw4ljElK0gnRAEgkAQGHUEwrRG/S+IAkEgCAxFAH/605/+hELhT3/5y1/4tP7617/iWwhW0S+Ui3OLAFJFpuUX3yoGNrTSHAeBIBAERgOBzB6OBuppMwgEgRkIFG2aGQzMyZr3e+655+qrr77uuut++tOf3nDDDb/4xS9I1syg/Je//OVLLrnkmmuuueKKKz7rWc/CsRAsnIyABEnpmoWcuf7kBIEgEAQGhkCY1sCgTkNBIAjMLQI//vGPjz/++Isuuujaa6/985//jEUpWRwLi8LD7rvvvtNPP53ryykr4pdddtnNNtts2223XX311R2SFIpvzW2TkQsCQSAI9AeBMK3+4Jpag0AQeCgCpvkQI3lcTdK19KrcTrWwHTEyRXjBBRcceuihF154IYJFGG1aaqmlnvnMZ3JcLbbYYgsvvDAx84Z333337373u2uuuYZz65ZbbrlqRjjooIM233zz173udVtuuaWyCFlRsWr3oerkKAgEgSAwIATCtAYEdJoJAkEAAjgWqiRIoFm19Kq2aeDH2meffU477bQCyoTg85///Be+8IXrrLPOk5/85CJqFRNAtnitFLzzzjuvvPLKb3/722effbZJRo6uc845Z+utt37nO9+51lprNcxxOLtFOMTqNFpOsnY2iSAQBIJA/xDIivj+YZuag0AQ+A8CxZBQK+4lpKdyMZ5a1c759JnPfMb03ze+8Q0CG2ywwamnnnr++ecfcMABfFRoFnn5hNUgOFRWkFhooYU23XTTj3/84xdffPFxxx2HnOFSJ5100otf/OL99tvPanoyirRNuZCz0CyYJASBIDAwBMK0BgZ1GgoCkxcB5Ka8UChXkZ7iQNjSbbfdtscee7znPe+5/fbbTRR+8YtfPOuss7baaisES5FiRcgTtjSDXE13R9WhBLcWmaJxVtBvv/325557rhqWWWaZu+66613veteb3vSme++9t+FetZFvOUkEgSAQBPqNQJhWvxFO/UEgCEyfNMST+KWEBx54AFVCjOBy66237rjjjkceeSQB7xJeccUVO++883zzzVcsSpHiVRxRJhynu7NmrPGqQ5WogQy+hbd5zVAlaNyuu+7Kv4V1yf/Sl770yle+0kIukqpSCf9ZmFauyCAQBAaJQJjWINFOW0FgkiJQC7NwHUQHx8KKJO64446ddtrpvPPOQ48+8pGPHHvssRa8m1vEkMBUfIjLSlmHOJZYWiUyHSJtJSlHDSUjR82LL774EUccoU6czPqtPffc03IuAgpqWpBOCAJBIAgMBoEwrcHgNcTabQAAQABJREFUnFaCwKRGAPup/uNPiJGYR+oNb3iDyT7Ey3qsD3/4wwTwp3J9SeNDaBNhjMqhBJqFh4nJlIBTalaboKwixJQSnFLn5z73OcLI1u67787vpWwJK54QBIJAEBgMAmFag8E5rQSBSY0AioP6YDmcTLiR9N57733KKafgRgceeCCfE3RqTlCiaJMEwlT+J74oRRzyXUlLqBC1KgEyVb9DZWs+seJddtmFcwv98kqjpWDF28ST+s9I54NAEBgsAmFag8U7rQWBSYlAkZvybGFFZ5xxxv777y/zLW95y+tf/3qQoE1IkgRGJSbT0sTKiVWVSFeCTCVIlrCyVbziOrvDDjtYGo+EHXzwwSeffDJJbaFrMwpNjypNoOUkEQSCQBDoIQJhWj0EM1UFgSAwWwQQmvJIednwfe97Hzl7ZX3wgx9Ecdq8njQaVDxpthV1eQLfeve7320nCJVrzn6n6i9XWbGrznSXdUc8CASBIPDwCIRpPTxGkQgCQWCECPBmlV+KI4pv6frrr3/CE55gn1JbOThl3lD9fFpYUbGfETbXiqN3WnziE59owy0t3njjjXxpxeQ0VM2JNS2zt003HZIIAkFgkiMQpjXJL4B0PwgMAoHyG1kF/+tf//rwww9Ha6zNeu5zn1sr3BGd8nhRxSlurV7phGbV5KAd59/61rdidXY39Q0f7Kpawa6E4l4ye9Vu6gkCQSAINATCtBoUSQSBINBHBMqtdcwxx/zhD3946lOf+uY3v1mO+UQsB8UprtPzqUMsqq2Xt6OEHU3NXSJbrZ+aJuOw4pafRBAIAkGgVwiEafUKydQTBILAbBHgWMJ47rvvvuOPP56Q3UoXXXRRObX7KM8TtxaaVQnxbCvq8gT+hEtV5cstt5xdTOWceOKJdpDXuhY7SV6XdUc8CASBIDBXCIRpzRVMEQoCQWAkCKA1KM6ll156ww03WC+1zTbboFO1Qkt+TeQVwarJvpG01VkWkXLIYVaV24beBvRWiV1yySXyNV3CtU6rs2DSQSAIBIFeIRCm1SskU08QCAJzQgDpueCCC7CrVVdddZVVVsF+0C8URz4aZL18cSyr44t4zamuuT6nZrVhVILE6quv/sxnPlPpb3/72+KasqSDs9Liua44gkEgCASBuUUgTGtukYpcEAgCw0YAmzFRiGnhVZtsskm5uIrftDrbplnlf2r5I0loQm0apYCEw6233lr6wgsvxPmwK2n1V4thWiOBOmWDQBCYHQJhWrNDJvlBIAj0DAGc5uYZAenxGqAY0elZ7bOvqMhT8S1S1LAofp555vFl62nTpsmhicyqQHr2NeVMEAgCQWCYCIRpDRO4FAsCQWDuEUBirr76auvQF1xwwZVWWslEXnmw5r6GkUiW46pY19Of/vT555/fB6d/+ctfdjqxpMO0RgJyygaBIDA7BMK0ZodM8oNAEOgZAriOnbRUZ6tSZKuHK7HmrGIneaKDsPjii2NaEr/97W/bWYedrGvOdeZsEAgCQaArBMK0uoIrwkEgCAwHATzmnnvuEc8777yITi17b0RnODXOXZlqos0PlgJPetKTLMyyrZc6GsEagDJzp3KkgkAQmGgIPHqidSj9CQJBYOwhgMfYTIteaFZxGjGWM0h+U3xLjO1xYt1///3iUqBODVifsfcvRaMgEAT6gkB8Wn2BNZUGgSDQiQAqUzymdnZAcSqnU6Yf6XJZtclKvEqouUKnBIf9aDd1BoEgEAQaAmFaDYokgkAQ6CMCNizFbHi26nvSWsJ4+theR9X1nuMMZjU98rFFPM+S/ObKKk2c6iiUZBAIAkGgNwiEafUGx9QSBCYkArxBjX9IlDdIT4eQJKcE+RU3KIi1Gp74xCdyaP35z3++9957URz7lNYuVk24H4nSpzXEg2V51gMPPEAx314UC2SKcpXrSyxziDJkhCGZOQwCQSAIzA0CYVpzg1JkgsAkRQBHwTD4hMRoCkZS023i6dRjRgCNQwFBEVemdG0NWjXIXGGFFeTccccdt99+uyJcSoT7DWtRKG2VbuI/zgiPf/zjl1pqqWJgZKhHN2JimZVDN/mKiEtV6VJYjtBv5VN/EAgCEwOBMK2J8T+mF0GgLwgUt0A+GtXARQSHFbTaaAeC4hSfkFPSguKCzJ/85CdXXHGFeu6+++5bbrmFjFCfl+6L3g9W2r6iSAeaUPX3v/+9tfDyzz333LPPPpuLiyZO1bb1ypWkxHTVZ1Ar3SFfnZJDvvpeZx9sKr9BIAgEgVkjkHcPZ41LcoNAECgEECaJYhUz6NNDHs9wDvSlnW2czFoo2zr84he/OOecc3zO2TahOJalWljOZZdd9vznP1+dVXNfccaf1I8nNRfaD3/4wz/96U/yDz/88COOOMJGpj7C+MIXvnD99ddfcsklvZbY9NEp3XH4l7/8pdaWFaeszOlU8Z//bGvOWqkkgkAQCAJDEAjTGgJIDoNAEPgvAkWGMAxZSJVYGsOQKBLDA9TS8nGaa6655vvf//7FF1+MUf3mN79xFjWpetAs6e985zsyUTE1FGtx2KdAZ1qVC4rmGvXtRe1iUWLK44JXXXXVSSedZBnZs5/97LXWWmujjTZac801F1hgAbopQsZUI/kCoRTWTT0KzerTv5Zqg8AEQyBMa4L9oelOEOglAsUwMJWiSsVaimNpprw+zvJX8RX94Ac/OPPMM311hzeLvLNOPe5xj0NWyqskVgOx6667brnllnO2l7rOqi46CBxa2nX+d7/7nUlM+iBM4qJcpSSdUUA87FOf+tSKK6644YYbrjMj+E4iSTKFQJWqCs1+hmzNCvXkBYEg8BAEwrQeAkcOgkAQgED5bwqKTo5VHh2sRaY5tZtuuonjyoInTizrn8rTg9lUEcVRGcLFTpxddNFFrYjHaU4//fR3vOMdld9XwJsmekSZWpjFX7XwwgtjexSoVfB0w5l4vCgjce211/7qV7868sgjObpWW201c50bb7wxakh/lagK8QKF0AlUZ0cGQCI7m0s6CASBsYxAmNZY/neiWxAYZQQwiSIrEogFbbiFrr/+equvLr/88iuvvLImBNGpEkCzcBEMhqQEBsOntfzyy5uV22KLLczK7bffflZHfeELX9h55519A7Hf3aNY8SGxr0p//vOfp9V22233wQ9+UC8uvPDCb37zmzfeeKP3EUliXRTmqSKDKknLNw367W9/+3//93/14nnPex7Kte666/p4IuECpN9dSP1BIAiMdwTCtMb7Pxj9g8DDIND8Lp2OFpkVFJZfPKNV1PxSyIRTOIfvQ1900UU4x49+9CMcpUgJeQKEVVWVo2UO5fu24Oqrr24O7gUveMGqq67KjUTAqT322MOiKP4kHqO99tqrNdRqKK2aL6qpNOeEUgTEVZDCmkOYSn8x8nf88cdblYXe7bLLLqjS0572NOp94AMfoAzKeP755yNVt912m7JNK5UI1aMbbrhBx7/yla/oi3X0+rXpppvyeFnmX7qV5sUv4cNDJqYP6iaWTwCY0kJpK1Z/FW+NVnMlU6cSB4EgMK4RmP7e0Eg6ULZj6tSpN998M0P2yle+smqT3yzISOpP2SAQBIaBgBEdvVCwc9iWnk4cHnxb0FguTabuVoTAIXJQbEDaFqNWX333u98977zzfvazn5n1I1wMQFVVP+HOzKWXXvq5z33uJptsst566y277LLoBYqjiIDBqFxB3qxjjz12ypQp3/rWt8Slg3qoQb5prtpuQ5kjNXCkKYvrmArUotanTZuGGzFTbNRxxx3nbGuoBBzq4Pe+9z1s0motpIq7jlhxNTUQoL8myAtOqXyJJZbAt0wvolxWd+mL/lavxWQKW7Huy6l6qlpx1VOZZLSlhiribNNQOiEIBIFBIoDPvOpVr1psscX4vOvGL0s1PB3CtIaHW0oFgfGEgDGbmTCiU9pALi6rIV2DfTtr9RXnDcKBbeBY5grJCATE1WcJVVVBNoiXyLJx02rCs571LBslyKyGqt3iHHKwEPXwIdlSwVzea1/7WjOJdbb0Uaeai5NVW3MfF8UpVZVqy9Ul6LPjjjsiWPxPlpShRI3ikBcKGZnUEFA0S7UunRGs3weICluXEayqn6SyYgxJr5/5zGe+6EUv4id7xjOeseCCC5IpAYlKqx8g+iu/teVUJ6OSr85isdKl2IwKEgWBIDA4BHrLtDJ7OLh/Li0FgYEhUAxAcxKCkVtsRBfLNH7XYbEEsd1ErQG3bkmw9xV3TglgFbVOvNwtVQN5leArVl9tsMEG3FdcU9xIxUUajXAoIEDFgXyHx3YJziq49957v/Wtb2XL1lhjDQlkCP9QeVE0pboFirbFTtSPqIlVJTFDhUcedNBB2lL/+9//fq2XPpooutOakyCjHn1ZaaWV7LP1hje8AdeEjOVceKcNLHzJh7bKUrjAVESQ761G7wcobjd8G0ZgXZDxzZ/ao6soFK0qUY3SRCXV6+oyzQv50rxbHCIfBILAGETgv8+pw1OujEJmD4eHXkoFgf4hgGe4PcsBoxVpo7gEWiBhIMcYrL7iu7KzKJYgjQSQr4IEHJKfZ555SFap+eabzzSZfT4RrJVXXtlSJ9WSqZpbE0Mym4AEvlUchZPphBNOwEJOPfVUE3BFtqpRMcmuQmuankW5VFh9N0f5ile8AhPacsstv/rVr6qWQFNYW5UufiZdxYmpqjTBh5AhjNOUIr5lvRrH2G9/+1tF9AVKxMgo61BmlZLPs8XJt/baa5u4xCkt8KpOEXZWndW0hkp/h62snKZJV1BEOAgEgZEj0FufVpjWyP+R1BAExhwCRZI6B3LDdo3iPjvIN2NmzPuDP/7xj1GQoj6KkKlRHwkw0iMElWPzdK/dWY1kV0/OHtUSVpu4KEIlOn0zQxDBP5oCTmnF2vNtttnG3JytEywzV7NMMioUStUhlcz5UKnSSj0S1Snd3HXXXU3/Pec5z0HprLooTAhLTG/pQQJa+ZqozMZ45AtVZ3UBh/NOIuiQVC5AHq/adL7IFhAIK6IGkiqsqji6TCyaNuUI9Bqj/CGYyGkFpasvEglBIAgMHoEwrcFjnhaDwDhDwJiNFlDa8F9+F6/deW0QuxJbKdW4CGIhjRl0cg45Xh603qi2kuKPscKpuAt+wFdEWOWtSCVUIlNZoahG5TgrIByNukk7ZZry5S9/uXiRRRY57LDD/ud//kcTVaRbuLWoTrohOs2bdcopp5j+w4pshXXGGWeIVdvJmVpbpaFTBIpOyZGuWKLYUkNVQlmZXHTTpk3j5RJwL3viVyVOFQjVhFhVlWMrL+5AXi7Ti6YyAUtnyJQHTnFlm2KaTggCQWDwCIRpDR7ztBgExhkCNa4jGT41w++CB2Ba3q1DI9ARAzlOY3TXK+miKWKDPa8P94/pPHNe3DBFETpJmyLF3oqFdHKCYhJVp3iIQNEg+UKjLF5pNLXn7R51fuhDH3r3u99tslLBzmqryMPGZvesr+KiM8WJAH30ox/df//9qWS1vo1SxeVtajzGqdJQzdVBOc7O3BAx6ileHXQoKKIXEpBURJqzUHegLZhnhLazBWA1QUaicsRmTm02gctiXdDGwGg+veoZrLQlZtYnOUEgCPQbgTCtfiOc+sccAm1grrHQIETFGpBK1xrDikYYEetsjdaKODSCFj8oebFD8iXTMgeWoHyNuNULSgr0EcufebzXwconX0WqOy2meQ35CIclRPZl8G0ZezQY8p1SpIpXKxqqia06ZSf0cl9ZgCXBw9SKSPQ10J8fyCZbVlPR3/IvG1yZSaRntQsKypfalYOxVU/lyykYxU3GsrMPf/jDNmsghsd89rOftf2Vs+R1XJF2OVWFI4kL2FaDQ8Ehgmvpm07Z37U+/kgZ7VZ3yJTaJSxtCZcVXbrvL/AO4/zzzy+z5EFUl7R/lv7qkVPFHVZC7yTqsqk0HaoV+U29UUnQh2JirVNGp+rv0wv5Aj2FSrSzQ1QlUB2ZIfufyeWWOUQ4h0Fg5AiEaY0cw9QwvhFoFlaCvTbeMNOtS4y1/LLm0vIJlLkv4SrFf1OZreDgEzShA/WGNC1fMLTU6FJ66kuNRoQ7+6tTOsuXg1fxXSFYxngrh6p44yXVd5kSatCovaBsLmoOC7OZOnWqFwPlO1sFKTCzYkP07Mmh3tm4y1uBNnDXqNm017zmNbvvvrul907pdf19xTAc1l5ZdqOoDz+DgljpbGL08MMP//KXv1z/u73gDzzwwIUWWoiwv7sk+9ovlcNEXPpIe6nT32FPVCvGfv7znyO4uuNsaVgUyn9EN5n1H1kJZxt6ji47k/lfCuS6BtSsYF3b8gufqqTEKrO1XofizgumSQ4mUWi0tvSx/srWi3aqEuSFSpfaDvVIrO+FnkoKMflDiucwCPQEgTCtnsCYSsYHAsYSgXltxpfejKzMiuvQ2RIrokBefslIVFmDnDGpbLdMoQx3pQcct7VE1W7pLy712kgpp8aSNj451Duay8E5+E6M31ZfceT48mDlt75UWZXgGWIjOmcJBsN3YiBHs57ylKeQcUrBGvmGgFY1tAp7ntBcq9Pe8fvuu+9PfvIT+uBbKODLXvYyTinr8cngjqbbnBLaBSDfoclHLNOqLF9gxDjpbNNUs4fmJQm0S6IwJN+/Tqm8VKJha1eOYDIR66qvGNmu7NZbb4V5db/0GdIvRby66M/yLoKdYCWsnJNZ+qtcWiuChHrkVyjiVTl1I8jvX5e1PodQzJIapXBdY/RRhEqUlO+shENnyYurU06VvLngunPlt74MuYPmoENOBYFhIBCmNQzQUmQcI1C21bDEFpcJlmadm82VMAzffffdBjMyzgpstB01TcrwfFSpkmfTeTjKL1Lj0KhAQ0Na0XYuW2+dVdBHmi1pR61s8iThUCWqKhmxfhGrGA5O2Y7B6qvNN9+cm2TKlCnWAylCBhoEMDAjWdUg06mqqsa5udRweGIUKIXFgu1MjznmGNuZejuyKvRmopXs3tczA2gNmf/UQi6l9Nq2FN77++lPf2oJGuJCHqSEd9ttN3uiWvZUK7dUq2uKCHokrutheAo/bCnNkalGq91iDBqtP8Up7136/o/lXPaMsEWq5XTwr3/BWfKEBQn5FNZldNM/iH2us846nJH119RfVmIalfCnt852pgfwV84OGVpRiTIlUPjIcdj+C7ekP/S+++4DUQm4Qz0VCOi1sjKFkoeMBEngzK7R5AeBESIQpjVCAFN8PCHAvHbygLLaNWzYXXPajNe+rMi56aab7rrrLsaaS0P32GJkgsPGvpFe77IFpffa+DnYd0FxZpqxHl1LTQGhDYGlkkGF8rrgkV3MFyUGgsd6q6+wK8FslG0LyDulO84qpSqJ6poanDVKeccNu7La2iCNo1RVirQhWRGHlS8W6lCinZqR3ceonBP+ZWrriEHXP4tEnnbaaSZDjb40EUo3MtXTUgg+itPZUjPer6222uqlL30pf5hxuqotYXFVrhRk1NZg70fH1N+Jah1WTmkiR0JnKYkp2uqCN86ri/7iolaUpLBQF3zVQN6hVXSu54033phjklfSv6wLBAAIjZJXsJorcEbxOqcVtelDQ8pQtZSR4492GZtXNd/NK4l9eqWg3b8IlscktzCG7cPk+utirgckldSf66bAQfvxD6bOIBCmlWtgEiFQY4xhqcaeGpzMwnzjG9/4+te/zkYbWgwwDHobjYwxMh0W7ZBg3Hm2+EV8826LLbYwVslUVcWjgqamdYqqNQg5lKBJjcQVO+SoMwwL/B/ea0MlW2d1SjfJ6EgVVInA4cFxZd8m84MGJ2K1klr9rQn1F9WAW+kgFtRToaoakvngyV7+tp5WpcZOHdQuVfXOcn4dtw2EYK92Xy3kvFSkZHxj0V9p/bhgfs17fP7luk7UoAtFPqpmpapTOj6k0V7258G6is/5awpVh87UP1VqOBwCL3+e69keXWKuSmSC/sQorEj1CyyUF6osFrLhhhti0sLUGSu6nKp/GXrVuoQAmQdVG4VfCpTCdNMRD0X2NsOk0Sx8i54EWk/1V8d1RKJgdIr+tt23J8hmm21Wr8SGZo3CHzmZmgzTmkz/9qTvK5vL4OIKNVSYLbKx+KGHHmpYYovZaAOMJSyrrroqVmGGxXOwYZiBNp3kidlQjaBcffXVvF+svGA8fv2MYJBuw9KowGz41C4dJPRRukZTXcYqzCvxc1jQg17oPs1LQKzXDolJKCKHA6AGXY/+BiRrwJswSYMcMcLqKY9C5YhlkhQMddJypEulKjjjZH8j3deiNihg3OW3oAaeUZhUT3XWKXNn1ryXNriFoZrPg0DJ6BqZuk5qaK/e6bWqWrouj6q8vx2bgaQmCtX6u6lajdahdKEtQSWZgr67zs8//3w70bsMLL8jU146Z0mqRI6egqUuAEu4PEh4bxHx4rutC4BMa64aHXxcVylNCnDPSGaH3b+u8Lomp0yZ4tJ1/3rp1UOC+5c3mjz/Fg+fW9g/biUi6lldtnbN89Lb3vY2N3vVMPhOpcXJgEBvmdZ0t/NIgqvfveQOAT3NWlXyWzqJIDASBFxLgkfYL3zhC9wYrjSDpSU7tgbARUw6VOWuwyEJI5YcZb1mzwe2ww471MCsBl6Qo48+2qmRKNbDsjQxCBlW7SnFPWOmDzNobKAlkAljZ43cMo1SnvK9bWcoqi8VqkegWPVdAucQQ09cp4xP0uI61RIyK5SYdEs8eKb3v5oofUqZ+hOlKxNJKh3kSPDV+e+q+9aJ04aAmKOr5Kt463upWzWUZIn1vhsz1dipQylQItXNTsVa0Xa5lpJKEcazLaJHLHARs6L+9CJPRRxB0RKVj5CZW9xll118d+jGG2/U684WW1uDTKC/mqMGjkU3/yCdESZvmNrnzGXf+lta+RPlVPeroHv87LPPdr9jkNVNV/4hhxwy6l0bJIxpa8AI+CC9+8uTebsxR6JAmNZI0EvZniHAtgqqE9eV3Xl9c01Zf+O6F6x0tltSjSLkZyZYs9SpjDL/lu8Z1ztcqrJumqFv8tViO5xlYoaa04eBOitRajc15AjOVqIoTitVwuKSMQhZEP3FL37xVa96lUGISo1USdQgamSqUBzLgiTunPe+971YJr/dLJWcYJkNT+wKRIUG1lUgt3iC9bq641KpSxeb5N2xEQZuzR3r2ijOUWjwb7U1THXZOEuMi+vjH/84z2gtd6trUs1VZ4vrsqwWyThsOQ6J1V/QBCohX6i0uNJ1I1RzbqiqxzJKn7l0SQs41pvf/GYvMbRboypvLbYKOxNkBC4u9z4LoNeqsvjSWxFNB821dGfZpIPAMBAI0xoGaCkyDhBgSRu7asSF3uZQbOrIj8W8br/99tgSe1ouCmcbPZqzpW4VShh4rBPnHzJsb7TRRkibepqAeh7WXpOhgEBnZTsDfTqrcqoNAPJLSf4nK1Q++clPvvjFL65ho3PUNFLWYFnDiRGFnh6tLPc++OCDrZs26KpW03PucqdW4zpdIIsnIdPyx/mXC4H6u11FZtbsiOGZgaPLxHGRLbHrxIXk4pEQ2lVk2Tgn7p577mnmfdq0aXUxlKup0uqva14T6nco0a7b0qFaL0lxhSpeZRtzqsN2Y3qWsGSQPjSUsJUrgbpHVFLC6ql2q8KZ42q9mmABtt1226oQAtbwWUdfRarCVufM9SQnCMwlAmFacwlUxMYTAmWXy9CLy1Yyvt4+W2qppdhoT+2Wd5SBbh0jViZYTku0s50J9TdTboxhmj0c15IgC0TsxlSNtnY7y3amiQmVw6xLizsFKj1DanovhBLQuidyczo77bSTnQg03QZCYwY6hUoaJsU1hEibQ/TBwb322uuss876wx/+QG1VVW2qHQLFzDpMmJzqsnhyMq3qvn+zM1EXnsvY9mN2Z91yyy1rCYeLRyi+5QITHDYq5qqzawa686lPfco1X56ndiG5qOqaaQmH0u2wKVDKdOa3Stxo7V4joBXOWlc1RmiHs/YmqRp0gWTVKXZYrc8yJlDNEXMjKHjAAQdwj+mdhQTePq7ic65kljUnMwjMEoEwrVnCkswJhQDDzbbazoAvxzixzDLLMKZ6WAaXPZ1uzh+cm5AvR3B2DiiUTD0W18BgSbWBR/18ZqYzqixP1ZwrqbNqayONtFKdh6WJ2Mp9q6/M4HCeWSU2fRic4WwwBGJXmjb4VUJ+jYh4mDW/5onaDIsWW9e01RRomXNQeAKcamBOTqbV+Q/69xsalV+H8rlmTSjbS8zSeIvK2+XkouK+LZcwBibUKdQHB/JyyIknnmghY73UqU5VCRLur3YvaKVxqaaPC74k5dTFr0g7S/766693MWvOlc8JV6d8D4CYs62sRFXVclolLVGaUKPz/vVeqj1cdNDqeK4ydTY0WsEkgsDwEOgt05pu6xOCwKgj4GagA6PMCpdfx+tX5gq9o+RdKrsrMdksKVLCHDfHT40ZcpTFXR62F4aZqqGEeQKMAXYSNyVnfe7XvvY1K+5VrsLZ1aYGo4KGih61FpXSBYaegITXpi6aETzT60hVWDc8gVJYDYIhRA731fLLL+/dOptCeRXLRqOE9a6aUy1JbSkoX0K+UOmmQxITDwF/fV3kFTt0DfjrkSdpF4BYr10eU6ZMQTi8TsFv5E09W0X46iKPF67PCVTXc9WmuCKolXk9r+VaJuh5w55V1v+tv/76tRm9i1wTxKqIhqpUXfzSgjqdLX0cOiXHTaqgNC+sO8s6KsvFTj75ZDWrRH5tANb+KTXIL/WUVU87NSShISDoqSLEGArOOR8G8CEB/dWW/toAosSGlM1hEBhlBFzlIwkuerdH3j0cCYYpCwFXUeHAFkt48GVG3RumBuwmJacsMjMq3R61peVUkUqLZxeqhmpIukopfsYZZ1hmztYz1trtrHDmqpRqqkow96oSSFo9c9lll33mM5/ZdNNNrb6qwcPYILS5QmmDhLhue8Rum2222W+//Sx29rBe9XQ2KqfpOXN+06Tz1MRLFyziSevTck0KQ/5ZF8bMF4xLokk66609LMdbe/hTrehCg+ryc326FMV1WBTHod1QrQBzUyBJ1WJrpV1vmm6tSBBoh4o46w710UkXufcleY5ldt6z6lGEmNAqH9K7mQ/dazLLp6Vg1aldW79iihiYj0Xaf05+03PmSpITBOYSgd76tPLu4VzCHrG+I1A2tJrZe++9mU6jgoVNZY5r0SuZMqNiRrZCFSnbPQctyzorKJTVlqhqvTFuVDDMeL5Xg3y1zS5UE1UbGS4r96T36g1RPFvqMXRVKDpVOSovJ4FnelteveUtb+Go8w5/aSKuRlWuTv0St3QlKi7lCTicJKFBMQmZlr5X99t/7dDV0i6AOmxXI7G6QkpevkAGBeHf2n///e38yclU16dbTML16cosP7HDolwyPeR4ceTTn/60V1J8L0i16qzLVUK1TYdqtDJLW1uoqME1r8U6K79OOVSwtJKu4LBd/w/mPeS32iJWuZ014HDHHnustmj+gQ98oPR8SOEcBIHuEQjT6h6zlBjzCJQNLfvLstfz93ve856yzu1tO/1o9rr6VIdleefQy7LUFStSiZJHtuR4C90wY42tmYhqRebMwSmW3cBjXYgVvt6i98EfVr5GrEanapgR17hlJDNu2ajCon4DXtG7GrQ0YXKHPhKlj0QdtpxObUumNOz0E7T8iZcoHMSTkGnVH11x4yINkHaF1J/uOmlcpBVsp5qwPRdsL/f2t7/dOi0ruvAtF2q7Vl3J9cDQKBe/FEmOMWOPsu1mbG1VzVoXXJPTpk3jZFJ8hx12qEw61K1Nsi7apkzll5JziDubIFaHyjZexQ+nI5zH9W7jHKrKqSAwNwiEac0NSpEZZwg00oB2YCTsvlcCzccNoBvFeCw/nzrjeybWCJf1FzetqEHM6qujjjrKy4MrrbSSgUSgZ3EsMUNfjgF8a/rA9f/+n427OLre9a53cV+1jbuMPWozVMwyDKC/464JQBVik5NpDeP/6ry0qngxnkKycqRd4XjJ5z73OQsWLQ2sK9lVLdGuYVe10C5y0+Imxz/xiU94HLJZSVWonqpTQkPuIBe/d1luuOGGYSjfbZG6f82TshiUf8lLXlIT8a2z2FgjfN1WHvlJi0BvmVZWxM8YEhONNgL1GM0mWkJuP2h7OrzjHe+ovab6rRqHk3Z9zGfXXXc1a2mNrS25LUvXLq1YbevlvT9oByzvPxpd5CvCjtcIxIjLMRQZZiTYemMMH4B1Zt43VC3/XI1qJJktAmKSCUGgTwi4GusaK4aklZbobFGmDWAFW215irCI/tJLL0WhbFjlWq0irmoJF7wK3Sa+vHn++ed7ydEeXa5tS6O4dX2/vFZKubavuuoqLzMiau5fi/Q7m+tHum5DSrIV73znO1/3utfpheWSG2+8sS5Qg851n+am6wf+qXMuEQjTmkugItZfBNhBgaX2hM04st21ora/rc54taqMtXjnnXc+4ogjbrzxRqu1zJX4xM1555130UUXmTFhyks9GpKscUimEYg191SNGnJfrbPOOhtssIFlWOw++055pcQ1VtXQ5VAN6ul311L/ZEagXWwFQh3W1diZI+0ydg3btc6rvsI999yDdeFSni5QlvIru8JJEnPdlrwnEPPgVqObEDfn7tVFb86ut956VmiZHPeOlKnDITpUu72N9UgrtBJ7ueRLX/oSsiiu92mqrVJDXMK9VSC1BYG5QSBMa25QikzfEUA+2HGvnZ955pkelz2bliuo34wEZ6pHXuOH53Ijzb777utLgrb/8WVfprme5qv/lKEn+RpsHFqkVWMMjmUfCqvdCTSDXmIOBTVoS0I3y/T3HdM0EAQeisCQC8+hpxpXOClXZp015W3xlj3lnfK5pyuvvJIrF+uyftGyejJ1MbuM273D0eXjjB5L3Lmuf/keWjxsDGnuobr05oga1QVc0N3HLW0TPk5xa8V41KhavaNVsbHetJpagkCXCIRpdQlYxPuDAKPMQF9yySUeiL0btcUWWzCOA7DUDLF2WeFiVDZ68MUbOxIx38y0fAk9No0ogTlRSdrcone4TJ3YgsiIUqNLVUWA9S+QSn/1F7tSW+XXWNUfIFNrEOgCgSIiLmxlmhe2MsXmwa3f8hkoHizuK/utmDq0I4l3ZgkLCrqqhWI81jXKsYLeYik5xW+60GZYonU3UUZp8/V2yPOMZG8tU6LuWfkE3ImDUWZYPUihiY9AmNbE/4/HRQ9ZQ+HCCy9kEO3eyVdUxrHISl+7UEyLUTa08EvZYtukiTHDYelAMU/Mhhwrsi1qeeELX+hra84W8XK2BhsJypfF7xy6imbpAoGBdaqviKXyCYOAi1+oS13CBSxdvXMo4eoVmxx35bv+3/jGN5pPNEOHynB0WfPuUhcUdG0LhPl3zaTLcV9UVf2L3VN1x0loxRu+Hn7s4GX2E9Oqm7RuQN0ZgD7962lqHtcIhGmN679v4ijPCPIk8WnpkgUfTHZRn3730HjAR1UDDFts3gSRQvgoYPwwwFj2i/lZYIuBmV6kT41ALDsLLl2qljVvoxTrr86y/tWFOtRNmbH4/f5bU/8QBFx1RYMqvx3WdVunxMVaSqZlOpSui9ll7C7wgWeLoji6bDGP0/hku7dGvCwi2GfBGilXuFvDHdRZ4RCVenVYdxPFVKg73qM89dRT6WMrFgvIqoNO1a1XnepV06knCMwlAmFacwlUxPqLAENpkZZXtS3PskaEWWciZfablKi/WjEw1FiidQSLRfYGolX5yy67LPrVRib5NXiQLw3hIlH1OGt0EctRpGWSqR4ViK22/mKa2oPA7BGoi7DIkLTruS5st4MLWE679aRVI1NMph6BHLpNvLkiELj++us9n3jfkPeXY7iarSKzV6EHZ6oJOnvIoQbd7MDi2clXvKjke6by69ameXWkB62miiDQJQJ99+52qU/EJykCqImFICympSGmAKDA0A/AUmuoWqFA2eKpU6eiVvJtkO0bJhb5NgPdqQ95Mmx6qdpildSpilsv6pCYRGc9chKCQL8RGHLJOawcl6umpSshXVdso1l1toRLyXLcymmXtLSvdlq8iNP4sJWPD1apJlAF+xS3JyVqCGb5vflIk2uuuYaqdVbv5DjbJx1SbRCYMwJhWnPGJ2cHhAA245O0zKJvLXv7iU2UMxjLqKEKuqpFK2qNFjZQLX3kGHWEwSgzILjTTBDoKQLuIPcLh5bl8N5oUXe7p3raziwqqxuzYoyK9WBD3LDcWtiVBKsiSMyicLKCwEAQyMU3EJjTyFwg4F1xUlgOY81Mz0WJ3oh0UijtWttR04V33nmnwyFne9NkagkCEw4B66LcL27ehRZaSOfcOAO4i9sdikhVc/Z6YEMoYIuKunnrVOeNPOGwT4fGOgJhWmP9H5ok+rGD9nfQ2ZpcKwPqSXQA3dd0BW1ZtlITgh6OubXYaKfkD2DMGEBP00QQ6B8CXtd1s7h/a6qu3Tv9a1HNnTcmc8GJJVPT0vSRsHKLVhKdkn1VKZUHgZkRCNOaGZPkjAIC7CBrqOEyiKPLb2KUR+EKSJPjHIHOe3Z076B6QhuySqzUG+cYR/3xikCY1nj95yaY3owjtz9r6BlUWqLiAXTTqFBBW6wzV5YnY86t2a2FH4BKaSIIjC8E3EH2dxC7f91B7iP3r8N+96Lz8Uxau3XzSlsDQAcONjqUr6vfyqT+IDA7BMK0ZodM8geKAGplnx6xdbW+vKZt6TKj/dajczzQouVZdvaSsNyEDp1nHfZbmdQfBMYpAl4lcde4d2xtOuTG6WuP3KGaqwcz6XvvvddXg7ToLeY6JZ07t69/QSp/WATCtB4WoggMAgE2uj6UZl08stVM5ADaZoUraIu9LqrHoWXkkE8TmYLEAJRJE0FgPCLgTvFkYo0jpmVXPD4kOW7qAfSlbsyKuaLRLLewG3bJJZfk4pJDBwkCJTMAldJEEBiCwCDuhCFN5jAIDEGgLKBP3JiAYKZvueUWAgNz+GuIAmWRGWjfprXVtVeoVllllVKs+JbY2SGa5zAIBAEIuDvs8YtsYVq2DMVsBnO/uHmLz4ndrTbQuvHGGz2t1dcdLIo3e+i2LeZXt3P+ryAweATCtAaPeVqcBQKs4dSpU5dZZhkW08c9mOlZCPUhiwlmi5lgY4PqxVqXg2ZZ50GNsuB1NkyrD/9AqpwICLiDfKt0ypQp3FqXX365Q48u7p1+962a8F0gt2o9Ml155ZW1T70NkClDEzLuX4l+K5P6g8DsEOj7nTC7hpMfBDoRYA19h2f99ddnoC+66CIx4+iRtFOmH2mtMNBqZqnZYot5zzrrLK1vsMEGtZbWqWajB8b/+tHT1BkE+oeAW8Nd45uhWI7vT9uxpZxJ/WuxanZvarcYlRbdy9/85jcZk3XXXdcWpmScFdctXLSs3yql/iAwMwJhWjNjkpzRQYCx9m1p/v/vfve7vqTBOJpM7Lcq3FQCE8xGUwDJM3uI82200UYOvUhFAWfJECjPVr9VSv1BYNwh4AZxw2666aYWOPqsFreW22cAzEYTCJa2BHerqUM+Lej5lJaYSvVBHgkC4w7VKDxhEAjTmjB/5fjuCEutA2uvvbY5REs9TjrpJMymnkf72rGyxR7Ei04df/zx3Fo+TLv66qszzTVUxEb39S9I5RMAAbcqTuPThz4V6l7+8pe/LKceVPrdO4ZC0KgHoWOPPdZMorXw66yzjnYb1au7u9+apP4gMDsEwrRmh0zyB4pAMS2v+2299dYaPuGEE3xMo83f9U8V1hm1MvugCQ/EZ5xxhsR2221ncy8JBhoVY8clSEr3T5PUHATGLwJuVXeH90he+cpX6sU555xTH3jud4/cmyid1t2h3qT56le/6nD77bevLwJpnUDpkJu33/9F6p8DAmFacwAnpwaHQNlBfGvHHXf0hdrrrrvuyCOPHIBxZIjNUWpXYp999rGV10orrbTttttqmsnW/6KABcQA9Bkc4mkpCPQOgXIauUH+P3v/GW9ZVaWL//fNvS2SQ0mQKCCI5IzkIrYCiqBtt8i1UVHMYAZBQUDBgIGoKKarAtIgKBIKlJwaJEoucrDICGX76c+v//9v1dOuPladU3XC3vvsMNaLteeaa84x53r2GGM+M6y52I518fZZOOGEEzowpqX/w36NOrNfJT744IO25dt3333VRAzjbexXDVv3uCWpEBgbAqV8Y8OrUrcJAVMP/DKniei8613v4kCPO+64LLloU4kRq6BMDl522WWnn366y/e9733eokqksxhH/HU567b+FyW8pxHAbFjKsssu+8EPfpA56ymxqQ48Ud6bufXWW0899VR1eOc73/m6172OqTJeZzVxlsZlw7o6UKsqohAYikAxraFoVHhyEAitaXjMQQcdpFtsr+dPf/rTzz33nDrpofKSGWTiTDO2lHPTc7XWah61j5OVWJqETRomvYw28VKWmM033/y9730vyY6hc5dN3eZRRN0qBAYZATQrhIYFbbTRRjpOn/zkJ5944gmmFFgEYqQ5NyNe7JFhxrrnDWBSShMTFiBK98wQmrKeffZZ28QIiFcWr9IULY3IsmIg1DEpCBTTmhTYq9A5EeA6eep4RrOHRx99NLfoTcCjjjqKF+Y0uVTUhzuWLD40tEkyl87WWjX+d07pf3PN8krj4OXtbUhCxH7iE5/wwpRVJspdZJFFCJxbQsUUAoXASAjEMNkgm1p88cW/9rWvsS829dnPflZMOJY0ErC4mKrRJtLcZbwM01l4JPkkMNukxOeEk5iomTNnfuUrX7n88stFchdmDwVGklPxhcCkIFBMa1Jgr0LnRIAndTSMaq+99jrggAP44u985zs/+MEPpA774ZH5a07WpXDiXXLfyBNHPKfcv10nsSKkwdj4YulF8tSWZ3nl0K2DDz7YK0ukOf6Wr34LgUJg/gjEvnAgAca42WabHX744cI//vGPjzjiCNbKlh2hWXbbaiSyu1g0k4yQ5tbQAAmxbq8WZoDKXXkdP/vZz775zW+yWWPh1uOTIzJ54zSGyqlwITApCIzYMk1KbarQgUWgcbLcMUfpkvfcbbfduOYDDzzw5JNP5l5nudXZk3rucqyNG8WcEKbmclgM3eXQSXOWQCkcNyFHHnmkloBwUx4f/vCHiSJ8HoxtWOEVWQgMOAJMiW2yI1PwLIgdffzjH99vv/3Y3Ze//GVDxRKASDwD9PUFJiZ9Yhqjm8dYFMuV2PCV/br0keQlgfDvfve7loW55Z3lL37xi0pJvJg6CoHuQaCYVvf8FwNdE05WhxgE3CgHmgEqo1l2nea7P/KRjxx66KHiJeBkxcRNuwx/kp2/jjcfCUdpQtfijnntj370o4cddpj4t7zlLQbPbFgqTHgxrZEwrPhCYFgEWB/bYaGhTUae8K1vf/vbe++9t/SHHHII4uXF3iRIbyfmLBcWFZMUHla4SF0pZzOSzorQU+Iu+ATjWHwFL3HiiSfamSUSInkkURVfCHQegWJance8ShwGAeSGG+U0kSG3M7Jl4ZSpgalTp3KgBp/wIVvmcKNS8rb8tfi43Uich6eWQEosylkbcNttt3kd/ZRTTiHtX//1X/WMufK4e3eHqV9FFQKFwMgIMD2GE3vUCzLyFDs97bTT9tlnH/lswfDWt7719ttvF2aDbA3BSoeK6aVvI36kEqQnXDJWT/5DDz20//778wkonZFvhux9YX0nfkPKCCm+NRKYFd95BIppdR7zKnE+CHCmXDBHyfNan37OOeeY2hP+1a9+ZRN5nVevGhEhhleVsiFYHDEvPNJBLIrmZSjrZ3fYYYcLL7xQ9k996lMEKoUQHl+aNBjzqWLdLgQKgSEIhCqJYEeMKMTIpYlCU/+f//znGZcXXLbddttjjjlmxowZbolxZr8MVq5kGcl4WWWK8AEJ+0ew35/85CcibSphc4cVV1yRqEwszsN+CZesjkKg8wgU0+o85lXiMAjEw2Yoy20BTEukIS6Tet/61rfMRNj6wZiWKb83vvGN+srCSRYvzFM37n7uAogyeWHtlw+iWfn+1FNPeSHccl2sKwQrPWDsjZDqDc8NYMUUAvNAoCExzCdWyZREolBM2Op49MhHcl566SVvI+JJRpGNS0kpvTRM2DEPu5NG/8pHfti+0az7779fevWxPwsrFjBCJjuBwvOQM49HqFuFQPsQGHG0tn1FluRCYG4EGucowEcngXA8OGf9gQ984Pnnn7fgQ8z1s4811lhjm222edOb3uSFQWyp2Z0hlEte3WVykKprrrnm/PPPv+iiix577DExJiXtRG+Fh28suuTrHSkx56YyQyMrXAgUAiMhEJNp7CgBkQ726DCHyE7t/vCjH/3IHKL+krm/7bff3pTiJptsYmOXDHFJz2xDmIyNufRVLruSnnvuufZBRbCyNN7wlXlDd9XHcvutt96aELeG9pQ4iiRo6jzHZRNfgUKg3QgU02o3wiV/QghwjjwvB6o3jC3xnrwwFyxw9913T58+3eCW/Xs23HDD1VZbzVoNX06UhRc2gvXII4/4+Np9992HbKUS2Bhm5h1Db6GL0QCkZzyhKlbmQqAQGAEBdupOWJQxaTP1PkpoWdXZZ59tDtEqTBussEq7uvs0ta2wllhiCQbO5Nmv8So2jpaZ8UfdDGvxA/Z/sZaA1Z911lnsl3CewdL4X/7yl4suumgmLpuu2giVquhCoNMIFNPqNOJV3pgQ4Ez5TeTpjDPOuO666xAjDpf71hvWRb7kkkusbTetYNGVMD9LeHquXLPE6QHrMfvIj3lDbnr11VeXhpCm/z2m+lTiQqAQGD0CjJGhhW/FMI0/sVyD04aprLzEpXwNwqizI3QKLcO0ZGG/4VI+F81sd955ZwNgAga0Xvva1/IGjz76qJqw5WnTpmFvH/vYx4TdFZkSR1/PSlkItBWBYlpthbeETxSBjDnxxXrD/K9pRG93416+uWHFxmc+8xnDWj5HffPNNz/wwAP6vk8//TR2ZeW7Du5KK6201lpr4Vj8skMu/tddrpxPT2Ci9av8hUAhMDICjZXhQA5kK3zL1D/j9W0GE4K2kr/zzjuNPWNOek0ZaTa4tfzyy1tMuc466zBhBCtTisluCby1X+9+97tDzniJb3zjG9YS+JqWEkXGb4xcr7pTCHQUgWJaHYW7ChsHAgiWvq+1GnGyJNj3YaeddkK57KDz+te/ni/W2eVeESlpOHRh/lrGTFvEHbsUSIyUHHdSjqNKlaUQKARGgwBzC3OKebK4ZmrPCLRIlMsRyyVQIFYZQ3YpTQpqzN/aAANXTN4wtjcQU4S5yM997nMmJXWxpJRxNNWrNIVAZxD4u4XAnSmySikERo8Aj+nbHccffzy/zIGmi6wrrM/Kw3LKRPHF2fU0bjoe2dnIllvSOATSJ8a3uH53HaOvRqUsBAqBcSDAJJkqi3MIsEExjJH1oVwCQ2024QxHsffkbezUZnixZXYtoJdlCtIuDySrmFy///3vTzrppHFUsrIUAu1GoJhWuxEu+RNCgLf9zW9+413DSHFphZYxrThrZ/FcbRZnZNSKa0a84n/dTUqu2d34emcJknhClavMhUAhME8EGKz7LM4Rk2SPTC/8SUzWVkYGI5VM2F3JHIl3SU4IlkjhUC5TivnOj5iMkHm30VzkUJmRUOdCYHIRKKY1ufhX6fNBwICWLa8kims2jpWvE8aD89RZfSUB52sVl7OwrrNDIP5XpPRiBIyKJaWMSSxZHYVAIdAOBGK2rM8RFsXoWKJLxYkRlkakIwnYrLuhWSIlS+KkT0ysXpp9993XV6Vzy/m5556ze0tGuF3WUQh0CQLFtLrkjxj0asSZcqMJ6PVChM89/fTT77jjjoZO7brrrj6+gWDFg8c1uytxXPPQs8jckiwp3cXVkoaEBAYd+nr+QqBtCMROnRNQTmN9TZluiUy8SDabxIkXM0cgKRuLPvbYY23vwieEhF1++eW+YSqLI4NbXEq8ShI05VagEOgYAsW0OgZ1FTQfBPhBzlEiAT1dXtLS1+9973u8JK+aWz41ncv5yKrbhUAhMAAIGKK29fxRRx0V4oWloVzmEG+66SYjWy4Nisd1uGzI3AAAU4/YXQgU0+qu/2OQa8MhOpp+Jy955pln3nDDDfwjf4pgGdDyHY9MLgwyUPXshUAhEAR4DAEb0O+9997CGbuyKYy9TDMu7sOLPIZblhbkbkFXCHQegWJance8ShwGgcZLCjh4SZtE+9whmqW3ykVylFZguJWFHcOIqKhCoBAYMAR4A+8k6pUdccQRNtlCqiycN6z129/+1hyiADw4DWfhXA4YQvW4XYFAMa2u+BuqEhDgBw1ooVY8I9fpaxtWaInPKJcNtOwunXAz7lW4FQKFwCAjEGrFY9jj9LDDDuM3dNL4B30zc4j2kRfI4Bb34u4gY1XPPokIFNOaRPCr6P9BgB/UPW2G962uyLLWdEPRr49//ONZzM5vppP6P5krVAgUAgOJAM/gucOibBnvuxGcQyK9h2gPiD//+c+ZN+Q9BhKheuiuQKCYVlf8DVWJIMBF6o/qp3rl0Ad2QrzE7Ljjjj61kUtpimmVwhQChQAEeAPuojlbbzBlyhQeQ7fNqgNb8Z166qnchUNkIVYITBYCxbQmC/kq9+8QyKtDvCGf6JXDr3/964b6XfKhnKZN4XPLgJaUfOvfZa6LQqAQGFQEOAROI+5i5ZVX/tKXviQmI9+8xzHHHOOtmngP50EFqZ57khEopjXJf0AVHwSM/xuy4hk5zZ/+9Ke+OMtdJsaMgH3hTQEgWFiX9xBrvUWpTSFQCECAT+AxBPiKBN75znd6D1EMssWf+OT8wQcfzL2gWWFa4odCl8ihMRUuBFqOQDGtlkNaAseDQDqmcs6cOfOUU07BqLJCi/f82Mc+5pInTbfVeosa0xoPxJWnEOg7BPiEeAPugq9w9u6hpfHmEF3OJlf/NW3atK9+9as8jEM/jTMBA76Vu30HST1QNyJQTKsb/5UBrBOvl17pz372M18u4zEdfKU9tLxyCBB3k0BY/ABCVI9cCBQCcyDQjGnFJ3AjuNRaa6115JFH4lUuES9ZvvzlL//hD38Q0E+zKwTfgm/Ja9DLmWOZQ2xdFgKtRaCYVmvxLGnjRCAs6tlnnz3uuONMFHKRXCcvaUAro/2zeNbsCQK3+NBxFlPZCoFCoI8QiDdwxpk8Fs9glIvHeM973rP77rvzIbaGd7b088ADD8Sx3OJVJG4yolxhaX2ESj1K1yFQTKvr/pLBrFAc5S9/+cs//vGPepl5JdvyLANaCTc0KykHE6V66kKgEBiKQJxDRraMVPES/AO+5Wwcy/cQw6LcuvLKK48//ni8Ct8SaehLsgycY11DZVa4EGg5AsW0Wg5pCRwPAnzfU089deKJJ+qScn9E8IPNHlq5bHquSTCeYipPIVAI9BcCvEF6XyFVmQ0UXmONNb74xS8KZGGWh/Yt6ltvvRU5Q8iMbDnnlkB/QVJP03UIFNPqur9kMCuERf3bv/2bFVrxjHqcO++883bbbccJGv9P13MwkamnLgQKgXkgwGPolfEYCeiqZbBKlve9733eXA6j4kO8h3jIIYfkm9McjgMtk0z6ecivW4XAxBEopjVxDEtCCxB4/vnnTz75ZIIspOD+LNWyhxYPyEsKx3U686fSlGdsAeIlohDoCwQMaOFYRqqc4x9QKC6CG3HLW4fLLLMMr+IuEvbrX//6e9/7nudGvKTJCHqNafWFInT1QxTT6uq/py8rx6/FtXF/zQP+4he/yFcO4zf1RA1oxVcmTdhVlmU0uSpQCBQChUCDQPxDJhOd+RlziPbTwqhc8ifciE/0XHPNNeYN3Q3farJXoBBoEwLFtNoEbIkdEQGdS4d+J2enD8rZPfPMM+JDQJYAAEAASURBVD6agXjlrUPnAw44QJriVSOCWDcKgUJgZAQ4k/TZJPE9xD333JOf4U/ibb7yla9kDtFd9Csdv5GF1Z1CYKIIFNOaKIKVf0wI8HTxaxycjLyhXuYZZ5xht5t0OkXaQ2vq1KkSYGNjEl6JC4FCoBCAQLMKnsOx+N3yrFVWWUW/Tjy+de655/qAvVtSGu4qplU6024Eimm1G+GS/3cIZDRLFAeHSDl75dAKLXyLE+T7Fl544Q996EOZK5T47zLXRSFQCBQCo0CAb8GfQqF8dmK99db7zGc+I5+xrkT6FrXlCvyMF27ibUYhtZIUAuNEoJjWOIGrbONDwMCVjBiVQFzemWeeefvtt4vJKNdOO+201VZbScP9FdMaH8iVqxAYcAQwrXTquJFXvvKV0HjXu961zz77CCBbOnUzZsywK/KLL74YmjWLlM0+Bhy3evw2IVBMq03AltjhEeABuTY+DbUSsELru9/9rkipxRjn/+AHP2idlstaPzE8ghVbCBQC80Mgc4JhUenC4VuWxmcv0/iWyy+/3HuIc8weck3zk133C4ExI1BMa8yQVYaJIIBOyW5AC7vSufTKoT20xGT4apdddvHKoUt3pakxLVDUUQgUAmNFAGFK/80ZlzJFSMKaa67p49NxLBLgYV/60pcMqJefGSu8lX6sCBTTGitilX5CCBi35/u4NgF7aJ1wwgnEueT4DGUZz+f+QrMEqn85IawrcyEwqAiESPEk8SHYFSRc7r///tnL1Lp4PT2zh3yO9xAHFad67g4hUEyrQ0BXMVxeDl4vAQNa99xzjx5neplvfvObt9lmG0C56xxCVrgVAoVAITBWBEKtnDOBqF9HgjBvYy38UkstlcF1fbxLL730lFNOSWfPrGITkD5pxlp0pS8E5kagmNbcmFRMexHIkNVzzz1nkQRfxrs584kf/vCHFZy7uptinNtblZJeCBQCg4QAb2O7hyOOOILPMayFVzmbQ/Q9RB08hMw8o0iE7C9/+UtY2iDBU8/aLgSKabUL2ZI7LALcWXqKP/vZz2677bZ0PaU0oLX11lvzccLO8XEZ3BpWTkUWAoVAITBWBDgc/ucDH/jAW97ylmyv5fznP//Z+i3UijTES2dPH2+BBRYo/zNWeCv9SAgU0xoJmYpvCwI8nY7jn/70p5NOOsnCLJd41UILLXTggQfygGFaChbP32XMvy31KKGFQCEweAhwLB6abzn22GN9D/E//uM/vJOIUZ133nnWjGZAC83ieZyLaQ2egrTriYtptQvZkjssAhnQOuecc+688874Ne5s55133nTTTQUwrXg3g/whYcMKqchCoBAoBMaBAP9jvJyfec1rXnP44YfntUTEiyif6PEedNPBkya0bBylVJZCYA4EimnNAUhdthcBbu6xxx6zBDXFcHxGtj760Y8atHcLzXLm7JwlCC1rb4VKeiFQCAwMAsiTwaqMnb/nPe/Rx+NkMmNoDhH3MpkYMJJmYICpB20vAsW02otvSZ8bgbPOOitfObQSAqmyh1Y2hW94VQa3ZMz41twSKqYQKAQKgXEggD+lFyevgHGs5ZZbLtOFvM35559//PHHY2PG1CXIWNc4SqkshcAcCBTTmgOQumwvAr5ymAEtbs4SVIskDGgJc2pG8vlBU4ou+T71ENPe2pT0QqAQGDAEOJmMmluktc466xx66KEA4HC4Hbe+8Y1v3HjjjTyPy5o9HDDVaOPjFtNqI7glOsNU6RryYg6vHN5///2QMUpv0H633XbbYYcd9CYbp5ZP8dRa+FKeqA3diBYJaPycIRNSLtDcLbgKgdEgQJfoDG8jkI7cO9/5zr322ks4I1tPPvnkIYccwjtRvyheen2N8Khlc1mBQmA0CBTTGg1KlWY8CHBJaRoRLN6Kg/PKoT20shA+t3zlkDuTYDwFVJ6+RkBzSGccaRGjReFYaS81h9JQpNKfvlaEVj5ctCX6Q5f4ooUXXtiwltefaVE06sILL/z2t79NtaJy6fVlPpE2im9lhUrWYCBQSjMY/3PHn5JLSvvHQwmkgfz5z39+xx13cHYOCeyhte2223a8alVgDyCApmv2VFTDhqYLUxiDoM1LqZSKFkmQWz3wSFXFLkAghCksSnUoFe1ad911bV4af5XzUUcd5XuIkqFZ2Bht5MFomrtzDHF1wTNVFXoAgWJaPfAn9WIVG6bV+K8nnnjCgBbnxW3xdzqRNoUXFtOLD1h1bisCtAKRojxUxQgEjiVGWIOn3KhQmJZ4ytbWypTwvkEgfoleOYRf8YpXCNAre5nusccetEuYXr300ksHHXQQjoVXWc8gDSWkac7ulr71jT507EGqkesY1INVEK+U5pDz4pgcvnJ41113iRSGxZve9CZ7aEk2WLjU044aAU0abZE8S/cyokB5tHZGGhzCIilYadGoQR30hNQGBKFN0S764xDpPcQllliCsrnrctq0aeYQpbdwHtOKpg3NOOhQ1vOPBYFq58aCVqUdCwLcU5ILGND6wQ9+wLVlHMKAlk5kvnchMtxrLLIrbZ8jEJXIIBb9ETCspZ2L/ggYbBCvjRROk9nniNTjtQKB6BWdIYwu0SsxLpH1NdZY4wtf+EJUzpl2ffWrXzWHGKIfZ0UJZXSrFXUpGQOEQDGtAfqzO/moGj/+iC/jyAzCn3HGGVn3kDq88Y1v3GSTTYRt9FBuq5P/S6+UlRZRw0aRNIQYVchWRrY8hXkfyqOBpGM1ptUrf+uk1zPehsJkuRW9atwUNTvggAO233776J54W9J4D3HmzJmqLZIqUkLh0rdJ/x97rgK1X1HP/WW9UeHGGXFYFj1YoaXeGkUOzh5aVmhpKbk24d54nqplZxGgNto2Z++rzpgxw2dSHnroobvvvluMirj1wAMPHHPMMcsvv/zGG2/svNRSS3W2glVaryIQ4o420SJhTsmT8FdRLTuXbrfddvZ6cEvkueee+93vftdXWTmuDGghW7Ikca9CUPXuOALFtDoO+SAVyJ3xVj/84Q/vuecez+2Sk7J7jU3huaqwMS4siycGCZiBe9b8y1qvPDk10GJlfYxbUQZnR/TEp1F89Peiiy665pprHn74YYmjPBJoIB0Y2NFHH532b5VVVtlwww3tzebjKiiXuxKTk0bUMJg20sBqpoFm56539QdOA5sHjlbE+UQD3Yo20k9ziJ/97Gc/9alPRS3d+vKXv2yga7311qNUEnBWzhHSyKxAITBvBIppzRufujtOBHgljSJ39uyzz5566qlp+TRy/JQVWgLkSpBWsGl0x1lYZet6BPzv+a/VNG1YVMJZa+dMVaIGeNWPf/xjq/qMWkmsSaMtRq1WXnnlxRZbzHKZBRdckKgXXnjhxRdflPiRRx4x1uXwysXqq69uI8p/+Zd/WW211eQlsJGAZrmMBkb93KqjEGgQoIThT/vtt9/vfve7X/3qV7n19NNPm0O0/oHi0dKmt9BkrEAhMF8EimnNF6JKMB4EsCiHnPbQ8sphXJgW7q1vfesb3vAG3ip9yqSplm88EPdUHn8xHchgQBbHUACUK8OZ4UBmmb3thZebu9HsLbnkkjY62nXXXW26tsIKK3iLYpFFFvHQIWQCL7/8sqGve++99/rrr7/ggguuvPLK++67z05IJ510kk88IfSYGQVTSpRNlhqQ6Cmt6Vxl6SQVjWrZy/SII47wbVY8Xg0MiNKu0047LbvSxJV1rmZVUn8gQL0mcnCIHJkeJzS0qY0o8U24AgOIgDbVU3NVhhmaIXqdwuuuu47C5K4EAk14AFEanEeOQzAWlUduAl6hz63LL7/ciituBDdadtllP/nJT958881aPkeyRE9kTMC5ESLs8MqFXEsvvTRepTncYostvKgvL/kpImHqF4F1LgQaBGgIFXKJvju7PPHEE6ONaejNSt92221uRWMbjWokVKDPEPDhOL7o1a9+dfzMBP/xevcwdlTn1iDQGFvc1tlnn23IQWOp8XPsvvvuG2ywgVZQWIOnSOqbYa3WFF9SuhuBjGDRjfz1WTul6frmN7/pddSbbrrJ+IH3vy655BKDClbGRFUoFW2hM7SFBAExzpEmkjQxa6211rHHHnvZZZeRYK7QAi8rAo877jgKlhIVJyXen8vuhqpq11EEolEUwzs64eL77LPPnnvumREs6vT888+bQ+TKMg2tcrJ0tIpVWC8jUEyrl/+9Lqv7UNejFXz00Ue///3vaxF5K7e4sI997GOZOVJxAW1kLqvl67J/svXVoQAOctEd+kA90mjZqQGp8m6XsYR11lnn/PPP9/LX6173OuuxdCWzaeQcXDwcnSj646Bg9Cf0S0ormkk4/fTTSbOW69OzDwmk1EZKIJDms/UPWRJ7FgH6Q68oBq2LephDPOyww0xYu3SL2ngP0ey2R6S9Ueace/ahq+KdQ6CYVuewHqiS+CArlG+99VYeKo5pxx13ND2kqctgrEDjp6QZKHAG8GG1ZJ4a46EMAnQAycauvORlIIoyvO1tbzvrrLN22GEHyqBhk9L4Fm4UJZFYrtCpSJDGpSMKRoIwsRHuPcRzzjnH0nhy7D/5uc99TiAVkAzJE66jEGgQoDlxUzSNhoinMOuvv/7nP//5pKFmKJf3EE1SN46ryV6BQmDeCBTTmjc+dXecCNgD6ZRTTuGzuCcjE7qG1tCkvdQoOngrt5oJnXEWU9l6BAHtlj9dZakEfcCiXOJYNivShllrbMXxqquumhEvepLEOVOVoQE8yaV2MYSMwJAzZxnTCiruNa95zcknn2wYVQJziD4hLJLKyR497BHkqpqdQIBCKoZuNOoUVfnQhz5k6xCqJV4Cb1LzYwZihefmW3PHdKLqVUYvIFBMqxf+pV6oY7yMJlD756zhfOyxx3ioxBux2HLLLTOWkDGJtJ0GLTxcwr3wlFXHcSKg3QrRkd+mtbTCG4K2HhVpfs+kTL52IpkEBhjSsAnTjUY9Emh4EkVKeomFnR3SaDUTbwIImTNsRo53ErN9rrBCaaZA9LNpIMWLrGNgEYhrokXxSzSNLn3jG9+YMmUKJYnaXHjhhTYIpGaS0R/uDlwjca+BRbIefA4EimnNAUhdjhmBNFppBTMr9Pjjj9sSyfgEVyVeI/q+971PsqaNHHMZlaHHEdBQYT8ZwvQoN954oxk9l7vsssvhhx/uLj2hPEmTdq4lT0ws+SYTqR9Kd8UVV1BCpURpw8yk0V6myWxJoSWkbxCgFWuuuaa9TKloNAcbO/TQQ//4xz+KyUGXuDgpqVPfPHg9SGsRKM1oLZ4DJ42v8czO3I0Wy8Hd/PSnP73zzjsTryP49re/3VcO45UGDqB64CEIhGp7jeuggw6yFZb9Rb/zne8Y4jLYSX+aAc7QoCH5xh9M6/itb31Le2m/Lq+PKZdOplGM3pIumZiMhI2/sMrZdwhQDNpoezZdgmgLRkWBrd9KT9Kglx4CBcbAaky07/7/lj1QMa2WQTmwgjRRfFAen7ux7aTNJ9N0cVI2nPzIRz7CB2nG8LCBRWnAH9xfb/07HdBQWfl+1VVXUZuvf/3r1maJoTZUyPotLZamq1GnloCmaPvLW8tMJ5X7k5/8RDXCtNxSFuUUSExLSiwhfYMAxeDEKIyNSExG0xb6KdL7Fqa/XTpoDtWKi+ubB68HaS0CxbRai+fASYsnirvJw2vJ7KHFPbklxqbwa6+9NlclLNnAAVQPPBsBAwD2rUWqrCm2ZIomeDHQWmM36UaWuRjcEm5ti0ValHOPPfZ485vfrEVE78xuo3SOlO7cqOvsytapEPhvBCgPneHK7B7yxS9+UZjaUCrs6itf+Yp95A1opW9QTL2UZh4IFNOaBzh1a1QIcEO8jLZK6gxo5ZJLMqBlG0kjFhFUTGtUgPZjomaJsc/JPfTQQ4YHPvjBD6JWGi30yzIX+kM96BKy1UI9oYpaR0xO4OCDD1bi9OnTf/3rX6f5VDSw0w3oR9TrmSaKAIU01EoKRTU2v9122/FmIqmrOUQbbmX2UIxjooVV/v5FoJhW//63HXkyDiguRuuoPfNFpnvuuWe225nld6xEtkJLIyeZS4GOVKoK6UYEMG8jWz4drZX653/+580339x4AJVAwjKBKL7RpVY9AIF0D5Mj0PZIBtIE1MGaLQRL6QoVE24X4tWqoktOfyCAnVNU1Jy22C5k8cUXpy0ZfP3Nb35jDhHZojlRpP545HqKliNQLV/LIR0sgSFPvAzXY0vuE044ITRLvE3h9QLjknQEyxkNlmb8/dOGkfvejq8ZUgaMJzpDW9JuSZ6wyyjV3wuY0BWZ4fp2GzGcphr21MX8KGfkpplsLidUWGXuIwRoDt3ApZypkIUQNg3BuoSjpb5w4O0fKt1ype0jFOtR/lcxrVKCUSHA4zjmTiqS05l98/9nF8pHHnkkMSK1pr7y27gk8ZrSuSVUzCAg4N/HY+xFZHjAx3Z8LUDLFH1wTiuVmNYqiQaS2GawaquttlpxxRVxrAsuuEB7mbvOWkr/QqoxCH9HPeMoEYj7or10gwILWA7hPcQoFbV55plncC8K5lZkUqcExCQy51GWWMn6EoFiWn35t7b+obR/wzaBaZw0Wk8//bTNHTgmZfMshtz3339/gcTwROkXtr5mJbEXEKAhdMCrf1Ri6tSpxjvVOrrR7urTWy2iZjKBnXbaSR2uu+469aG9mcHUOjYNZLvrU/J7CIHobePHaKyZaN8bWHTRRUO2xJhD9KlN2iUcdfKA2LyzjM7Des4eAqGqOnEEimlNHMOBlsC58CMcirUveeUQHHzQXnvtlT20uKoGoPid5rICg4OAv94HmryrhfFYVuzBac5Q3WgTFFRR0WnqwqVS+g033PCnP/1JodFJt6o5bNNf0NNiaSkNiRZFW6w13GCDDb7whS+4pDN02Pnoo4/2PURapD8pAZolXl4ZQ7l6GoSq/MQRKKY1cQwHWoKGk0MxaZg9tHglvsb7/L43x8XwQXyNs2TcUAda1oH+M7r44f37d911l3XovoBp/s6lg2J0oMpp6oxgKYt+Kl0dXnzxRR0Dl5k3dEtlVKkD9akieggBKsGhqTA/JpzBUR5vv/3287qPS3rFuVmi+olPfEICY1re8KBLVEt87gr30CNXVduBQDGtdqA6QDI1Y9zNmWeeed999wnjUnyNjYt0+8KxeCVw8EGdaVYHCPqeelStzt13300NFltssaWWWopuOFy2+yE0cgrKmQYKLz37EMgQbKqheu2uScnvRQRCxClqtEiAixNGv+yFi7IL8HuOadOmnXLKKS6NaYVj0TfeL+defPaqcwsRKKbVQjAHS5TWy8GP2AfSWvg0Y2J06T7+8Y/HHyVB3JMELgcLo3raIQg89dRTGh4vyWNaojtDbuiegpSbs3KVbps3TaPZzERGS3MeUt8KFgKzBkHTV4QFguWsJ0mpeDl7mfomj1Ervi6eDffyPUS3XGYkLOfCsRAoplU6MDYEOJEcyaat+v73v28PLUvgxfBKvnK43nrrJeycvqDA0Fwu6xgoBDRO2QheO5R9Sj1+mq4O4IDlKyUaqPFL0+jrQInMXaqbQAfqU0X0CgJUgotTWwRLmMZmAlEMdbL77vbbby8czbFvsw9rGtNy6S6NcrgbCQJ1DCwCxbQG9q8f84MPS5UMaP3oRz/iSrSjEmhEeR8tGRfDK/E4Au4aQoifGnOplaEvEKAMWSlFH7CucCyBdj9c2jzFKYseuhTA9gRSn0YtBdpdmZLfuwjwaSofFhX+JMbh4+UmxPNc1MwnEAzwu8wKLQnom6N3H7xq3hIEimm1BMb+F4JFpZUS8LQJOxvQeuCBB+JKXL7jHe+w97fLtGpSCjjzOP2PUT3hyAhonOzsEMYTFRITvjVyphbcUUTD7Zri8n2VjMI2laGoCbeg1BLRXwjQnCgPju7J4tMEEK/Xv/71xrEMdHF6SXPkkUfecsstwmLwLYEmfX+hUk8zBgSKaY0BrEFOikVph5zjTbRe3IcBLXtocSgZUTeg9f73vx9KSTPIcNWzz4EAbbEFEbUxuql9crczzY/isHyq6xBWAYOvZoJUwGbxTTUodgjZHNWuy0JgWASoE7+HrAu85z3vsUmbZGJcWv93+OGHu+QGTVVnXdewQipycBAopjU4//VEn7ShWbyJMHE//vGPrdDSZHIxGqq99957s802S3iihVX+/kKAenjnz5CAdfE2skqb1IFHDOmPigoLqIBddhW9/PLLqwZNps9uOXeG/HXgqauIdiNAbRwpBWW3vVbUiQo5zj777JNPPjncHdlqUra7ViW/axEoptW1f013VUw7pEI58yBaJpOGViSkJTNa4J2yj370o9KkPeuu2ldtJhsBzc9qq61m7FOP38JhSqL5oUjtrpeCzBXOahVnD8eiVk888YQvqOB8a665ZrRXpGqoYbsrU/L7BgHTgjQq/tAYrV2afZPH01FpBz0/5phjbGtCwbKUvm8evB5kfAgU0xofbgOXi1tBp9ImpX362c9+hmw1QNgUfp111mkuK1AIzIHAWmuttcQSS1Ahb8KnieoAuVGcKR5nSqtQARuoahqXXXbZVVddVQ1TE/FNeI5q12UhMDcC1Amj4hWdsXZs/r3vfe8ee+wR3yj+0Ucfxb3EG9OKjs0tpGIGB4FiWoPzX0/0SbmPNI3OBgZ++MMfpvXia4yff+ADH7AgRrghZBMtr/L3EQK0wjaPuv405OKLLw5x78DzpZGLoiqOivrKtYCdda0bE5CAPmNaqlQtYgf+kf4ogs5QGM8STcbmvfBx6KGHUioDWsaxqJy9TE877TRp6Hx/PHU9xbgRKKY1bugGK2MaJM+syeRH0CybwouMu9lzzz033HDDOB2NWTp2gwVQPe08EdAyaW923nlnqa6++mqLpWgLRZpnphbcVG52c1C6Eo00XH755drCXXbZJeoadiWssNLbFiA+GCK4QdqCoFMwHs9Di9l4440/97nPRaPconK2Nr3zzjuTYDCAqaccHoFiWsPjUrFzIMB98B2hVr4Z9+1vf5uLia+x47ZN4ZPAULmMUs6RvS4LAe3NNttsM2XKFHTnggsuoD/RlnYjg0WFZlFRNMt6fBq79dZbK9cth0DaxXbXpOT3DQJzkCd9BjE4/Uc+8pG8h+iSUj333HOf/exnzSH2zYPXg4wPgWJa48NtsHJponKEQtmsL19WCQr77LOPuRgtFuLlLE2NDQyWfoziaSkGumMROrJFl37wgx/MnDmTqgjLnaZIAuFo2ihEDp/E0EK0NJJdps2TWviEE05QE/t6q4mY9BYEjHIJJ8vwciu2EBiCQFQlHk80/aF1VMg04le/+lXrESWgac7nnnvuT37yE2mEaTg2JpDR3A6M6Q6pcgUnE4FiWpOJfs+VzZV4d8xaeE4kA1oW3+y3335xIh6HHyma1XN/a2cqTGcUZOGwFS1XXHGF9VJiHAhQVg3THIokxnkcVdJuyYhXRQOFNX4uiaK3jnPOOeemm24if//99x+H/MpSCDQI0KImnEBiKKG9TD/96U8jVVbKRxut3zKHKAElpJwCFN5rGZ0Z052jnnU5KQgU05oU2HuvUO0WN6HpMhoxffr0NGMe45/+6Z8sc3aZ5k2a3nu2qnFHENDAaH522GEHM3cCRx111PPPPx8yRHlwdJRLGufo0lgrZVxBdrlIIH9odqXY2cEHgA2ebTf7GHq3CSd7c1mBQmCsCCBPyNbHPvYxCwFxKYrn0Ds9+OCDM5rFQ1JOKpphsLHKr/Q9ikAxrR794zpdbZ0zdOrhhx8+9dRThTkLZ68c+sqhcDpq6iTAs3S6clVe1yOQZoZ6aGB8vYTy3HjjjaahxYQVaaLc8hzjozthabJH/TJ4QLh4h+K+8Y1v+EaKIgwwGGyQkj53PWxVwd5AIErrTKloMn079thjbTFIGymhS99DtJepu2Iopxhq6VZvPF7VcsII1D89YQgHQwC/wI+cccYZDz74oKaRsxDz9re/3SZJwjBIu6U/V+5jMDRibE8Z6hMl8Zrqhz/8YQ2SFS2//vWv6VXI1ssvvyxBVGts0v/Gz+iklkwzJjuZLgl0ef7553uHQ+QBBxxgoRgtHav8Sl8IzBuBkC1pooE2F7QWnjN0ZE2FvUztJOeuNHGhMYd5i627/YFAMa3++B/b/hT8iFfGvve976Uk/sJXDm0Kn1YtrqTtlagCehYBpEfdw6hojoUstow3l+etVQOl2BUVWnDBBXGgkK2xPmjoPi2NQkaOsEGse++9l6JagK/xs5mkOiB5Y5Vf6QuB+SIQshUuZerwE5/4hJlq+kYPnc0hZjSXKlJXR4xivmIrQR8gUEyrD/7ETjwCv/D973/fHlqaSW2h45//+Z9f97rXpccWFyNSG8bRCHSiTlVG7yBAMfAq2pJxJlu0W/DnS4iGSH0u0zkMybwe/Yk6jenhqFyTUaumIAKxt4ceeuj//t//a2WhEk866SQfpyNWgggvRR0TyJV4vgiE61O8fHzanDUlp/MYv7P3EE855RRvhETxONX5CqwE/YFAMa3++B/b/hRaLE2j1usvf/mLwhZbbDGrPrVnwmnV9OHSQI6jmWx77auAyUZA06LtUQsqhBLRIh8jT6vjfUDvVdxxxx2aIhxofM3PUK1TVmiWD8/ZU/eGG24wWuYbnZtvvnm6AdHbyYakyu9DBEKh8CqaTCfXW2+9Aw88kEpn1F/Ml770Je8hRg+HKm0fYlGPNASBYlpDwOjHIMtPAzbHw8UjJJLZx/JdchDCAnI5cxDOPAKa9dhjj4nUhrnUNK677roRkqYxq4yTuDwIHOoYikBUIqqiHTIy6u7uu+/+ox/9yOZD119/vfAvf/nL6F4yRrvMA2YIiu6JSWRiEo6KyqgIFMolFSXhrLPO2nXXXW+++WbvbRiOfeMb35jOQGiWxDmGVrLChcAEEZitobP2zYqqC1iS6D3ERqzvmHknw6VbNFAgOi+jQMK5G/VOxjnCTTKB2EKTLLfmiM/dOk8iAsW0JhH8ThTN5DQ8zD4NlSJjtIzcrYS1PWl+XErpVporZ5eaukceecTme437MPptVySJ4yk68RhVRp8i4KO8vuy03HLLmUB817vepcevKYqWRkVNO1JCqtjoW5qWRp/dRaEosLNINO7xxx+3Dmzfffd98sknTRr++Mc/9uoGmRlUk7L0tk+1afIfi3bFT/Ku1Mwlb/mFL3zBJIAYl876AN5D5JalpLEio9sJeAaR8cPi80iNxroVsfI6ZJFAgNihKcWT0ETmVp0nEYFiWpMIfieKZm8x13T0E44FsliXsw32/xNw6UidBMRotKTU1Jl5eeCBB2K9TN0KLV/4kjLSOvEYVUafIkA/d9ttN+tXttxyS6rl3fipU6d68cJnTOgelcOxcH2qCIDobVSaPjdqnPFUimpS0i7wvq74ta99TXqfLvDW4Zve9CZhPCza7pyMfYpoPdZkIkC74kX5VWEHZdt00019ADFhWqp+hx9+uDWvUlLjkCeR6dkKUPuGPMnVPA9R0keOsGRuCbCIhOO35U2WoXkbIRWYFASKaU0K7B0tlL2FTik1XoBxihFmn6zU0ZhoLDzNmGS8gDGGrNAihy+wSYxveyV7pHX0YaqwvkOAmm200UbIllkVAwB33XXX+9//fnzr6KOPztd5JaB7tJS6CgMg7Q31c+mw1v7222//+te/bk/Uz3zmM5Z8+bLhJz/5yd/97nfeN6SrsqTbIGPUvu9QrAfqFgQoqqo400wa63DpswTmr+OKka2nn376oIMOooocLJ3UDZCYisbHinfImIDIPJuYSBCQWA+EQxZwliDJZEka5xSdvHWeXARmLWioo48RiLV7QIbHCF1qeBinGPbJzmPP7nINbF68yCQWNuFigMFHeeWNkL322kvrRU6TRnwdhcD4EIhCUkKrqY444gjjTyZWfO7JLqPIk33kLWP3EQJvua6xxhomGV/1qldF93x589lnn0XL7FF01VVXWVaf7biMb73zne80e5id3iSm1VFpat/obTVC4/u/Kte8EYifpGYUrFE2WVB/nyi49tprX3zxRQyJsz3vvPOo+gc+8AHJMiiLbwnEIZNDad0KbxMmhAKLp8+6FsISh2M1ip28EnDO0qcy865w3e0MAsW0OoNzp0uJpSk1LYrLGL/A/fffb3tu7dP06dONYPtKCQuXctFFF11yySVXWGEFcy5emVl77bU1bFbBW02MnJEjr9UGNoVnwLHhnDv9bFVeHyFArxwaEq0FBfNC4vrrr29M67TTTps2bZo569/PPtw13OXsoHVSCliGpdEKkRK56qqr2pXUCsItttiCtotxSAktaZw1S9oth1yZxOkjIOtRugIBiqceVNqZ7glwngI00CtE5hANZVHdMCRdC4vls/MIhQzf4pM5Z+OyAjoSduHK697881JLLWXPiHQ8SFtllVWIItyREpVF54Ubze8KUKoSXFCB0H8IMLzmoWab4azRLKvaTdCcffbZt9122wsvvJBOUpLFMrVbSXz66afzF+xfuyVgY0kJ4kG8IKYhlIuniF9oCqpAITAOBNKPx37kpaWaCnplFSDKZdraBg2UVntjkxErt+gtVdS6yCVgnEDzs+aaaxpktTZL27PSSiuJj25r20hzpqvOhMsoxmXRrHH8U5VlNAhQP8k40gw7CUe3o+fmEH3m/JprrqGNlJDLNfh65plnutQBNjTL9xrN1b9tyiLQQaCJBbuWyPVv//Zv0qNc5txtYrLTTju9+tWvTudBSupNzyWQxbmRU4HJReC/+3zjroS/k/NCrm0g/vOf//wd73hHRNXfPG5IJ5gR8s1fIIAh3XPPPTYuMiNj+Cp3jV354LwZmde+9rWGqUwRcgc+98uYDXSZiHHmKWT357oll8MKrUsvvdRwV4w5kWx7ghWu7AOOAGI0qzGZ3ft3bpgQBQtV0qfXs/dGofEq3X1psDGDr3aI8GqhLkEaM3LCrjQwkaPJSQvECiIK1NUIDbi+deDxqW5YDi/Ku9K9aB1FvfXWW61BzAsf9JPS5sPnv/jFL/QoxNBVM+mrr746/6wXYQ8Uu8EhWH/+85/NmHPmTCBzEXmQ17zmNZpdw8BsIQJZgVvksIIOPGy/FoHPWIdgYsfIOmCb/3R8z1tjWuPDretyNXrApPWfmDR7s+7SsmIbNAiwOl0fL9Xr/XsXhlkO+wzkyO6Ve1sc6Wxdcskl2jnS2K0hLoMHEgjLG98RKpZGLgxsWLEVWQiMhEAaBndDmDLgRM0cYU423zJY5VhkkUUko350Eu/PTqQUO41K5ESIZJyjc6RJ43CZI63g367qtxBoMQKNgqFZRNM9MdyjsJFXO2xxy5TWQUt9HtHZXaTKpIHD+g38aaQ6sQvzDNddd51vhmaGPU7egJnv/0Th5eWZpVSu0uOZeWkxylLuUHMYqaCKbyUCoJ/I4T/zL2amGQdsRIlvwhXoAAJzAI4tXXTRRVtttRVd0fYYdLRTEftMTWKEw9Yq1uhMICEGui3MMk2jGWPDPmxilFtGn+4amj2JI5Y+zFGZoSkrXAiMBgEqFHUaqquoVeP7TC+SE00bmmY0witNIdBJBIb6Q+7ROCs6heukV4D6TJkyxVbyxrTcVbE44WFrmFuNp7Wcy9ovXegwJy+UGDOTUYKkyVkF4tLnLXzYEgc20iwQnpqZWSAM/RPHgcn/9PMaF1aBXkSATjAqNsxW1d+CYiOfV155pX6Sz+tedtllMUi3mNy8OzQSkOaQTNv2rW99y6JkqwGomuGxt7zlLeiXYQbFRZqAxHiYs9LlEuhFDKvOhUAhUAi0CQG+kQvVZUWtfL1AOJ7T3N/ll1/uC4le6XCX+23GZeeuSW7xsbI7e8H2sMMOM/Ng119if/Ob31hi/6tf/cotbED2+GThxi2Lya25hVdM+xAoptU+bDsqOfaJ7rAiw1fYlUl9dnjGGWewYZPNBqgYm3UDmWQZqXIsWQJCQqTiGox4W8hpjNqKAQvq3/rWt6JuUiJ2EgskMRt2KEVlRpJf8YXAaBCgSKNJVmkKgZ5AgIeMYxT4/ve/z0W7tNbQ8iyLaK3HiqflpXnUuNORnksaDlZ2CQQQLMttfWhBN5hAq+z1sS1hlIAbZ0cSJLEi0hMeSXLFtw+BYlrtw3YSJDM8bw47BPAhE/k77LADu0WG2JuAdQPszd2RKpdb7JOVsvmYqLw4nK0gCbSGgDHvvffedt8WyeyJkp5YgaQfSXjFFwKjR2D0ZGv0KUdfeqUsBFqIAMfICXOYvg1lNRUXarOGCy64wHeismSec3bkhW4p51E0byxBWBSxPDbfyw/7Fu2FF15oxQg69e53v/ukk06SJjtEkCYZM5FX5DyE1602IVBMq03AdlpsekImDe2Uzaj2228/3RrLs5p6sMmGDM2DD5GTZBHI+Fmms+EroiyKN0jmvUUvKlq/5S1FroFhu0Vmhsed5W3KrUAh0A4EqsFoB6ols00IpDOACaFZNiuxGMOGO4ayeEuajDnFZ8b3xqMOWxMJeFrS4myFZXTObIbXFa2W3nbbbbE3H0swEWGZh+aAA284lsuynWGxbWtkMa22wttR4ezqU5/6lPnBt73tbRZXmelrrJGlqQpji5mxzJFqJkHuxv6dCeQI5GXe+NZqq632y1/+csUVV7TFkQXy3lKMWAIlZvYuRxJe8YVAIVAIDCACGJLdsHSA9VENO2WDEpFca+ONm/A8XCgfy0UDELVqHDXPnHi3rOA2k7jhhht6aelDH/qQzjCfHJ6XViDMbAD/gsl95BFb3MmtVpU+VgRsdnfIIYfoLZndO/74422ozfZisXOYmcuY3LBFsMOQLckQNZd6RU0fiy+Q17KAE0880UZcdnY5/PDD+QsFScP4yXQ5D/nDFlqRhUAhUAj0MQLc4wEHHGDDQp+TMq9nkx291lCrMCfu2gGBzB6MBEU8cO7GzXLUMmJdzty17FblWvtlQwC70HmlEeWSXim8dIrgokeSX/FtQqCYVpuAba9YNjaHfVpiee+999ryzmgWY2bYbI/Vpd/DPh1NnYaGm8gmwFwTbrpWAilOufJaE+ANF9vAsFjjW8bSWLuCYsBJ00irQCEwPgQolYxpQgTSSCTSZRMYn/DKVQi0CYHGDYYJccV09Tvf+Y43uBOwK6mihZMy/paeR6XTX51H3bKWS4LGUcvIOuKu46i9C2UZiZRXXHHFcccdJ3Hj86VMQfMoom61HIFiWi2HtL0Cm/aGmcWomA0b9g4Lu8V+sodWks3XaEdfV2bMcSiU47AIwPnjH/+45fYvvfTSkUce6T1HnsKBhCXl6CVXykKgECgE+gaB8B7Mhj/kk/lDG7t/85vf5JMtVN9rr724ZX1gvrRhPxN/dgUp19lsht3kNQ1eWvqXf/kXkYq2xkPpIp0dIideYkkYEwLFtMYE1+QnTj+pqQebsY7qhBNOyLyhVepuxbyd50jc5BpfQFkOjoNkbkKHyUCaD8/5UJeRLb6DDYt35mLGV0TlKgQKgUKgdxHgcjlJPrAJeJZTTz3V6g6Tel7f5hslwLF4UUernpTAeHt9YDMbvLQ6HHroofZ98IGQk08+WTznrEQp+epWlVtyRolAtYijBKpbkrHSVMXoUWiNTYF/+9vf6idZDo/3SMCoQnda2GfSH+IjYsyKcIjxVR+fOGW9Vh6IUWgMXrhb8Kp6FAKFQCHQKQQa19ewKF8Etts457nvvvuuscYaWA4vyk9K2doeKckEkpyxK/J9wEqhHt0aed9rT6PgrOHoFB5Vzn8jUEyrx1QhhsSiYi3s2dvCL7/8su9k+RQDG/M8zUR+O55NEWw45urso7+KszTeXqZxHO6GkLWj9JJZCBQChUDXIhAf6GxUSSW5a5tm+Ti694e8qc1hZkWHQFK26kF0vL26RJoWIT1wYX7YfKW3Ea3uOO+888QoVD+8tUW36hH6W04xrd77f1GZ2AzSg2NZkO7SvsAZNM5WdWyJyYV4teQJY5xs2KHzpA5eaRHeaKONbMHnUreJ+1BWumstKbSEFAKFQCHQQwjEB6qwAPfrfOaZZzrrBhvQ4icRHR5SjKOFz6W7m6kMPpnnJzwjZ3rgvp+mIAt503CgehK0sOgSNRoEimmNBqUuSsNIGKoKxVCvv/5627TgWF4GZEjp2WQaHjcKPWpJ7YnKSJWzgjgRSy+RLavj7cIn8uabb37mmWeSpoXltqTyJaQQKAQKgQ4g0JAYnpAbvP/++7loHnuPPfYIzco615bXRHEkOztmkbjZCzlSGRuZqolvUTtSbvnnluM/X4HFtOYLUXcliJFkSl73Zdq0aYzKBld2B2ZXejbOei0iBVpuUcSSSb6ihTNevdtuu3El3q9xpNsUC+8u4Ko2hUAhUAi0GQGeMENZAlzlDTfc4E3AxRdf/A1veIN4MZiQs8NlC+tCYJyzgKLD5xLpwx4+FuKVKbuYKrGccwthH72oYlqjx6qLUrIldsVWb7/9dua0zjrrLLTQQliOyHAdZ/GtrbFCiXVEbMLs1qi4pZcCqYxAy4tu7YOUtEKgECgE2oEAIpVeaAiN15UE9IS9eBju1fjGLORqVR3ijQlv/HMKcjllypRVV11VQbfddlvYWOrWqqJLzmgQaHFjPJoiK80EEWAnsSu9JS8Pu/QhwgnKHHd29sxlqAAbvuuuu8qGx41kZSwECoFeR4A/5Ak9BV5l5mH69Oku11577cl9LhuZajLMOVjLpSYhYZNbpUErvZhW7/3jsWT1fvHFF73VIjCJTEvpJhPNXaqVFWNhgU0New/cqnEhUAgUAuNFAKFpepuY1n333UfSJPpnlcGr+GfVUJks4R3vw1W+8SNQTGv82E1WTpYTe7ZnqXcPVWOppZaarMoYLVf0Ekss4ezjqanbZFWmyi0ECoFCYHIR4JybCtg1VNj8XRPT4UA6vUsuuaRy+WfuGveqnnCH/wXFFdPqPOYTKpGRsGSHgKFgLxsSt+CCC05I6IQzpwJoX8alVW/CIktAIVAIFAK9hwAf6OCfHekJT6J/VhMIZhWvL6ehWY7yz53XqmJance8NSWyFh2UvMBi/q41QscuxXIE1fDOo4CtvDgXljx2MZWjECgECoH+QYB/5gn5RoFJ9M9pJvhnyJoDcdk/EPfUkxTT6qm/a8gX4HVWGDATYjyWxk/iY6iAV4hVIF23YlqT+F9U0YVAITCJCOhqpnQBnc8MJllQO1lVUo00EAIqo9UosjUp/0UxrUmBfaKFxp5tZ7XIIouQNWPGjIlKHG9+NWG9FuYjWK961avKjMcLZOUrBAqBPkGAV3ToBttJi0ucRP9sUI1/fvLJJ9Vn6aWXRv7UpzrDndezYlqdx3yiJVqexVrMG6JZLJkJPfjgg84inTOfmPVbzGyihQ3JT7iDlTaGmrBS8gqkLz8oPZ+DGJKvgoVAIVAIDAoCnKRHzejRMssswy0/9NBDs33nf292yGHmsn2INPJVQyneOuSWl19+edMg6pPI9pVekudGoJjW3Jh0dQwr1VVCaFjLoosuuuKKK6qunYidsSsGptfiVV5pEDLhVj2Mch2kKdeBYymL0SrC9P+dd97pcvXVV2fP0ohvVbklpxAoBAqBXkGA64v3S59zgw02ELA5u0hukwvlOTOw5IniUVv1aCQTyA8TOLsWs5xwKuOjQKphV63sHZ80rSq35IwGgWJao0Gpi9LEcmaznVl2a088xmPLUEsBsKvYcNLk3Kqqk4xFDZUZc3W2Id4f//hHpa+33nqKY9JDk7WqAiWnECgECoEuRyBbgyI9vKWwnbQEeEjzd2rOi6aPKtwZJ8k/22nilltuUaJdtcLtOlN0l/9THa5eMa0OAz7R4tIxCstht74eyp59OtQAdUS7lY4LC0+yiRY5O3/T/UKkiA3Vi8Veeuml7loEwJLdbW25Lal8CSkECoFCoAMI8L0cchyv8Prrr+89ITQr0w4qwGciWwLOHHirqqREkgmMT3ZJvoOjNqL28MMP6wlvtNFGEjgaZ96q0kvOfBEopjVfiLorAeNhKswJpxHw4dJll13WlnSXX355Y+FqzMCcY/AteQCicqR04dmGPOt08cUXi9x4443VRB0Ul1ViLSm3hBQChUAh0EMI8L0Z0FJnnU9rKgQuvPBCZxTHXd6S2+RCW/tQ4VhkxlG7VJbwRRddpLHw7cV111235YW29hH6WFoxrR77c2MqMWbrsbzu9+Y3v9kz/PznP2fGrIsNu4wlS9aqx8tIFfkpgumSTL6vSuuuIVhve9vbxMSJTOL+Ma163pJTCBQChcBYEUgHmJfmG3U4DWu99a1v5Y1/+9vf+kYt9xgHLqYJj7WIeacn2RFHLeWf/vSnX//612L+6Z/+KXMdfLWi5y2k7rYcgZa1xC2vWQkcFgFGglGF6LAfafbee28jw9dee+0ll1ziMpYsAWMbVsK4I5WbEklgtFwJqnfqqac+++yz1lruvPPOCsWx+JcWMrxx17YyFgKFQCHQYQRCYsK3uGWl77HHHj6GM3369J/+9KecM7fMbcZDxle3pIbx9hFIuEu+Gqk655xzfI7W54AQvtTKLZ68JYWWkNEjUExr9Fh1RUpGwpgdrAitYTxbb731Vlttxca++c1v2qU9NmwISnVbaFHkK5RwAQfhyvJKyy9+8QuRb3/72336MNZuly+16gqwqhKFQCFQCHQQgfhAHVFvZMdPWhS/5557cp6nnHKKBVu8JefsLIFzy6tGZurACXPRGgWXusHmMd3SaihdZVpebgmcNwKt/6fnXV7dbQkCrIgxO7MZhvTRj34U65o2bdoPf/hDMQgWo9JzSjgGr1y9HMd8KyANCU3KZI/1ytsEXvGKVxx11FEGtOw08d73vjcUMMLD8+ZbUCUoBAqBQqDPEIjD5B7T4URuPvShD9mf3a6Hxx13HL8aF5olFkksJXcdHJJrvpjImCMp466TV9hB/te//nWd4Ve+8pUqILG7Wg2B+QqvBC1HoJhWyyFtr8B0R2JjMRtnXRaHgr/2ta95oxjNwntYGnuTPjbmLN4hmbsj1VIWaeRKypilSOnFyMhcQ+DOOussi8MkOPTQQ4fuDi9Bco1URMUXAoVAIdCXCPCQvF8cJkblkn82nvTud7/b8373u9+98sorw7SSTFhiXVPumudMONlHwkdGh4w5hKXnnDMpqUTczqV3pI4//ngydYO32GILidWETAFpRhJe8W1CoJhWm4Btl9gYYVhULI2B6T/hWOiObtNHPvIRn0EMK1KJpGfJEgszS5HujlQ/yXJLYgaZIpxZrAPHEu+47bbbDjjgACl32203U4cESkO4LClrJPkVXwgUAoVAvyKQPmrcLE/IVXKJKM4hhxxiMevLL7/MbdqRx7yelPGZjTeWPmHxY8JHcVoBjQKZwtaHPfHEExoCEw62Tv3sZz+Le8WZZ+RMsjHJr8QTR2DEFnfioktCOxBozJJFoT5skn2yn1VXXfVLX/oSk/ZO7+GHH+6ulOxcHYbabcIMb6S6SRDvQEKTUTheQy5WarXB+9//fl+V9q2JL37xi/mKqsTzEDtScRVfCBQChUDfIBCX63EwG+cMI3GM1qSffPLJvp9mk+fPfe5zXLe74uNjJU6M7PHq8wBEluRq0nD1aFbcL/+Mz33iE5/QGeaZjz322KWWWko1tBGES5ZPiTR5K9AZBIppdQbnVpbCLEN9GBizjJk577///voxKJHVAF/96lebNMxSuHEBqsLe5l0h0lisczLK64gvQLDe9773/fu//7uC+I4NN9zQLSkJTK7iW/PGtu4WAoVAvyLAYXq0OM+QLWFEh/P03pLOMG9s0cWHP/zhmTNnhoe5JU26su4KJON8IVKWQxYHIfywjI4DDzxQEWQeffTRO+64I4FExee7a8Qrnny+8itBCxEoptVCMDshiqkwIWeFYTYhQC7DbxCsf/3Xf2V+Bx98sFWQPtHDqGbb4yyDDB+KTc67rhJLQLi8crFVZy8V+lKp92hsVcpHoFm77757umV50Sbyk3fe8utuIVAIFAL9h0DjnIe6UI/pki/94Ac/eNhhh/GTXtneZ599Hn30Ua471IoL5ZmTK450WHAISXy8enNJCJ/M4e+7777f+973XBo5M1PZNBBJqXo8dhjesPIrsk0IFNNqE7DtEstUiGaQoVZ6KoxKZLoszPXb3/62Pg0Ds9PVXnvtZeUWA2a60jvYm7yOeddPMhJ4gdh8MtoBb/vtt7fQUt4TTjjhXe96lzSMljQVcE5i9Wnsf96l1N1CoBAoBPoJAa6Pt0xPmFfkEuMM47eFLbewuoNPPvvss//xH//xuuuuM7jlLrcZz2maT7KRDm7WLY4XaIQ7hElzaQfpbbbZxotKwtZmeVGJQAkITE2E1Y3HTvZ+gr37n6WYVvf/R39XQ0biiGUKMOlYNfNjb5bGo1wGjT//+c+Lt+/D1KlTUS5r5MPJGlY0kiWLl8ah1HgHhmqjYRtJ2CJVJ8z3Dc8999z3vOc9UkqTcllvpv8Tmex/V++6KAQKgUKg3xHg+kzP8ZzcL//sceMSXTZekXPWU1100UXvuuuuN73pTV5msoAdK5LAkT7zPHCa1QD87d0myYS5aOzNFqk+gEuCjbuOOOIIdVA0amWXh3S2peSoRaJc85Bft9qBQCHeDlTbKJORxE5YlABzcijPZbpEzAnf+sIXvmAMeYUVVnjkkUdMI77lLW+xWbDOk5QS5CyL8FBHIMZlcxaYMWMGu0XXzBWyZ59ZPP3003fddVcZlR73oVwC+RfpHcJ1FAKFQCEwmAjEB3LLcdTxz8LxtDlb6nraaafZ1NSyV74a3/rRj34kHOcsMSHCjlku9W9heCZ7BqtcPv3002eccQa3bAUYX+3jhv/v//0/C3ZliSdHrSSLi0593BrM/2Vyn3pWG1lHHyCg18KkY0XmEJEtO7hst912hpHPO++8Sy+91D4uXjM2i7/55ptbxo4Y5akbd8AyCcnYskEs33AwdsWMfa5LSltIWGTwqU99Sg9JSrl4gZhxH6BXj1AIFAKFQPsQGMpvMoVnwSuGdMwxx5x00kl/+MMf7HqFLVmSoVu73nrrLbjgguFbqVLomjCvK2w91i233OJbiny7L8+KsYj2He94x5FHHmnOgf9PeoXGvbfvuUryKBEopjVKoLo9GdOKEaa7k9Emu7dbeukz8ieeeKL1VYzzoIMOMmq90korMWbESx8IhULLkCczjLZv8BKywyi0xe8EemzvJ1vvhWats846xIrJWDQbdhmT7nZ0qn6FQCFQCEweAhlhSvk6qDwn/2n/Be8w+fazyURzDtOnT7eKC1tac801+efVVlttjTXWwJwWXnhhXt2I11NPPWXP9xtvvNG0o4BNucQvvvjiO+20k9UdW265Jc+sCP68PPPk/dXDl1xMa3hcei5W9wXpCRNKZ6jp0Jjss4O8lZJeLWau5hBttXLrrbey0lim9CFVAjyCw+Mbu1p77bV9l/TNb34zy49k8QLNUFa4Xc9hVRUuBAqBQqCTCGRMi8N0cLPpoAqow2abbWZ/0U9+8pMmEHhp7zAZpnLwz3Jx0RxyUsorvbxNzCqrrGIZroXw4q2UNVPRpBFjvcd8V31JVkcHECim1QGQO1EEo0KAYoTscxZdmr3iqjG25ZZbzo52Bq5Dp9Zff33pzRKa6Z9l/f/1X8affSVaMtZrAYGZR/0qhhojJ/mll16yFZ6UMX6BZgqyE09YZRQChUAh0JsI6KByyMgTdyrMLfOoDpHcKTfL5VrGbiv5a6+99qqrrrr55pstsbVyw1SDsStpjGwtueSSZhjs/G7CQUZIiOfJhR3xxiQ3brloVvcoSzGt7vkvJlSTGBX2k86TszCJ6BRrZOH2jmexkiFbSJXdTX2Ny11T/lKyf2bvrrnktSjCAABAAElEQVRFeRtbTZ24BmnQrIgSlpFtZ8HBhOpdmQuBQqAQ6HcEeFfOM0/JwcZdc6Fca7iXSAGeWRd32223FTb5gGbxsXG/JHDL+BbX7U1DTljMAw88YA2uF55kl4xAU4fx0jJKQE6/Q9sbz1dMqzf+p1HWkr05JGaHzsIhQyzQai2GJ17YCgDjVSFVpvklS3pmaTUle9YxEolOGZF2jsXGgJsxaondGmXFKlkhUAgUAgOLABoUzxw+FAIkRh+Yi3bmlpuAMDeLMzl4ZomTPglQsS9/+csmKLhleF599dX2d0gaArlu0uKlBxbtLnzwIrxd+KeMp0oNtZKZoTrHsJEht7zbcs899zByh1uWBaBZjFMaiUUKuBRm26xUl8ul+AxuJYG7DjEM3t2UOJ66Vp5CoBAoBAYJAawoDtkZE/LovCh3yoty0XGw8dVcq8TcrJRJHGeblGJ0kpdddllCMkhm00TrOtx1i1iJBWTPnj6DhHFXP2sxra7+e0ZfOQbWJGZpsTcxjFkY07IWXsDhrl6RQNILDPUCIsOuRDpcJoEARxBjFki8cx2FQCFQCBQC80UgLrdxvHGnuUSb4lrjciNKTCJdSpaU+JlVHKYXm7lI7yHee++9TUoShBEvrzQ5z7dWlaAzCPxP89yZ8qqUDiOAaekwXXbZZcplhMIskKF2uBpVXCFQCBQChcAEEcDJuHRdZc48RAr3uuaaa7Arvt0hUoKUEnI2wRIre0sQKKbVEhi7VwjDM7Zs1SRTZJMquskmm3jBsHtrXDUrBAqBQqAQGA4BbhyR0lX2HqKwJAa3bGEqMpcZFcOxGr41nJiK6zQCxbQ6jXiHy9MHMqBlN4dYoCHrTTfdNG++dLgmVVwhUAgUAoXARBDQc8airNOyK0QzZGVxiP0gGnYVyqUUQ1wTKavythCBYlotBLMbRTE2A1r6N7o+yBZrnDp1amOi3VjjqlMhUAgUAoXAyAhw4Ntvvz3fjlQ57B1v43jJ8bBm/VZujSyj7nQUgWJaHYW784XZQ4sRpnODby2zzDJbb711Y42dr0+VWAgUAoVAITA+BHAsbtzZUi2vLqXPzJ/7rC2Bzcr6CEe2xldK5Wo5AsW0Wg5pdwm00fBNN92kTozQeccdd7Q5XuyzuypatSkECoFCoBAYHQI+leartU1an7W1dzzH3qyUR8iKaTX4THqgmNak/wXtrcDvfvc7m5GyQP0eZ0spmV8xrfaCXtILgUKgEGgDAuYHOXDbk9pxGtnKZAV2pTttqZa7ykxkwm2oQokcDwLFtMaDWtfmyXos1WvmBzEtJideJOO0HJ4d5rJrn6IqVggUAoVAITA3AjrJHLhXmvSf99xzT6yLMxfD4fvemkvhDGsJz529YiYLgWJak4V8W8plXUyx6fc8+eST//7v/87wUpgPHa688srNZVtqUEILgUKgECgE2oMAXhUihWxtvPHGPvXhqx6K4vl9lxrN4v/TBDhXj7o9f8J4pBbTGg9qXZinGSuOgbFGC7NuvfXWhx9+mPkxOaaYRZR6P9Xd6cJ/sKpUCBQChcBoEAijWnHFFTfffHMzibKEac2YMaNpCEQW0xoNmJ1JU0yrMzi3vZS5jQrlsr+Ds7LZoRdV8mKwlEOtse01qwIKgUKgECgEWoEAT45mpavsvPPOO3PmnLwwmpW9HtKvVlqcfyuKLRkTRaCY1kQR7JL8MSpWx8wctoPX1/HxUTGM0BDXCiussM4662Ssq5hWl/xrVY1CoBAoBMaEQHx43nDywQ8TiHH7/PyFF17oLmmagzQEY5JciduHQDGt9mE7aZLNG7K0+++//7777mOELpnlFltswSbVCQnLjg+TVr8quBAoBAqBQmDsCBjQSia8SthO8faLFxNedcUVV7z88stuJY3IsZdQOdqCQDGttsA6WUIbG9OzscPKzJkzxWQEa9ddd1UrttfY6mRVssotBAqBQqAQGAcC/LluMzeuLy3gdfItt9yycfvTp0+3NpdYCZrIcZRSWVqOQDGtlkM6OQLZVawLr8KlHFdffXU+KS282GKL2d+BcUpm51IpJ6eWVWohUAgUAoXAeBHgwx0cOK9u6S0P/4//+I8Nr9K19g3EdK2VIOV4y6l8LUag/okWAzqJ4mJg6cq8+OKLF198MUvLpRVayy+/vEvdIMkSOYlVraILgUKgECgExooAUsWNO2SMJ7dUa+mllxZGvExlnH/++e7iYVz9WIVX+vYhUEyrfdh2WnL4EzMTsLfKc889x/xik1tttRUjZH4uE9PpylV5hUAhUAgUAhNGINs6ZOW7FbdLLrnk+uuv7/Kvf/2rIS6zh77A9r//9/92q+YuJgx2ywQU02oZlJMraOhIFablJZTmIzxMbpdddnFuiJfA5Na2Si8ECoFCoBAYKwJ8u0OuJrDgggtOnTo1pEovGs0ygZi1XDWsNVZ425e+mFb7sO20ZLZn1IrJvfTSS9ddd51eTmzSvvBmD9UG2XIeysk6XcUqrxAoBAqBQmACCBivktvwFffOmTu23nprHKvhXlboagVcZtxrAkVV1pYhUEyrZVBOrqCQqvRsbO5wzz33sMBMF9oafokllojtpZJJPLkVrtILgUKgECgExoQAl86xN1l4dRzLZ9ZWX311vCoO37duM8M4NGWTpQKTgkAxrUmBvfWFhjxlHMuA1gsvvMAIXTrbGl55Ge6KZba++JJYCBQChUAh0GYEuPTwJyNbDZGyUeJmm21mrjBrcC3Vuvfee5u7ba5RiR8VAsW0RgVT9ydCoRz4llFlW8OrMKtzTJkyxYdIWZ2wu9K4hXV1/xNVDQuBQqAQKATmQADZSkwcvjDHnu60AFdvha4mQDjLRebIXpeTgkAxrUmBvS2FhkgZzbrhhhvwKiaHda255pqrrbaa8tx1TkfH3bbUoIQWAoVAIVAItA2BsKtMUKBcPHmWve+44442TUxHGsH6/e9/L028fdvqUoLHgEC1uGMAqzuTsq4YmOoxreuvv/6JJ55Iv4fJeeswHEsak/fp5TTpu/OJqlaFQCFQCBQCcyMQZ869JyBBXLottWwWz7HjXs433XTTn/70p/j5xts3AT3wuSVXTFsRKKbVVng7JzwjWCzwkksu0ZthSzayY3U+dxibFHaXsdWrv537V6qkQqAQKATajwD3jmlhXRnHmjFjRl4/H7bkvL047K2KbBMCxbTaBOwkiGU/Zui9eMLYGB5GtdJKK22wwQaq0vSEUi13J6F+VWQhUAgUAoVAGxDg4U0g/p//83/IFtbZ9o2QlBPnn3AzrNWGKpTIeSFQLe680Omhe5kuvPvuux9++GHV1rlhbLaGX2SRRQRibDGzjDb30KNVVQuBQqAQKATmgQAnb6+HFVdcUUMg7Hzttdf6Jhufr+Mdz59WwKVjHqLqVjsQKKbVDlQnR6YZw1iX4i3JMnCVvYNDwlhX+jruMsXJqWKVWggUAoVAIdBqBLj3hRZayNaJfHvY1f2zj5Qzi1vNZleaAO2Co9Xll7z5IFCIzwegXrnNusweWqSFb8WWfKXBJiuhWbU2q1f+x6pnIVAIFAJjRcBMhSYgez3w+cK+FHLFFVeEWiVG5FjFVvpWIVBMq1VITrIcXZZnnnnmmmuuST2Yls+OWqflkoG5m35MTM55kqtbxRcChUAhUAi0CIHMV2y44YbLL788Vx8/f8EFF/jsdEqQQEPQHC0qtsSMFoFiWqNFqvvT2d/h0UcfTefGyJb+TfOOSQIiY2/d/yxVw0KgECgECoFRIpC+9CqrrLL22mvHz8voU9O2VxxKtvj/HKMUW8lahUAxrVYh2Tk5+aYVc9JBUWrTTTF16DLz9F5C8dlRRiWmMa3wrZqk79xfVSUVAoVAIdB+BDh5np9v32abbZSWpuHpp5+2i7W2wOqRxu3XIt32/xvDlFBMaxhQujwqc395hTBdGVaEeF1++eVuJX7llVf2EZ4uf5CqXiFQCBQChUBLENCRRrC23XbbZq8Hl1mqlSYjHe+GcrWk0BIySgSKaY0SqG5JxniYjX5JM16lZiK9aHLbbbeJRLnYkl3sfJyhFsJ3y99W9SgECoFCoJ0IaAWIN3vo82sZ33K2VMteDxnxcjdp2lmLkj08AsW0hsela2MNYqVuCYRvsZ/LLrvMrGKoFSrmIzzCZVdd+z9WxQqBQqAQaCECWgQOf4EFFtDN1gTE+d9111133HGHUjJpKI2jhYWWqFEiUExrlEB1V7KMAIdmsRwBi7RiWmYPbaziIzxqnJnE7qp61aYQKAQKgUKgpQhoAjLXYQ7RUi0TiNoF/t9y+CuvvFJRaSycE2hp4SVs/ggU05o/Rl2Vopk6DNkycMVynnrqqRtvvBHTEsnA1ltvvWWWWYaZlVF11X9XlSkECoFCoB0INN1swjfddFOfBhHI8JWlWqY7MDCXGghHErejGiVzJASKaY2ETG/Esxl0yjZaTz75ZGrMnHbdddfYVW88Q9WyECgECoFCYGII8PzaArOEr3nNa7wOJZyYm2666cEHH5yY7Mo9UQSKaU0Uwc7nN6zFhBxoVuYHMa1Mw+uv/MM//IM+DTNzJLLzNawSC4FCoBAoBDqJAOdv7Irb1yj42rTWwRyiyMcee2z69Onpk6fh6GStqqwgUEyrxzSBwagx+3GezaZm7fz729/+FqkKtdKhsVNwszS+xx6vqlsIFAKFQCEwRgQ4fzQr1EqLYK8HfEujgFqR9Ktf/UoCYQ2HI43IGEuo5BNCoJjWhODrfGYGw06aromAzR0eeeQRA11My603vOENvnhY5tT5v6ZKLAQKgUJgUhDQEGR+QxOgjVhxxRVt9yDSpbbABOLzzz+vjcgL6WImpZKDXGgh3nv/PkPKESvyaslzzz2n++LSw+y8885Mji1J03vPVjUuBAqBQqAQGCMCaQtCrdCpJZdccquttkqLoC249dZb77nnHiLTcIxRdiVvAQLFtFoAYidFsCXFMRj2E0OyNXxIFbK1+OKLb7TRRgJJk0Anq1dlFQKFQCFQCHQYAeNVSmz4lrCvsYnUNGgy/uM//uPqq68WmWRpRDpcwwEvrphWTyoAU4kJeeXw2muvZWBMyHn99df3LfcQr558sKp0IVAIFAKFwLgQyLRg6NQmm2yy3HLLpTcu5tJLL02Y4CYwrkIq03gQKKY1HtQmPU8zamUbLYu01CfdFHvWefcww13SxOQmvbZVgUKgECgECoH2IRDylD42/8/5v/rVr7ZUS4m51FI88cQT4qWsrnj7/oiRJBfTGgmZLo3PUFb6Lmzm4osvxrFCrRZeeGGvnAw1uS59hqpWIVAIFAKFQEsR4PmHHt5D3GGHHZQg0tnu1plAdJnmo6WFl7D5IFBMaz4AddvtdEcyV+i1XlOHqaGYZZdd1uwh4uUQGfrVbfWv+hQChUAhUAi0FgHtQmiWQA7ydbxtYZ3JDY2CxkIz4W5riy5po0GgmNZoUOquNOmjsJ/777//D3/4QyzHpbcOF110UZc41n/+539KVkbVXf9c1aYQKAQKgTYgkJGqpnfN8+uHr7XWWq997WuVhmbhWJZqWRofQpZzGypSIodHoJjW8Lh0eSzLYVS///3vvdArEEPyBQZhh8o3gS5/kKpeIVAIFAKFQEsQaPgT/2+vHxOIm222mTOahXjdeeedt9xyi4KqB94StMckpJjWmODqisTMJkzrwgsvZFrCqrXEEktYDt/UL3zL3SamAoVAIVAIFAJ9icDc5Clka6eddsKx0l4Y0LIlkHgTIH0JQjc/VDGtbv53hqlbyBO7sr+D/egExDAer5msssoqwqzIOYY3t/kNI7GiCoFCoBAoBHofAQ5/Dp9vVy2d8DyZUa5LLrlEeI40vf/cPfAExbR64E8aWkUsyoFaXX/99d7a1VlhNmLymomUwjGkjHUNzVvhQqAQKAQKgT5GgPN3zGokZh+21LJZfKZBLDXxWZ7HH39c89HHCHTnoxXi3fm/jFgrRhJbMg7McpJOZ2Xq1KlGs9xqrKiY1ogg1o1CoBAoBPoIAd5+boevOfCI3kD0ghSy5dJ323y9rY+eu2cepZhWz/xVqaiOikAMJpRLjBdM1lxzzdhVw7Ry2WOPV9UtBAqBQqAQGCMC8fZpHYZmFb/lllsuuOCCWZvlPG3atKEJKtwZBIppdQbnlpViHIs5PfrooxZpCcTAfOtwkUUWwbEyyhV704mZ2/BaVo8SVAgUAoVAIdAdCGgIMt2R6vD8jfNfd911V1999SbexkAvvPBCd9R6gGpRTKtn/uwYTwaBjQB7kSRVZ2BeMHGWIOwq9MvdJtAzD1kVLQQKgUKgEJgYApoDBxkGsRZYYAHDWsKJsdeDjRhdDm0dmhGviRVbuUdEoJjWiNB05w10ilVYpCVgeZa5+YUWWmjo/g7dWe2qVSFQCBQChUCHEdD31l5oIOyqpbHArmbOnOkNxNAsMc1iXwGJO1y9wSmumFaP/dcsxNivPUsFYiT2plt66aV77DGquoVAIVAIFALtRwCdMqa11FJLNZMeNmIUqWSNiO66QIa72l+XwS2hmFaP/fdMwkcVfC40tsFOMK1YS54knZUee6qqbiFQCBQChUCrEcjUx5QpU9ZZZ53I1nDcfvvtjz32mEt3nTPWpRHJZaurUPJmIVBMq8f0gFVk9zljwmzDeK/9HZwRrBw99jxV3UKgECgECoH2IBAW5TvTO+64oxJwKceMGTNsx+hSI+JSIENc7alCSZ2FQDGtHtODl19+2e5zLES9mYeN6d7whjf43kKPPUZVtxAoBAqBQqD9CIRs2b/UUq3wKufsqqWLbgmKUS4xSdb+6gxoCcW0euyPf/DBB2+++WaVzmDvLrvskg+I9thjVHULgUKgECgEOoIAFmXPxde//vUCeBWC5Z2qZ599NmE0S4xbHanLgBZSTKvH/nhTh0awWIi+iOnC7bbbLnbSY49R1S0ECoFCoBBoMwJaB42FORBfP9x4442VhlG51F1/4IEHMqBlB3nxyJbEba7O4IovptXt/32m0hkDXsVIvHXIclTaJePZZJNNXMZUuv1Jqn6FQCFQCBQCHURAM6E067SQKtsuhk6ZD9GU6LRrO9JRd5YyiTtYuwEqqphWl/7ZTfeCbcRU2IaVjLfccotLJiGBPsoyyyzjkuV06WNUtQqBQqAQKAQmCYGh5GmLLbaw+eIrXvEKrEt1rrrqqkyMNFOHWf47STXt82KLafXAH4xjqSVq5UMK1mmFZokxdfjKV76SeQw1px54nqpiIVAIFAKFQPsR0DRkVkRvfPnll8/rUyIdmJaue9hV08S0v0YDWkIxrS7941lCU7OMb+l5XHzxxeJdOnAsZiONcOykSV+BQqAQKAQKgUIg7UXolBGs3XffXWNh0lD8M888c+ONN6b5yIqUnAu0diBQTKsdqLZMJquIYbAHHzq87LLLmpHeVVdd1WZ04nVWhtKylpVdggqBQqAQKAR6HAENhAPZ0nZsuummiy22mDbFM2k1LrroIreEs2Cr2pH2/dXFtNqH7UQlY1ERkS7IPffcc99996V3In6jjTZiM0lTFjJRrCt/IVAIFAJ9h4AGIm0EdqWZWH311VdaaaXZcbMaF3s9/PnPf26GspKy7zDoigcqptUVf8OwlaD36Wrkro/wvPTSSyIZzBx7/g6bvSILgUKgECgEBhkB7UVGsAxomT1cZJFFtt566wDi1vTp07M7o7DI6rG3T1WKabUP24lKjoU0pnLttdfGHshdYIEF7PkrwH4mWkzlLwQKgUKgEOhHBJAnbcRf//pXnXYBUyK77rqrBxXvmDlzZr44omVxiOlHDLrimYppdcXfMHcl6L0Z9JwZgJdE7KTFVDLKZRut7O8gYwjZ3BIqphAoBAqBQmCQEdB2aET+4R/+ISC43GCDDZZeemmRJka0Juedd14Y2ND5k0FGrE3PXkyrTcBOVGy6F+whgq655prnnntOj0SMW1tuuaWP8IRjsZBm8dZES638hUAhUAgUAv2CgDYizUQaDo3FoosuqqPu+XxrxK27777bZvFYl5g0Ov3y6N31HMW0uuv/mKM2DdPykgjDYAlidFB22GEH4RCsMo85QKvLQqAQKAQKAQigVmkgNBwOMQsuuOCOO+4YcNx9/PHHTSCmNUmCwq0dCBTTageqLZAZpZ/dIfkvr4dcf/31sRkmscoqq/hWqDKM+iaZWy0oskQUAoVAIVAI9BcCYVppSrI7/Oabb25KxFO6Jd6EibDWJCn76+m75Wmqhe6Wf2KOejQUivbb3MEWDzEVybbddltfPBRAsJKsLGQO9OqyECgECoFCQAOh4YCDNiJ9dWF7Pay22mrNpW0aX3jhBfESN0dB11oEimm1Fs9WSmMh6WdcffXVL774ItFsw+EjPMJZs9XK8kpWIVAIFAKFQH8hgGPhT2lKNB8ezkaMvi8SBuby9ttvT09+6HpfWfoLhkl+mmJak/wHjFQ884gl/OUvf/ERHskYCWtZdtll7VlaPY+RcKv4QqAQKAQKgSCQoayhaGhWNCVTp071bnsmE3195JJLLhGZ/eKHJq5wqxAoptUqJFssh4WQyBK8cmiRFo7l8j//8z8N/Fqn5S6rYBsC1floMfQlrhAoBAqBvkAgffJ02p21Fw5Pts0220yZMkXYgi1nTEvjUk1J+/7zYlrtw3aiknEpqu/FkKeeeooxpC/yxje+kVzxMR7h3JpoYZW/ECgECoFCoL8Q0Do40lEXCJdyftWrXuUbiAJmDMX71PSTTz7ZJBBwBIlk6S9UJuFpimlNAuijKRKRMqBlmxO9Dbou/IpXvEL/g3nEbAxoic+thnWNRnKlKQQKgUKgEBhkBHTjfZbHhkGYlqbE6+2+QWJYC8HSpoh0pFkRU+3LxFWlmNbEMWyLBOrOGF5++WWfO6To2BUzMG+47rrrKs9dZ/GMRCDcqy31KKGFQCFQCBQC/YWAFsSbVdk7XlhPXpdexx6v0qZoUIa2KcW0Jv7nF9OaOIZtkZDBWxv4PvTQQwqg/ToZXhhZeOGFQ7NExgAQsiRuSz1KaCFQCBQChUDvIzC0mRBec801V155ZexKy+LyiiuuMLLlKZv2RThNzNCMvQ/D5DxBMa3JwX2+paJWNoW3pxztp+gGtGTxwoiwI8YgTQJDbWO+kitBIVAIFAKFwAAikObD2bPbLH6rrbZCszKCZdfGO+64A7XS1ogMOFoWh4ZmALFq7SMXgq3Fs2XS6LdVWc3UIWPIJihR+liCSIYhZctKLUGFQCFQCBQC/Y6AFkTb4atuGbUKwbJxo/bFKJc2RYzw0DnEfoekvc9XTKu9+I5bOl33MogxLbou7Owb7CuuuGJjAwKEM4Z0U8ZdUGUsBAqBQqAQGCgENCjaDp+a1qaEdXn85uu6VqQMFBodeNhiWh0AeTxFMIPrrrvuiSeeoPQswUyiBYwi0wURiWmJzziwwHjKqDyFQCFQCBQCg4dAeuzLLbecDny66zD4wx/+YEehrFTR0KStkTKtzOCB1MonLqbVSjTHJ8t7HzJmjEq4oU16GOL/+te/sgQziV7KlSZWEe1vhnabwPgqULkKgUKgECgEBgeBzIRoOHTgMSqX2hS7ZN9www0i0xhpawYHkHY/aUHZboTnLz88KbruHEX3hYSrrrpK2Iu4LMEHQX2Ex935i6sUhUAhUAgUAoXAyAiEXTlvueWWdmrUsuBVCJavTaczn7kUAsK6RpZUd0aFQDGtUcHUvkT0uOFPwmFdDOCuu+668847BTKWa0BrkUUWKaVv3x9RkguBQqAQGBAENCUOpOp1r3vda1/7WhMpqJUZlWnTpnnb3a0Gh6Z5amIqMA4EimmNA7TWZ8GoHNFp6s4Afve739F+Gi+eDey0007iywBaD31JLAQKgUJgwBDQpdegeGhzJrrxArmcPn367bff7lK7k26/VmlouzNgOLXscYtptQzK8Qmix+FYtDkK7SwyH+Gh68KLL774xhtvLJBxXQHH+IqrXIVAIVAIFAKFQAax7Omw7bbbZo2KmJkzZ/7+97/XvoR4OQtroQquCSJQTGuCALYg+yzeNPvAsTKKa38Hr4HQb9RKpNdDll566fQwWlBeiSgECoFCoBAYbATSw4eBvR505hswrrzySo0O1iVGwLmangaccQeKaY0butZkpMpYFlkN2RLwYYQZM2aIRLxc7rzzzt49lNLRmlJLSiFQCBQChcCgIoBmaU1QKIEVVljBd94gkRGsW2655d57700nP3xrUEFq5XMX02olmuOWFUZFuSPBhqVihJnBQgstZOow84Yux11EZSwECoFCoBAoBCCgA49Fed1KAN/aZZddRGplHI899pilWhogVMxd2wylMSrcJoJAMa2JoNeyvBmeRaRov01KvQAS0RTdHr4bbrhhcayWYV2CCoFCoBAoBP7X/wrTgoQmZoEFFhDQ4jhfeOGFzYyhJVzoV6E1QQQKwQkCONHs0Wy9B1zK2XHbbbc9+uij4rEul/Y7iQ0IN9o/0VIrfyFQCBQChcCgIqB9MVj1yle+UrOi6VljjTVWX3117UsWwtu/9JlnnoENKlad/JboSDGtlsA4ISF0XX79BtrvsCDRXr2NfhvXzWS5WxMqpjIXAoVAIVAIFAKzEfDWYdO9X3jhhadOndpMJt5xxx2Was1ujv77VJhNEIFiWhMEcKLZ0azocgRRfcvhQ6qEp0yZYmv4rOKSoKFfEy218hcChUAhUAgMMAL69laqODs0MTvuuGPCmiTxV199NWx08jVGGQsYYKha8OjFtFoA4kRERImz5FD48ccf92FpAtPhWHfddX0EtKFipfETgbryFgKFQCFQCAQBdMp3eBI2b6itWf7/z959B9tWVG2jv7fqlgkFyUHCOSKgCKIoAopKkFcRREDFgAgGRMWMEQMiRhQREyqCAXMOr5hAPjEhIAgCks5BRHJWMVV9Vfd3zoPtcp+d91p7rzD6j7l69ewe3f3M0XM8Hef667NEsTLWCjd/zFPhNhcEimnNBb0upG3DV2TpUpx99tnIFl3P8JXTe1Eu4QmpdVpdQLxEFAKFQCEw8giEUTUWZf5kq622gkqszDnnnONYx5AtBmjk0ZorAIXgXBGcY/qMzVLucKkf/ehHOBbNpuI+dLjTTjuR7xY3x4wqeSFQCBQChUAhAAFWxqZCViYsyl9HNu6yyy7+JuSmm24ygcjPQiWkcJsLAsW05oJe19JSZZs+bAY544wzwr1MkJs3dDq8PHKgXEa/upZlCSoECoFCoBAYSQRCnnTgY1b8RbZ07Hmsi9fzR8LCtJZ386ufP1ctKaY1VwQnSk9xMxDlyi8awhRPS5JbdD3Kfemll/7+9793N8RLD8OWEH9Fo/eijUne5JSnECgECoFCoBCYPgLMSg4SyskO2NXixYu33HLLhJPjA4h///vf2R0hHOsTx9+ZS7NrLVy0zgjlh0Axre6rAc3jsKVwI2rHLxtqHQ/axAmnmkKyt5bnpz/96T/+8Q+BElqraJGWaO4a15V22dOq+fLuP66SWAgUAoXAyCHAuMTW4FiMEaOjY2+rO4/ZFbZGz9+64Rgp6AgXyPHEeAl0N3aNJ3+bvRs5QCetcDGtSeGZ+U3qS/M4SfnpJT3mp3+cEE4It1xpl00a5i/ltkgrCQX6CM+jH/1ot6SlxJzAmRenUhQChUAhUAgUAmMRiHERyhLFxPD7xi4bhEvxG9ByuCM/m+XKRYTI7S+Pv0xbQngSp65jECimNQaQOf2lc9SXXmJFdI4GEyewjVq52wJFE4daRzuvvfba888/P0os0AqtddZZxy17D6PiEkoyp/JV4kKgECgECoGRRyDkCQyxPgxTONNjHvOYVVdd1V+WiBkyzRKT5Mo10xaTFBRzy5WoGDj2buQBHgtAMa2xiMz6P1VLWpQo3QKaJ5BS0r/4RfCXPwNUYV3Rch/1vP7669MA3HU0vGhxUWWRxZx18SphIVAIFAKFQCEAgZieECZWRkisjLMett9+ewaICXP1WZ6rrrrK3ZgtV+HMkFvolCQMFlHC46x+ccvoQIE8BoFlk1zl5o4AnSMkV8oX8hQVTPgdd9zh+wa+aWjN+xVXXIFU/e1vfxOTUt7nPvdZd911L774YhpPXwkxdWgbCH90OryNBidk7qUtCYVAIVAIFAIjiwBTkrozUuwO48LW8PPstdde3/72t5khf2+55Za3ve1tK6200tKlS/n/+te/MliWczFY97///e93v/ttvvnmm266ab6fSKYlxaQhYUW2xqhWMa0xgMz1L21DjFAojto5h/f000+nuKeeeqrOAU2VQWNg4vgb/kTFJaTfrs53WG211ahsmoHAiOWZa/kqfSFQCBQChcBoI8DcsC9hVzEu8AhDWn311XX1mSrWR+CnP/3p2Cl+MV07zRCO5XD5HXfccc8999x6663b5i3RynUiUEyrE40Z+MN+OhNE/1yxK4fCWU74hS984bjjjvvNb35DU3F8yr3BBhvQyw033HCttdbCpSi64darr756yZIll1xyiWsE2vTxhCc8Yf/993/mM5+50UYbaRKR2Zld+QuBQqAQKAQKgVkgkF69hIyLK0tkS5a1wh/+8Ie/8Y1vmIERgcEymrV48WIDV2yWiUW8isFCwm6++eaLlrsbbrjhzDPPdAzkBz/4QdOOBx988D777NOGEmZRsGFNUkxrlk8Wu8d+KCgX1oVOCeSQKh+NOvzww3/1q1+5RWW32WYbezp8whPrv/vd7x5FdEta2YdIuSJYEv74xz/2kWnE681vfrP+xKGHHnrQQQcRKybVlyRdDdnxSCXENYGzrEwlKwQKgUKgEBhGBGId2ItmqmKw1LWZD0tZPvCBD3zsYx/705/+JPze97432rT33nvvsMMOJgrZLINVwjsTGkpAztAs0zUnn3yy6UUezhjBW9/6ViZPZI5hYrYYQeYyQoYR42nUKXDM+upRGXL0ZUpZffGLX2xyhDf/UHoobqsXBLj8xfFf+tKXGn0FiDOxEPzvfe97egD0TASwxMMfCZ3hEfLnP/9ZF+EFL3jBGmusQQgdfeITn4iE5aitCGnJJWkCBZYrBIYPgbxMXLfbbrt0ObSLbbfdVk3breGrddWoEJg7AqwDG8HWtJbCw3VaH+tbbDlMy7Jo+PWvf731xM2iiZxiJFXnXxQqt3y650tf+lKOJWL1jIRZ3YW9uUsOl1QJmXul5keCKSmYAKTZ6Lnke+eOg1mLgCAcR5BpQUzdw35obRT3t7/9ra5AFgPqDTgfS3hTTf6mc3S0PT/hUdmAGckCHfrwtKc9Lf0Ac4jf+ta33IoE+YocCUJEnvUTrISFQJ8jkBbkWkyrz59UFa+fEWBlmqVIm2JHTJsgRrouZgZf9rKX2bbV+FDijKmRQELarfwVh3BDXF/96lc322wz0rjdd9/9j3/8o1uxUK5jRPX53+4yrTrlIVoxm6vhU+ux0J3M4jl6ZN999zVjSOdM/BnK2nnnnd0y502lZMBvgApN9pc/hCx/6asI8bfID3zgAz//+c9rCWj1lVdeadnWpz71KRLElFZkQkROiMByhUAhUAgUAoVAJwIxLkIwJCaDh9VgPng+9KEPHXLIISzUJpts8uUvf9kEou2E5grF5DptU6ySJElIZhMrBMfK1ORTnvIUI2RmdWTEAu6xxx6WwWTFi/iIHQmj6Yppzf65Z2tr6I5zR5797Geb4zP4dNJJJxk7XXnllWkYHpaZRPQrw1Hyo5ocjxBX0bAliki5Q8VSpkh+6lOf+t3vfveRj3zkX/7yFxr8yU9+Utplar58hRaxIqf9JFVdC4FCoBAoBAoBCGBILEV4UqZHmKRYH0bqNa95DZpldYoJE6zIaBaDInK4keRixgx1yhEiglsJ5PFXLvr/LJrNXscsd05AtWj+yU9+smGClMTE4sg+lGJas3z0IUm0FjdyRJYBJyOlOgSmq/fbb78QoIgWky6KxoUSYVQCo5r8PFFoVwL1DyR3FUd8qXz1U4fDNlqtwgL5r3zlKxElWgbG0pBmWZNKVggUAoVAITCMCLTeO4/6MRnhW8cee+w73/lOftvb2Sy7Cw04mUYMhRKTTRE5TlqWiEt4cGKtOPFjwsQUgT3K+JahMrNvlhpfeOGFsrC/3vxPypDko3YtpjXLJ06l6Bbtue666573vOc5oMEJDlT24Q9/OImYkLlFHqosJv7ET3ejarQzDAnH4qegPNFUAjka7EoIj4SuJhCPP/54x5laL//KV77SHKVwaSO2mBYcyhUChUAhUAh0IsCy5G9sRAyKcxze+MY3sjiPf/zjTzzxRJMzooVIicBIcf4yQM1FiLvcGPlCmDku4ZLwsE2En3DCCaussko2eBkwG5O2U87Q+4tpzfIRU1wqRXuMwdIkxMgktw+hU9BoqtnuiKbEeFV0l/7xROnF5BKHJwrqlvj8egZuUc2E8BuVdTrXokWLcLuXvOQlt956q7s4nAhNTqTVtRAoBAqBQqAQCAFCqmJfmAxzLyZGTI9YB2zhbyIIZ6SYHo6R4kDHH1Plymy1v52oSuhvjFRMW9LKUfxdd931qKOOcvcHP/jB0UcfPcp2qphWp9qM46cxQukQ125TnWiYs6+syhJuZ6wDHaJwblEp/sTnFxL9E8KTtE1apydphWRki0dIBsAI9N0DM+Bmu21ytJiRKiveKKtvJ3TlLwQKgUKgEBiDQLNWPNwRRxxh4ZR5vU984hPOzWJBmDZWhpOw05rEcgl0i9lqfzvlu5Vw107TlviuBxxwwPOf/3ymisFyiLcCSJ5JHoERlcBOscPnL6Y1xTPVFaAHUTVRKWX+0hJH5b7jHe8wS+hbBJYWCuHE5KYQOofbVi8eeOCByvDRj37UekMDv9HaOYispIVAIVAIFALDiQAuhfGEzfz85z+35Fc98a0tttii0SN3GS9/uwUBI5hRAEMGDvG2gtlnE2Wa7YcG0pKda7dy7HM5XUO2z+s5l+K10SzqGP5OGg+VPffccw04GdDKkSRd1NSJCqzNHHbYYQa3fKPaBxCiqaOjrxPBUuGFQCFQCBQCYxBgvDIlkoErq+DNGzpi1BYuNksvPTaLaYsbk3zWf5mkDFLgW47bfPvb3y7k+9//PqoXmbLjyXXWuQxQwmJaUzwsqkAXubAZVJ2H1t52222IDjV60pOe9LjHPc4RDOIsG87qcFOIntVt67esjrezQ2oLG51Wkgn4WQmrRIVAIVAIFAJDi4CeubrFiv3whz/8P//n/xhkevGLX+zsIVas0R3Gq417dQULAsmRBbGupmIe9ahHMZemLJkwNlQEuSdTNrMrmfazkGJaUzwdShClEY+fckQ/fvnLXzrDndY6V1fIve51r1CxKcTN+bYcdUrsm/XJT/sQnYOieK2EcxZfAgqBQqAQKASGBwGGiYVSH0uKecyH7LbbbjzMGWsiPHd5umhHyMSrECm5uJou9H05V0vjL7jggmTk1vCgPFVNimlNgVD4E72JcoSkS/P1r3/d9WEPe5j9huJwTV+nkDi32wpg1NdKRqfxOnDra1/7Wj6eMDeplboQKAQKgUJg2BBAd1gu5unGG280c8dkHHTQQcYFBHJslls8qt1d+0VaRrN4LGU28YLemY2xuNnZ8bKT77BhPWl9imlNCs+/d7riN+JFe3ics2AYloI6MsQseIZAo69TiJvz7eSlJLK2HP7iiy+2oWPOUktAIVAIFAKFwLAh0KySIxiz5dBal7b1Dw9jSsTJSAF/t+pPpiErdtPVgUcyWm211R772MeiXIa1zMa0AS2eUWBdxbSmUC2aQRU48aI3rr6649BbHIvquBVl5Qkhm0LinG/LRam23nprGzoMaPneYoo3Z8EloBAoBAqBQmB4EAiL0j93IBGD9YAHPMAJ22bx1NCtDBPwZ2Sru3YEuzI7idWxjwyWv3vvvber0YEbbrhB7vNjLvvkWRbTmuJBUEGOpkY1jb7y23JoWd+iRYt8xKARLPqUaFNInO1tGXFS5+qrUj4LSl9Ne3exLzLb0lW6QmBOCGhl7c3LH1maG92m8F7QrtFzHg1NSKJpiWkRSRI51SLm9DAq8XAhoGWdd955WtO2226L9KicBtLZRhLY3UqnVWJ1aaey22qrrRwZf/vtt/tEj7zCAlOY7mbdh9KKaU3xUKgLhWjaoBNAY4xpCd9ss83yHQN+jj5FpaaQOOfbUVBXh/wSZkzYGvk5Sy0BhcACIKA1MQOu9JlLCbSjhGtuWpYILIEQ/jRAnsQXU785hCxpEy6Cv/PTHhcAtcqyEJgeAmlKN910kxUvGoXl8FqQXsr0Unczlt4Rc7nxxhsr0mWXXZa+U9ppT0coulmHOcgqpjUt8PLKbq9vTEuy+9///s0A+OvuPLzZY2+SkaPn/PV1hWJa03qKFan/EMCi8p5to1Z0W7PSmoSjUIpMyQUKwaJMRrgrMr+0wl0Zj0QzviVJ2qlwCfuvxlWiQmD+ENAEtBSzdc5f1KDYLHnHfPS0EPJNM5RLPIrhaInFixcLMYE4am2zmNYU+hYtyYs+flfH3UrmQ4TCqS+lyas/NmMKid24zdgQs84668jaUV45eLcbgktGITCvCESTtanmkX2+zp4VHv7iTF7TKBSPJpa2JkTrw7HSAEUjxPhWBr2kFWHe2uO8QlaZFQLTRkCj4Oz4ywZAJkPzSc9k2jJmGVG+zBOnJUaENm72UDjml3bq7iylD1qyZQa73JQIUA5xohb8xpD47ZVNCE2iviIk2pTS5hJBFgxMdFcXgSj9eHZlLjIrbSGwUAiEPLnSai9iV23KZiVXKzxYiLPOOstXp6wyufzyyy3vECFNQOCee+5preSWW275oAc9yNVLXCpO6+A0STFD4BaqdpVvIbCwCMQksRGamMk7bSQNTTPpacGSb2cu8tUqNW23tGu5u5toudXT8iy48GJa03oEVIQ2iBoPxeX3pWed5mhJOtbRm2lJnFukZJoOPZqVss1NZKUuBBYAgbQgGWf8Ke2LSp955pmOrLMhHMFiJMKf6HniI2HW1Z566qmZK0Sn7nvf+9q+vu+++26zzTZhV1pHJh8XoFaVZSHQTwjEQGhcGoW200mAel3MTpuoGEadXWOz3MrdXHtdkoWVX0xruvjTzmYVMpjkhIUkpjqUWIR4pitxzvHMG8pUy+HmLKwEFAILgECGY6PAmo8S/OhHPzr66KOxKM0Nx9KfMXDlQJOHP/zh6623nn651qerc+utty5ZsmTp0qU+1fCnP/3JGltfpvKBLHzLZxt82U20GtBagCdaWfYfAtqX1mSU10FWNq2zGvNAblouPCBJJyoLXbRNgUIC1TwUZsGfSTGtqR8BA9DUIpPcq6++umQ333wzS0CD07GmLlGpqSXOLYZcwvnsKFE2WssazU1kpS4EFgYBnWyNKBzrjDPOeMc73nHyySdjSN7Cvr7go6I777yzPbZm6tPWlFLk9o7WFry7f/e735122mnGwM455xwfd+Pwrbe85S3bbbfdKLzEF+bJVa6DgED0X//EtJ3+iZPife+Z+ei1qeqU31quZquDBDanmCoDj7acEg59O60V8dNqLmE2ouoc0CHfHGQMsgMx6edZUeiufHXo5bvuuusakp1WNSpSIbBwCOTl65pFja0gGpd1G8cee+zuu++OZnkd+xitz0wZ1jrssMPMBqJZhr7yapaq0Sx++s+EGO563ete5wjfL33pS7vuuqtAA2NWcR1zzDGsS3vpe61nPjHErhWgPIXAsCIQVdeCfMBNu7jqqquaLetpleWl3XFMVYaW+a3KN/ysc2WUWu6hWWKOeSH0tGALJbyY1tTIUwWRcqUuPBaFUA6TF9Gk3PIS77QBU8udVQzaqalwMkX1FADtMyA8K2GVqBCYJwQoqpwy+kt7NZ/YAFdjw+b7Xv3qV9922212oX/605/Gt/Akg7WNYOVlnQ7GRCVGuXwMFEX77Gc/69wgYsl84QtfiMbJRdrWPJtnIlEVXggMBwJpd2uvvbahLK2pc3SgpxXUwGXNSHGtpWNajvXyEnAUpdxzVzTcq6eF6QfhxbSmfgoUQiRv56Y95jVYC4ezOzVUOL8IrlGpqSXOIYbCpPFYJXb22WezQIzT5BZoDrlV0kKgOwjkrRpFpcD0VogG5Zgf9Ag3ks0zn/lMk4D77bdf9pq42wjWlBqu6XGSrLzyys961rN8lpQ0MvG2vfbaSy78hGikchezO7UqKYVAfyMQe2H20AdFlNRHcmPFel3qtFxtjX10TfO3mNIGF63bYfHaoMAp23Wvyzlv8otpTQtquiJeNIbHlnLDSPrKp59+elSZ3kSlpiVuDpGisloLkmejO8/2228ftZ6D1EpaCPQWAa9UPVovWdN5Woq/WpNFG09/+tM1Igps9vDEE0903o9y0OqMZonJr3FFw/2dqJQZURZBLuKsscYaJ510kpX1uss/+clPsK5rrrkmNEsLmkhIhRcCQ4ZA7IVW4Du5qmZLr0aXoYF5qGnsZjo22uYpp5wiZKPlLm05xRsFvjXhm2seHsMAZRGNiVrQG3ugHvzgB9MVu9DdEsKpzvxocAqj124tsDFhi1oGCMkq6mgioGmY3VP3bDP0F4V6znOe87Of/cwo1Mc//vEXvehFlhvmoB28SrRQIld2wlX8hIwLoCThcDxiumomr3rVqz7xiU9YoSKXV77ylbEx8zPLP24hK7AQmGcEYp5k+pjHPMZqLf0N+040kF4XI+QpdCrG0SQMc6mvZVWlY70UQBwRlHCSdt3rcs6b/GJaU0MdZiNeFMJfZmCfffbxyjbZ4WM4XussR4s2tcQ5xGh6+cUvflGD2W233QwDKMkcRFbSQmD+EMg2b6zoFa94hXXr3rxGnlAuLYgaW5uVl6+3sL+0XbjCRe0naWKiaZVpCGFdWqv4BxxwwIc+9CF+OxMPP/xwESJw/ipcORUCC4dAGg5Lsfnmm6M49N9MfQhQrwulocldQ07n6rfLnebv0DsFyKA1EqZtzk95el3fyeUX05ocnzvvrqgKKM7ixYttmv3c5z6X9zuNCZGflsS5RTKg9Ytf/IKV2nvvvWU6CisK5wZYpV5gBLzrvXY5I1s0Fu857rjjNJwXv/jFz3ve84QL9Gr2/hUYP632IpbQX43LXf5JqiGyJCFSXu7arFScCUpL4w2YfeQjH9E/EZ4GO4moulUIDA0CmoD2Rf+NDlB+U3hORel17dIMM5qlAMaqrZh0tUJrp512kntuTd6ie13I+ZRfTGsGaNNXsemNV799qjale7N/9KMftcsp7+6o1wwkzjyqMrBGtq/zbLvttva084yOvs4csErRFwgYZ6K3KYr9R294wxu0oyc84QlHHnmkwHRwhWBI2pTIaVAMQwaMtTh6zj9RZby4tT7RJHHNezxXqd785jebPfH3rW99qwWOk8iZSH6FFwKDiECag6vC23piT64dvtZE9rou2honF62SeXIgkRNY+O0FXmmlldzC/LRx7Z1f0+51eRZcfjGtqR8BA5BIeUHT2mjPS17yEvPNZr7f9a53ZYA0GtNUxxtfwmZgps5phRhNBSlr/K5U9vvf/74cLW1RJE55VkhaAYVA3yGQpuRFf/XVV1s18va3v92uKKX02nVtDY0f3+oMoeHudkZwt9PFlqQhuMaTQE1GLiidZfJXXHHFxz72sdasmoQa5WpQlGf4ENAcWJC11lqLyVC7r371q1Yuak1pCG5F/2fXCmLmGmik8aepurrrauLeF0186cEAM4OoYQpkucRMI23Jh9VTTGuWT5aW0BsMnRIff/zxTlkkKOpFfXnwreg3SjQLsiU5gURJa1GL7Fz9NR7AZvi7yy672L6eCMl3ljWpZIVA7xGgqOiU1+7FF1/8mc98huelL33pQx7ykN7nvKxVWo1rkcoLXvAC2X3yk590El66Q2k+/CF281CYyqIQmE8EKD8nR4SGtj/72c/2OXaLpd70pjehPikJa0L/Te3NohXEzJHMZTiANKJkKkdOFhbYfOc739H8X/Oa1+jziCBQQk4q/pQwhRnWazGtWT5ZWoJIvf71r2ctKK6jF3WXqRonPLSdOaFVGSOdaTZUMEIQtQixKkuIdS2OJHESHb6VkQARZDpT+RW/EJhPBLQX2bk6fOGGG25w9q9eSt6zPS2Gtql1eL9rjNrOxhtvfMstt5xwwglsgNy94vPeVwYRelqSEl4ILAgCVD2tj8Lbh+uDV9TemBbeQ+cFaiOuNqMk2owKSVSEpCmRw95FFGtFlHXwtgALf+xjH7v//vuzVimPEB6pxOGfUaaDGLmY1iyfGuWgl97gPmpLfR1txXJQMqpDw7y+3UW5aCH/LJiQtKFQoW4R4lNu3/3ud/kRO6enuiU7JYm+zrImlawQmBcEqKvOrjPc5XbggQfm46G9zlk3XXvRMDUosye2ImosX/nKV/CtvN9DuRSDp9eFKfmFwDwjQPPlSOc5HlZpjz32cOIJv/6GmXQeTaPd9XdGTsKWXAPntDhWj4f9srTmkEMO0dYWLVr0vve9L2NmyqDptVRphjPKdBAj18tllk+NotAneubgUOu0DDjZ03HwwQfT7NB2CsRFn7zrZ5qNtBibqyxyRensVyeH7pp50REh1i3FkMtM5Vf8QmA+EfB6pa4+TfiHP/zBCi2fjrYJMe/3nhZD0/DSTwP0opevq6+//epXv5K7tiP3eOahMD2taQkvBFZEgP6zFHQ76p1+hc+J+tqVdmEO8Qtf+IIWoXlKOws71VoQwyc522emXqY8hq59reGss84yHvGBD3zAt0zkwsWcpaj8nX9XLP/QhBTTmuWjzOub3vAgWAZICaK11oL4iKZwfyk3NeK3xGoW2VBWKsvdcccd9kzZruX866c+9amGfxE7zSOjvrNoHrMoTCUpBOaCQN7m5iz0H3w02lcWNI3ML8xF7JRpZaEFyUtMTXWLLbbIYLBDFFkdTmA8IiTalDIrQiEwKAjQ7RSVbrNHWexrI5cTfXfYYQdLtRgs64wTR1uYab3IR7bCnySXS9a0+MCixe/6M8wT+U984hPTuJRBktA+ITGUM810EOMX05rlU6NAURrvcSKwH9srqI5lKDbT/vznP0+4EIoV5Rs3JxHGdYRTXFcno1rGeMQRR+g0PPOZz6S1WXTiFr4l7bhiK7AQ6CsEvI4558BpODvvvDO/l+w8dBJ0V7SUvNCTncNZIPPLX/5S59stzl/XNMO+Aq0KUwjMEQFGhJkIE6LkLJGr1mcm/Rvf+Aaypfdu/eJBBx10++23ayDjGqPJA1k6uWhociHcX1vjH/e4xxnAZvuMZjFbaYDhWOJwqVenf4417fPkxbRm+YDwHvpKBXMlxSIqs3sOC/EVTweKvve973VyCd1yK2R/XH2dKPtIth3XiVn/+7//S30dKqEjYubFLX+ju7kKmUhOhRcC/YAAjbWTw9ShtmAboHZBddM6elq8NI1G6eRoCwuroDA+O60VpymJNjov/Z4CXsL7CoFoftNtCh+WQ+HXXHNNiyaf9rSnMWE+Oar/gyHNtPAalOQalNEyVzOGFoEZa3BqnYWYJnmy8UUrSxNzjZORkkie8sw034GLX0xrlo/MbAjtoSVUuemKzgHd8gFNawBN9j3+8Y9HlZxr2uKwLvRMfC6ekLAWIjAqaJ5FG+AMw/qa9bvf/e73v//9+XJc0spdTMVI/FlWo5LNEIFQ2zw1Sb1l2jXPLn/jbzyYJy65SR6PaJGQkCYhdwf6qi6dVfb3sssuMw/uUKv73Oc+3rBR3V7XsRNSfmjb9mj2xICWk7KVAfLtde9uexB5LoqnFp1Cel3gucs3YarM5KTY7drmajvVr1Wt82Glym61mNDI3wjhZ7PdTUZzL3NJ6CkCsS+ySKNjO+i8v8iW3rulL8a9zj33XKsYDW75Xeh09AAAQABJREFUCnWUP4ZGNB4POjoQUfwcf+66Glbw9VJnERvEoiS+C4zGESiau5wcw/MiIYEjdNVm5uI8APD5zjHIfOmiiWpttYWMjsd8X7azpj+hB/+2t72NHjMzQMD9ITYGjay4Eq7T77ShnXbaiepHj+mujbJeakkC2ObGCKm/84NA57NIjjE53imeoKfTAnnysBIigndQnn6euBC3mn9FxUjCAbqqAhdAWrFTTVs6vCU22WST7PsTDRotzrx5dLs322wzxubDH/5we5TjtkpFUvIWZ95KOJeMoCo5rYsnolQhf00VxZMnkmvidCqqkNTaNSt7EqdJ60woTuffzpjl71sEPLI83LyvfvjDH1q/mN67rfRWAxsjYMjSQtvzlYT+JImq8fz5z3/GzCxu0a5D4yQ/9NBDfc1dBJGTdkUt6ltkWsEMmjDBuoUBodW6RZiRZ8Z74kaIhM6qqnRxgw028BXP5zznOUahaPA555xDF+1xfeADH2jmwppcuzDWXXddXArNtyaRUhprPe+880w7XnjhhSY1UDRy7GrUw7Cu0FAWldUM6KsR2lmVqxLNFQHtightL+8jf/MSEZhXjFseKNrEnnlS7vrLueupWSHB42/ap79JLoRfM14W9d/LV+da1oVLD5z0EBQhNW1lodj8Vhk6bset9EPa3d555KVIQVguLIExLeArD8DzmDwg0TS6ND1+t/JAe1ewHklOLVRELWShFtFYOumdI5CHyqWO3j/eLWyJVCJLFUXNM5I2yAQ9cXiixtFe8SO8R3UpsT1CwHP07DxEj1gW//M//8PcmEM0LmUWBc2yimudddZ52MMeZvMKg7V48WIDYCuvvDJVsaLLNx6YqksuuYTNMhEvhBpo2k9+8pNf97rXGdCiXdEo7Sh5yUV2I6stxbS6rMl5wVFf31l79KMfbY+rE3JPPvlkGxJtxDjjjDPcytvKK8wrz19vOleqKS3tNFdoHIvK+oi1N2PeaN5uTHhelCmxJF0ueombGAFPJzd5IO914w3ieQlMvw2ftg3Ce8eD1hc0cJK3mKeMKG+44YbmlB2bSSu80Sy2IyS23BMXk/OeIlb8iUsxAHeiyTRcWVWQ4/EXSmpKjb2sXRue81al5JgyeN1zGpTS8iheip3Gm8eaKqR4UiVw3ko764yaTvKoFI1aXtdla5ZD7gXqCViccNpppzGW1157LatphYNwD0tkBtUchTlWI39Om9x6663dgoa7TSYtFZNM5Qyw4sy6zJVw/hHwKD04z1HD1B69f7yUXv7yl9t9ZbWWD8D/6Ec/ohg33XTTt7/9bdHyaqIDPFEGZeahBtKiVmyWkTAeRs0t+hBVFIfLe0Dk+a9pn+RYTKvLDyLvHde8eryntttuOy8yu65sdzJwpSft7WZW2/tO3rRwteXOse+6DsgZt2jRIrciKuWjvmhWWkVC6rpQCHizyNp7hKleunTpT37yEydhttlhz92D8/Li8VbylDnfUDKuydRZb2eY3Z5nX1J6xCMekfeUq1siS7VQlepWvnmr5pXKTywcOK9aLqw0gVFvt7qV9YzkyN0TVEIeZXBVPNSBR+GXF3bZ6KMI7qY6M5K/gJHzllAXJY+N5FFZITp+hiuYUt8jSoRUUAQFVl9X80Hu2jgmyTvf+c4HPOAB++67ry0+XkqieRHRUmlhEpkCBwufBXw0/ZO1Zx09yaNPwSiDEV9bBU2kGK9Cxw0NXHDBBfiWiRfDn95RnjVLpPe43nrrYeTmHHfccUdXRowQYr3KXIklLSH0hCf6NrKqUkwrOtbNa3SXUnrNUTIKTQu9qgxTMdJYF61lfb2z3NKTEGjPLcX1fk85aKpAcoS4ctTXrZFV024+njnIyuvJY/UgvImMtONYhq88R0/KMMDmy53BAAPvnqz3EUptaN2AvEEvQwhGvJgx08rHHXfcLrvsYguFkUuvJMrgEcfszaGAC580OtypwCkTxFQwtlk1RfPmnR9mqfkoQ66tAEpoEFGgkigPp4QxCXnK/rrFz6VSCw/u9EqQmiqzd4haUFceyxisS9MrsBWAGMbSZ1sZyEwMWYziWQDBe8mILBU9//zzqasjXn/961/rJNhJzfo6MJmS62CQ2fCETzKaXukqVl8gEM13bTofPXdVPsqDYXuPWb5CJW688UY0y3PXZsXXkLUdcy8cCTFVEtIfaamcQDEJ4QQmVTLqi8ovRCGKaXUZdUpG57hYEUrmrZQQOdE8rKt9h4RSUkR3eVhrkdNfFI1euoWuUeu8yKKvXS5uiZsAAQ/FHU8z9/NYXT0OnX486dhjjzVSJRpSZVczwuTTrTp5TZ7HJz7XQmyJQLmMxvukkjEwh3ewfPvss48NEwYMQs1b5MH1wETd82Kl1b7IwRnT/fGPf0yT9TSwT62AkovZiU9Pqyy7yEd8PUFZn3766ZZLmu9gUXDitK+0NYUXQXyphPS0YN0VHuTbG4Nwa0Dtg9YlSEUcG2tHmGlB6opvwV8SlVXT+F05Cam3vTjf+ta3jIGhXx/5yEeMhyFbXHt2eFsIa3drUdJ6jUD0xONjetIFoh5pI5SBUwBqIJBJsvIhGiVQQtfE1Lq1FBISHk8bYpAkbYocge4mgsij6ALrrK9wB3cMTO09DIzUq+EJHP68y/gpX7vFI2ZCDGkkPPEFSpJbSRt/rp0Syt8jBMAe5Jv8hOjiO+4vpgg9Ovroow1TtZg8nmD7Ky2/t0xUoj1Qn/+z4JS1yxtn8eLFvkEm8hA8XzU1OY5BGgXZb7/92HXrfsDlba6yTLvhW0to502fxzwL+Tpswkx9kPfqjyFxap1FKna8W2mHinkWKpK0zdM0oZ89KbNq0kPOGmeD5SrrEViWYP2NIQrldysxO/Fp9ZI8ElwF0nCz3kazAprZIq1AuEEOyQkcV0iTVp4+RMAjy0spz9G1/aUb/nr0LSTP1zX6EE8CxeQZE1M0L70ISRIR4hE4KK67ew+XTazOxUHZgymmNRcMK20fIpC3SV46/IyKQn7nO9/RvWNvmOcDDzzwiiuuEJg406kCOZ0O3zL/aEhMB1HX0J4dokRoLyky83qa3UtKqpaQh+QUkmfMX+HtXdl5q4UrUhOVUuWvVJwhK0s6nE7yile8wqpEpj0DWjHMYaX8IVuO9j3llFOkar2LlKpHVxmlwK7g5YyuKR7MPUSl4klXWzn5jdCYVjPXb+O6IRxDjwbhWtnUOhWHYSTzNNeixZPI7S5P0rqbW4lGTgtP5DFyJvrroYgfaTzhPUSlYGr62te+No/A+9nUYRhkYI+OTSRZuAjkEBK/68UXX/z85z8fVlCyvdounyTvfI6pSErVGZ6YdS0EBgiBYloD9LCqqIOKQGxeM2Cq8fnPf96+OZaG3dIIm3V0K6Zlyqo2mS0+a2Q1jC3WLCLJzlPOkINR/RaH2Cnt4nSyTpyITUlaqtTFNR7hnRESKESp4rcp6eyzzzZeglrtvPPO2CdkYtSZYZQlrCUkJrTG3YTzvOtd70rW4a+tGD3yKHmsfrIzPKMkKW04Fj/WlcAW4i+/etnlbgeDD48aEDL5a+oz/ENpGxfhF8jBR3bhOq06QibyJ767Y+L42xnSkjdPEiZOi+kBJQItokvwx249IGe0KptbcODEn6ZGJZq0TfKXvvQlo5IQs0bHWTZEqWyr9TTFtlqUpxDoWwSKafXto6mCDQ8CjAcX3qNWBmws5WF6nUNrsXDqKUJW/EzTwDBLzTXhDJWtPc76i6X3wdfGP5aV4P/+X6ZxFrASKy8JW448pEVUuxUz2SmfWW05qpckrugFa/2pT33qZS97mS8fGPUBhQKnzGEtrvnrFhvfGSjcakUWGknFaTBL+co0187cu+5vAIZqeKA2IiiePVa2LCiqcrYCZ5RLaYXw44hjKigJ4mVp3Rvf+EYDnBaMN/YZSJU/HvlyLZA/T0QIDyekVVbgin8Fci3ORB4PS1ouSiiJOtKi4H/IIYfknFjJhYsWOaI1/7iSo/nipAyEc4rtr8Et22bJhyFrJHlTmCY2wpN2XPkVWAj0OQLdZVq1Ir5ZhPIUAv9BIFzBkADrYum0j3mxNNtuu63mZwhHoKjiML08sdD/STyBj9n2cslNaS1aYv6ltTz8qKOOYt1dP/nJT6IjZhKzvUuSzpm4CQSPE0x+WEInV2gFSKDC8KSmRLCL/MnOzOYVV1xhfyWzapu33WcW66i1CDGf4merh7/8LGsKIULikGxAyEFijuq15HyrrbZinm0CeN7znuesAYNDNjdJFa6TtL24Kp5yyki9lN/ycJtAVdyGBscIo4+/+MUvLPc2S2gBeGBxlSo1Uhcl9FegEDuwfv/73xuGtMzOLU/fGWmWljvMxSa+TTfd1MypByqmu5LIiJ/H31a7VuVA12I23RCfa/HH9UgrYa480soX43F9z3veY8EZCW9605tstpBcxVXfLTGpnBB/W3bjyqecwglRfgWW1l/ZcZ6mJbkW4f385z/3MVafV7LiUPiyQv97b38iy25c4RVYCIwaAsW0Ru2JV32niwC7xUgjHJZkOZjDYEZoVtKzVbiXK+siJNcpRXdGY+rYMLngcwwVA2kgwUfKfaqcMbNBLAubppQ5boTYPFnE2vEIiWM7E56/kgsxkLZkyRLU6qKLLjIziE84+A3fivCQA6nEZHSV1lUSEiJKUVUEZURDFy9eHPLhowjGsdyCEjnsvWk4EZA25yJiWuAdt/BdDEzJFZhHaX/wgx9YrmSZ0eMe9zjr4h3K4fQg2Qk0JYoC4mFLly4FgnX9apQqi8DTauFv/FJhXTboffrTn1YXxAvTsgnAwKdT0+AQ4iXfSEgxgn/AdxUYVGXBiZn4PJO78KckEROFAjWmjq/7a4H/4YcfLlDFlVY0mpCMInZyGqRUnIScjFJaSZIdAE0j7rnnnuAyzPnNb34T0dQcgBCxLebkVai7hcCIIPCfTvbsKqzhab3eKd6eOjrOXIkc4dN8X8wu30pVCPQaAYpNh6m0T6XaQGe2yJhWy5QdanaLJxa93Z3Sk9GsJORnmUgwFYVgnXLKKUiAhdusV9hezOSUMleMoJCxkbnlL3OY4QpTlsiE+S+77WwlQy8M6pgljClNeZJKIQVySkgCD5muzKr5I1zKWI6zEjBRBNECfx9yyRBIi8kjoeQS+pyt8SQkzAlPDllYsczdDZEvopDyIEb2zTk9GAvxHdxkpGw8qRdWwS8+HIx+4VuYBCJl0Muqf8zSXcioReJHQh49lPyVEYEkCDTYs2jRIkN6jq1C6ezdA05KImbA6fTEn/AgLITHdVyXmPJVJBHERPt22mknpx8ZZMJ+PAjh0bFISBLFE4iWtTKsKL/dEpn8ZCGav0GJHzF1uInZSRsIrNmymUAqMTtzXFFyhRQCA4FABm51lnS2064naYxT10jbmIvzxmEnzHfIScmaqLyJ2t/yFAKDhQCtVuDjjz+eXdHAPvOZz8Q+YSpusSWpToY9EnmmFWxC0lhyNa1mFZTWhHIRLlA0Wc9UeNJKFbGEmPkybGP+zuJuoxGm8wxB5QXB6Ha+KRhLb5ZmXJEGTgQhJgTxKsnf8Y53sOVYCFJCOCcv4CRHmcKkFTso5a+JSPyMtGOOOSapZlq1GcVv1VcG3x6VL2qIWSpMSrW87Hc+TYGpgizaUxaClZopO+mkk9BE31MiAT4Ugwtu8On0A0pIey/zCEErH/nIRx588MG+tG0+GnWTBZccXRsaeegp+USVTeSspooEhd99993RX3yObZCwyeQJ+FJ1ik3CibIQnlQ8ytn8CfdXoMG86MmJJ55IcpxbycjfSYTXrUKgnxHo7jqtOuWhn591lW0hEXD4uxkuphTpYVQUJeaNIWFCYqUSkutMy9pS8XBNIEts2InldsZpbNXsLJZyGml2XqjxG0ukfSzWCQuxi65hBjwZZcEGmkscFUcX7AMwVbTHHnu8+tWvPuGEE+wGMKWotIrUWarlNbiTEQafwBXcgozwkJsDDjiAZEu4Lr/88pmCNtP4Chlg5aUiKmUuuJVcsQlMHFcuVUtgy0vJ+V3ddTWvetppp5mke85znmPxmfFOYjvR4xcCWNUMjIE0f4WHD9kZ4CAGJN53uvDggJOsWzFaGcZ4UhKBSaVUtIXayPpjH/tYYM/VebmiiR8JrS6G6MbIHPM3aAiUhJ8na+ojgUBOFga01NEgpeMw3GrsLdHGyKy/hcCgINBdplWzh94S5UYaAQYjJhAKLEeYB7/jAA477DADMMyqhUeMDTPWWEh3IfP2iUBZsFVWEVmpzYpbz6Q8AuUuQnLn5/g5CflTMEYXCbDWaunSpdZamflySidpbJ46tgIz85IIlJxHuOqLkL+stSFqq6lU2bSXZeNmwYx+YWbJSHyZitwETtOjeJmxssreKZoGinzO9pOf/CRRCkB4ZCpYWGA8QUYFm2fc7JK8XeOJQM9UcvTOoLunaVDNqOHk0sbNYtxA5MP+UzgD3Agfj/Ek87BqpPySpOT+cp5FE9JqpJBgcWiCUpmeNg9rjZdpR1+SSPnVRar4FVtCf5uHXwSS9QdoC81BuQgcg17Ld44e+XIK0+SbsjRWBwcnkCGOqpkipcBzzK6SFwILhUB3Zw/vHP1eqMpUvoXAgiPQaRKaXwf985//PKNiS7+JNpYMQenkKz0qNgMmIxbrCU94ghVU+BZSwpTiWwrjrhLGxb6ahDL2xsZbNMPmWV1kmQ5ukeKJyTCHRfFLTo67RAkXQohRK8vCFi9ezMbjVdZaMfltYrGTekrCkSz5LKof/qQwRgptizMTZ3GPTLOvU2GALA4nznJmssxmy1Ehldx1zCxnZxkk9zd1lFZkclw5f31oMj3Ut7/97WqnUu52Jp+1H3oBENtQVANFpmgNJdrMiOnatunp2E6RwyBSMOjxBHw19VfFrZnz4BwA66+hRxOUHoSBItzLo7HGC0eUJPintKomOWQUQEKOWJsBQ7NEJirxOx/irGuahARGCQHI46psGLOTUVkmQ6cWhylAcpeks8BzzLqSFwKDi0B3XjeDW/8qeSHAGMQmMV2xf67sFjNpka8TiUAUmsWS9QiulIHwGDDzSg5bP+OMM7785S9bGIQexbyJYAHykiVLkDDUytiVJe0GUVpCHpFzZYbViGTVEaKOys/oMsxGUBxP4GwCRMdibRN5qJU6iiZVIseQJ5A/EMVw5ira9B2xwVYF+XPWA9uMcln4b2G1ES/DaXIhk/zUNxlJyAmZPDt8Rd3FlIqHqFTfkOSRRx4prYMJ5BscJhc1i7vEcqoAWA7xUlMjPVbTe0ycQS+PzHCXiUJFDc6eSCorR4+GP6k8U85OSeHWxvkCNIKIeC3/gvmyxfWrrLKKmsrR00Tj9ArkRVWcdpbC5278XdRbxYZtnqYsIKyNmEV11pojM37yk5889alPdTf1iidlqGshMMoIFNMa5adfdb8TAQaDbWC3mDqOhTAF497222/PvBmoSDd9HvBSEgZMAYwTYFq+RW2BlEERc4IWywthz8y7iaCcy2z7cv7E+CWhawy2aystgQwzU43TmBM0RGdDXCYEI0RMHubflSh/yeFHs+IhQaC8/E1k1xk58OJShIdC4QfWOZlGRBmf+9znGnDacccdCQzfkl1yFBKChX9wk+SYZ6TMQUYqHrznpz/9KYJlgs+jdI5GRsXcnVzaJBmNuUVUWIUCwyelVQyOXwEMTXFS5S7+ZADSQzTPaAwSacaQRCYkoniUnDQlzKO0MM6hGxxlIMejRLyw5Gz5NEAo5qmnnuq61157uWaWVkxiXYkVyNNF17RCUfnxP6sAjb86Rh/TUlPhgaWLmZaoQmBwEehyCxxcIKrkI4sAw8CpfiyTq6lDY1pCjLUwGAhHzBWj0hhAj+AiXy4YiUERG4ytuzJ/hAMxtwqW3EVoZVYMJWRcWxV4WFbTT5ZbWfFj1MoJTzymn/AMQjipOiUkJPY44ctjLWNynfXNLSGJP1ME5I46hBQqs3VIRuyspzZ2aIrWNk9EIcNarWzyUiqpYrmFT5S1hJ1jWqIJceaTAx3M3wHBTCU8QSdacplp+ceNr3hKFcWQaTBMTIGKzS88oLmiR9y+++7rlrXqNM0mgxxgZs0+Mo14AYfMEF9C/CVBSMKdVWFUzAkUBpNENjypOiaR4ek72aJlGLKTYAkkYdzyzzRQGZRcRbiWhRydlIbUGrQzc0rxxJGpODOVX/ELgaFEoJjWUD7WqtTMEBhjhwwgWfDEgFkjFdPiSuKYaDPLY6rYsaZiMVHsa05gYkFNF7JYudssdxOGuIRhWLeOSWBUjs00cLVo0SJkK0fYkxaz18rvLwnEutVEudsixOMqZtyye/+mei3J9D0KyR6ToAoy5UG8Fi9e/LnPfe5Zz3oWsoV8+MSNxVvKHL7CkHMqyCmDvFwlHDdTtxohloXszEsaNhNuHtZ2PIAkocc6roTZBQZApZIRl6pFW/wls5N7JVzxIM+vphwQbO0kwcCbuUW6Z82+NV6Guzx6VCwPXZLIJ1MuxJo0VGVxItbglqff8ElgYqYks6vgmFREKcmYQJk6wctjoq74Iqa1YpwxSepvITBSCBTTGqnHXZUdBwF2ImbJvRgq8ztsvEkfdKeZtxZnHBEzDyK2GcXO1MxqMhLBDNGvfvUr0WJrWzS3GFpjGNiV7YGODOVYWcuthCt5s+4x/DF7qUhGlVrIGIuYUslRQn4l4eda1jzCladl0XlrEj9OELLVhrVEJhkpdCSsldROo3BG189//nP7PXfaaSd3ZSEj8XlkmvjxrJhRxCaJ06rsgyNK7ax4s1gbzUpN1WtMlVcUNaOQTmmq468SNvSaKIFxQpYBuhxSV4FC8sTNqHqIZngdV+aWgSszjNbh0Ubcy0yrVfMGsSJTQpQxiiFTOdIBIAvhJzCBiZzs4p/jVb6pY56m7ISA3dI07QVjNiWaieDUrotZz7HklbwQWEAEimktIPiVdR8hwGbEKjBUS5cuZU5YDiZEIMd0iSCw1yWWkQLIiLOaij/GWL52deFShi7wP6vHLLeyMjrjPSKLgGOJr8w8Md4JF+iuWrhmoRIPlxAeWXAiC0k1+RPommgRQqy/slguYGYXRSXctZUnWRgCydJ4I09moLAKo1xO+FR91EF2XAqZUo2bq5jCpT3xxBMtDzfZKqMDDzzwrW99q6E+gCSVkst0XAmzC1SXFE/yVEchuUjL3eU1WFaFFp4yJGHiuObR8HBwNtzlEZv3NDEnoUlDZMsCL7ON1myZPcwm01BYEUROwpQk16hTK0BKNZerjDxEYgO4ioBUvgqPbCmVEpLftGgueVXaQmBoEJjNG3NoKl8VKQQYidghV1Ykq4ktl2FCWI5m/PxtRqsroMXKjhGVwFgpfhREBJ6XvvSlxmbwKmMzRjJSZqV1V8FEcOVXwoTwRJS/XGLydAYuv3PnRXi7FSEt8orhnQln5CcqwseUR32Nzx133HFmoN75zneaOPOBZNxr5513dkbUDjvsoNbhZyoubSpLWv5KbqLN4J/j708++WRL44U7rsIImWV2InOtUvwpc6vXjKqwYuRWF7dWlDnR3RaTJ/7OeqW0itqZ3EJ4K/a4VMGkoRVRFnjhppajGdKjrhHiGplj0F6x8LMLaWBKHs4tR85jEqJUrgnxaDojCy9XCIwmAsW0RvO5V63vRIBJYLrY5hiwjHnk83/WGovEWghkusSZB9Rkh1VYguPKdCkVtmdZN9YlRDGEuCp2yhbPPBSsR1morwoiuMZInvzkJ9sHYP+awS3zULZ/fv/730fCUEzMyTwjEKzrzyiOde5/+MMfcCwxOfsxIcOuGwl78Ytf/JSnPMWYULDqUcnnTWxoU8suOkA5OZjssssumBYMHYrWxjJb5HnzaB0KQBvzIOSbxzFvBaiMCoF+RqCYVj8/nSrbfCDAdDUWxVSzEJbICDRbFwbW+uVjbF4vCicv5MPAFaPFfMrRcIUBDGxDdqEOKUbKPA9F6kU1m8xgG9jVjrXGk57xjGc47vwb3/iGxVsWJ9mA6QSBJAGLKovpb7CCA49DK5zjYNrR/jsHULkb0twy6nPPjJ6jyIlvsRRSTkOoimVeC0i7PZGcdmtdv7LlAfU55lW8QmDeECimNW9QV0b9i0BMFIrDZi+3YssGjfxlMGKw+XnmpwKog+EreYVDKI+/rClP4xkKlr/zU6Te5RLMgy0/p7Js9tOf/nRDXI79xLF8FtDYlX15xrEsV1IYcXALGwIsXLOcztYBQzv8GdSBTBZmISKi9a7wCyiZAnAZ3qO0BgXpBidwoUpFXT2+1kw8BYVxXajyVL6FQP8gME/Go38qXCUpBDoRaMaASYhVYDCMZonjuCM2jKdZrxa5U0J3/WwVexmZiEIYA+sV7tUKkzjzUJ7u1m5FaRBeRq+WEyx+NYK/K6fK1h6ZQt1///3h4HHYecfDielhmR+0eolMfhKaBzhCyBlWmpWahnxHMVS5nam2IsjzEKIARrM8tbSdNCV/45mHAlQWhUA/I1BMq5+fTpVtPhBYZtU7hohYaCdRudrbJfvY9fTUE62nZQq3k7tc7PDHFZguk4nMqjKwW52mS7TE72mReio8hwWkFuANzmhTQtRa7vz4BF5lkZa/eQquormmeGDxpCRPOE+4V08Lv4DCIZPdf84vNVtqZaGDrJyJGgq+IAUzySvftJ0UYwELsyAIVKaFwEQI3Nl7nuh2hRcCw40ACx3LnWryMw+ONfLXGZLsmRDOX7Smk+X0CBY5hmYphi2QBirWXHNN02ShWTJVmMYwBp1mqQ4Kpb5cA5mn1ctdLuCn7u6KjFR5FuFVPBy4XBMuuTi5SjWUDiyhoZiWj/Oou5nWhtv8V1lhqKt8sT3XPM35L0blWAj0JwLFtPrzuVSp5g+BZYZ6Od9aZvCXnyNgxkoIy2HGKuZc+PJYPV90woKyUniDHJ1OJFMzaMa0eCDiFg+D6so/BMM2KhKSpHbxqzizzR8NUE3jXv6GObnLI0nqLpwTJ+H8IVsidAqZP2War5xgElWxpg3TUn3nbM1X5uPkozwG1eCfwyaURyTPZZyoFVQIjB4CxbRG75lXjf8bAeYhtjzWmnmwwhrBMkgQ4yFC2MD8MJuwBHk5HByrsOI780RKrSSt7Pzutr8D7VEXLlVQqYxj5a9w1c9dtzjhIGoef90VwiPQg0tCQprMhAzTNRDRWB4HW6gaXm4dG+1V61AcV7zTrfztVvVJk29kajg8nANL7VrwpFKYZDo/7aVb9So5hUDvECim1TtsS/IAIJApmJjtmCjXRYsWmQRhpRyGyZaw4kwLl2g9rZXsyGc+mS5OGXx7cYgZQ0/BHGLhtFHtopCPecxjaMi5557r7Hi66uxWtzKkh3emF9EtKOQrL7lgV5QTtTLBLeQnP/mJv84i8Q0DWSsYmtVYb7dyLzmFwIAiUExrQB9cFbs7CLSxEOLCqHjWWWcd32nmcZ4T08JmxLR0J8tJpTBR4VWnnHIKG4nz7bTTTjU2MClmo3gzHAu5oZ8Ojr/f/e5nQIu6wiJfEUDWkSF3kSHXbmGkIciUNMLTKGTn20c/+MEP/HXwrPNUkxc17mK+3Sp/ySkEFgSBYloLAntl2i8IxGKlNKE4MSRPfepT9citfTnrrLNCdBiSeSi08hiTsGHeUenGBpx1bslzZyHnoQyVRf8jEBaVQSN7JnysCa3xCSMrC8OBVCHDsbSou6or01Ao7SJ0yjT3b37zG4HUVQiSpxGV0va/FlUJ5w2B+TAe81aZyqgQmCkCzBKD4cpJyzzEeOid+4ozu/WhD33IqICTuMPDZip/mvFTAFfW0SCBAS2ftOPZe++9u2smp1meitb/CLSxJZrplFfacuGFF5rv9jcqjfGoRfoJ3apOmoksQqTQOATr4x//uBE1K7Qe8YhHJEIoYKlut2AvOYOOQDGtQX+CVf45IcBmNBf7xDywFr5t8oIXvIBon9477bTTDCzhQHPKaeLEMU65z0SxoL6O7K8vLvvCDEvGTZy67owiApQW16GxPNRDx+Dxj388zfngBz/obC1aRKloskVUGFings0RLNmREIWUCzJ3xhlnGH8V6DvozjxzK9xOpl3Md47FruSFwMIiUExrYfGv3BcegfS8WYUYLQUSwor4iN5DH/pQw1pHHnmklSjzU1BleM973mM6Brd71ateFcOWEs5PASqXgUAAoQnTohtU17CrjoETH/Ce4447DuUSiPE4+TaK3a1KhWO5ysLVF0Lf/OY364TYrrvPPvvIRalSMP5ob7eyLjmFwOAiUExrcJ9dlbwLCDAYpJgEYZAYrdgGV3910N/whjegXKeffrr5EcYskbuQ68Qi7NV///vfL/fdd9/dnjIRy1xNjNao36GT0RCaudtuu+28887+0h+7VsN4kCH6E3rUFbC0EXkZyiJWFp/97Gd/+tOf+vumN70Jz8tkIobnFh3O4FZX8i0hhcBAI1BMa6AfXxV+rgggUkQwFRk3amRLIFuyxx57GNniQblOPfXURGZO3I31ii3Rp2dXWlHcEt7MW+I3w9Ni8ojDkR93yy23PPvZzzb7Y8vh0Ucf3YrUkrQsyjPiCFCYIEDT+GmmicJjjjnGKaY333zzc5/7XFrkFhUS7ppOQg6AkFCgK92bBMZOHRbT3+hhsub/4Q9/iGDx7LfffnvttVeK4YpmESvTeCbJom4VAiOCQDGtEXnQVc2ZIRCjYszAkilb6FkyszPOKyIFLYsN42dX+EXjwahQLjYpNsY1WbpFWrNA4jN7rkJi6lw5E5Sve93r7HaU17ve9S4mMxQtMWdW+oo97AhQnqZdlIffRKHTSQxo8VgaT11DdBKTNorW1myJQ1ebiq6IFq2TPGkljEojapxwd//whz+88IUvtEn2QQ960BFHHLGihAopBAqBhkAxrQZFeQqB/yCAGzEnbIwv5n7hC1/wbeOlS5c+7WlPu+CCC/Ck2DCexpakxMBQrlgvCbmIi8XyNwIlwaVcESmeluVrX/vaE044gcwPfOADdsuLTGDiNFEtcnlGHAH6Ga2gb3SJtgCEOtGco446ihZ97WtfO+iggzAhOumu+NFMHkolgnBkayIYo+EtC0n4bRPB1aS94oorrMq68sorV1999U9/+tNrr732RHIqvBAoBCBQTKvUoBAYBwGWhmNdXB338KlPfQrlsvzFOVuODkoCt9itDHHFJjFp5mWYIlYthk04Qyi+v4kvRCohEmba8frrrzdHaSmYmKZjXvSiFyVrcSI2opJpXQuBIECLmnrQHFqHD7llD+Chhx7qLuJu2Om6666jTpwIoVwUDycTAdmaBMyosWicJK5CxD/zzDOf+MQnaguG0D7zmc843KGzwxBtn0Rs3SoERhCBYloj+NCrylMj0GxYojoZ8qSTTjKjd9lll9lRb0EMRhWjwrxhQuyQmOyZeZmYscaoeJqREzNmSVpmj6n75S9/+YQnPMGZk24ddthhb3zjG8khjSieyW1hylbXEUSA/kRDaJHqR6+iWkIMa73+9a8X/uUvf/lxj3ucReu0tFMto95RUcq2opNWfLlwiSY7ko899tgdd9zxkksuMY6l+2EZvnAREtN1BJ9FVbkQmBKBYlpTQlQRRhEBpivWiBFCd5gQZMu5Qca3hDt/wVmROvfCdfddxRczjApebBKX8FjBGCS3BAbQG2+80QiWpcTOdFhllVVYx7e//e1mZ1q+LTLJSVLXQiAIREmoFnVq6sGflYI8dEl/wFkh5rudf/uWt7zlmmuuQZ6irlHOCBkX0iyZj2TSuHPOOWffffd9xSteIZVWYDn8rrvuOvlir3ElV2AhMIIIFNMawYdeVZ4WAswYx65wKJRRAR+Y++53v2sCEW363ve+Zw7l4IMPZoFEYJNikPhJZ9JCrZYzrmUXgS0CjmUxlrExy+2tpHnwgx9sVQ0bJo5cluW3fNZSpsTGKE6rxBVpZBCgIalrlCp6QlX0Cuieu1T35S9/+Ve+8hWffL799tvf/e53OzTkve9975/+9CfR8C3JQ6TGxSwR3KKQJgrp+c477/yd73xHiD4G5SdWFrITIeo9rpwKLAQKgWUIaGxzcZq0lrb++usTZQakiRLe/OUpBAYOAQrMMSGcwnde/bWmiqXJG2TllVd2GMTnPvc5OxMTLWldU+vmsWLm5JNPtoxm0aJF0rKIjuw65JBDbrrpppirhhKOxbWEEdvulqcQiG5QkqYbCWmKZFAqt6wCtPLPoCnqT+s23nhjKuejPddee+3kMJ533nle6cZc73nPe0qI0m2++ebHH3+8VE3PeZqWTi6t7hYCg4WAjVB03oqRrKado57/Z+RZW5qFg53GtnjxYl0lzfLpT396hAhXylkIrCSFQJ8jwIZZjMVQObbxxBNPvPTSS9kwrWCNNdZYd911H/7whzsVggeLEiiyESxb4g0McLfeeqt2wUCKbJvY85//fIdrC9GMjRBUq+nzRz+4xfOhdLr61a9+lQaqBX2joltuueVmm2123/ve16GjqBiL4vOFdPWqq64yM07D9QHoJM0U7cADDzzggANqm+Hg6kCVfEYI4DMOiltvvfWuuOIKQ7xzfDkX05oR+BV51BFAnjI2oOFxzoe0YMW6YyzKMRChXA0jJopJM3YlFTrlLoda7bnnnpbO6C2ttNJKhKRP0jwteXkKgS4iQMGsZP/Wt75lBtz4qw/pYPzRvVzpquyoq/Dki1c9+tGPNl1oFXxxrC4+ixLV/wh0l2n95zif/q95lbAQWHAEUKUYpBinVVdd9RnPeIahXKvad9llFwMGWXFsYbsxLVM5rpxBX6MCJl+22WabTTbZJELwMNWJnNTLiIIjixa8jlWA4UMAzVKpTTfd1LFt1m/98Y9/NGrlmFzdA0vmlyxZIgLVxbEMcVmPaLjL/PhWW21l6Av3klZvgea39VvDB1HVqBDoHQLFtHqHbUkeQgTYGwwJPYrpyl8h1rKgWTzYlWrbVMiemWQUjbNwOOxKQk4EMaUV6K5ZG8aMv2jWEGpMf1SJ1uFJy7Xv/6VmJrgx/v3331+gz3oaZDXElS6ESW0bNailgkdXeaLnVLQ/alOlKAQGDIHaezhgD6yKu7AIxNjo+jNL2FK6+4qUD/XwhDMxY1bKGwAQh2GTKvvhmS5pmTHJI4ofIeNvUzYLW8HKfSgRCFVSNWrG0bf0ClwdPeoTCCFhItBkOsnx01IJxW8hQwlOVaoQ6DUCxbR6jXDJHyoEWB02CZ1yZYdigYxj5XuFsUwI1kYbbaTa7hrNsiheKp5Yr5AzyRMhHv4Qr6ECqyrTNwhQsxAm6sfhTxxF9R1DmzNsHhdBuPKaTzS+hYFFt3mWp/j/ePqmNlWQQmDAEKjGM2APrIq7sAjESoVvsT3sE4bEYlkRL1DZ+H0MboMNNuB3iz2TJHZLZNZLCELGz+PKIWoJWdiqVe5DjEAIU2NLtE5laWC+Of2oRz2KBkaB7aW19zBQUODEdCt3hxiiqloh0DsEimn1DtuSPIQIYEUxWiwQ28M+IU8CnXISM2aWMIMEucVWcW7FYkGEx19phYvD2iFnQviHEK+qUn8g0LSLuvLTt+WKeeeHdKx/V0whrpTZsBZPdJJ+SpJhrSakP+pUpSgEBgaBYloD86iqoP2AQKxRMzmsEebkSFKHD+UW2pRDTcVp7KqVPDTLlekSGIOXu/wtWnkKge4i0LQrGtiER0XtN3TgCPZPe1Grc889VwQeqThxkC0h/C1heQqBQmD6CFTLmT5WFbMQWGZsmq0KW8KobrnlFmQrw12uTnOAlJixT4VaIdC3CKTPgGk5zYFi015K6wNTCpyeQ3Q4hKz0uW+fYxWszxEoptXnD6iK13cIxN50Xh0i7CgsBY1BMqaV8YCyTH338KpA/40AjUW21llnnUWLFuWO/sOFF17417/+NX+j0vzjjtEmTl0LgUJgcgSKaU2OT90tBP4LgUawMhgQRsUyGQAwiCXQLIzD3zPP0qzUf4moP4VA3yAQRVWcTHnnr5PhfJOHbgunw03n+6bUVZBCYMAQKKY1YA+siruwCDA8sT1sElMUvuWUbR7OLRsPN9xww8RxXdjSVu6FwJQIREt9vQCjotVWaznl4fLLL28kLBJKmadEsiIUAhMhUExrImQqvBAYBwF0KqExPFlBbAAg/X7Gaa3lThwWa5z0FVQI9BMCbbzK9kPzhhnHslrL+aXR8E6FL5Xup0dXZRkkBIppDdLTqrIuOAIsU2wPD1PEXX/99TYe4lgmEAX6tFzol1sLXtoqQCEwOQJNS0155xA4mizw7LPPbrOHkSAwtGxygXW3ECgEVkSgmNaKmFRIITAhAugUk8MaNatzzTXX3HzzzeiXQMYJ03JLNCMELc6E4upGIdAfCPh4lE9I0WGaTG8tPXR8vKKFYIV1udsfha1SFAIDhkC1nAF7YFXchUWAHWJ7lIHV4VigK6+8Mhu1Yo222mqrRGCuMvq1sAWu3AuBSRCgpdSVo8ybbbYZHc7QrP6DOXEJRViu6csYmFuTiKpbhUAhMBECxbQmQqbCC4FxEGCTOkMZIUxLiHCmyMekzcL4G0JWlqkTq/L3JwLYFXU15a2ToIQ02XDsHXfckVO13Iqj6v1Z/ipVIdD/CFTj6f9nVCXsIwTCtHT0UyZ/zzvvvFa+NddcM9+WbiHlKQT6GQEKzKWEW2+9Nb5l2XuoFcWm5xniCs0S3s91qbIVAn2LQDGtvn00VbABQMB4gBUtChqbtP7666+66qpsVSxT7dUagEc48kWkqxwW5XQSJ8UHDyG+ftiWajU2NvJoFQCFwGwQKKY1G9Qqzcgi0Eaz0r/3HR7flg4abhnQMvMysuBUxQcRgawvxKXuda97PehBD+Khw9T7oosu+tvf/karudQL/RrEClaZC4EFR6BazoI/girAICHQrE4Krd9/++23M04c42RNsQhZnuVvsa5BerSjWtbGtKirCUQKTHXp85IlS3Qk4q/R2VHVjqp3dxAoptUdHEvKqCGQCRcHPP7rX/9Sd5bJNUMC/MxVDQCMmkoMaH2jqNHYLbbYgvZm+tv1/PPP122IbqudOANaxyp2IbCwCBTTWlj8K/cBRkB3/6qrrnJVB0boLne5y8Ybbxx/bFKNBAzw0x2NotPejLw6F16NTX+bQ0StDHQJP+usswJDhmkb5RoNbKqWhUDXECim1TUoS9AoIBBj48pEoVOWw/PzuPoMzzrrrMPDZcSrZg9HQSUGuo50Nb2CcKn73//+jjCNPusnZLeHOKljOhUDXd8qfCGwIAgU01oQ2CvTgUeANWKKcpiWyvh7v/vd7973vjdr1IayYsMGvqpVgeFFIKQqCux6z3vec/PNN9dPCLui3j42RZ/9pdg1IT68ilA16y0CxbR6i29JH2IE/vKXv1x66aWxSSzWAx/4QBOIzSAJz60hRqCqNugIdKooHcalLIpvY1f21V533XUhWGJWz2HQH3eVf6EQKKa1UMhXvoONAPNz9dVX25zVqpFFWsK5FlieQqCfEcCfwqsy0234yq6OVmB9Cd/koc+WbRXTarCUpxCYKQJlEmaKWMUfaQSaveGx8bBh4XDtRYsWtQEtFssAQBsbaNHKUwj0LQJUGql6wAMeYFE87fWXGp999tn8WS9fXYi+fXZVsD5HoJhWnz+gKl4/IpBpFHvgTRfGf9e73hXTiinKAECZpX58clWmFRDAqISlV0Bp11tvPXs7aHXWyGNa7mZafIWkFVAIFALTQqCY1rRgqkiFwBgE0KmLL744NMutNdZYw8dMWpxYqSJbDZDy9C0CYVr0mTLjW6usssqmm26qtCFbzi+99dZbo8lN2/u2LlWwQqA/ESim1Z/PpUrV7wiwTBYLm1WJ+XG+w+qrr87PhWYxWvz9Xo0q38gjkNEs67RQLhprdNZZD/5maPaGG26wLl4cZKv0eeSVpQCYJQLFtGYJXCUbTQSYHxVnk5ifa6+9to1aWUfcSa0wMLcyWjCaQFWtBwWBaKlr6JRib7vttlZo8QjxsSmfnMrfYlqD8kyrnP2GQDGtfnsiVZ6+RsB4FfOjiPr6HNuTTVs2HqJWbuVuAvu6JlW4QmD5FCEd5nQhWt/gvve9r5Et3CvuggsuiG5nsLZgKwQKgZkiUExrpohV/EJgGQIOdfzHP/7BFMVEOe9RIIslJNf8XRa1XCHQrwhQVyxK6dJDyJAtpnWf+9wnuk2Zf/3rX1fPoV8fYJVrMBAopjUYz6lK2ScINBZlOTwTxQnxARPL4XMrIfz52yfFrmIUAhMhEEWltyLgWyYKLYq3VIsf2eJ8k+fvf/87T9jYRHIqvBAoBCZCoJjWRMhUeCEwPgJMDuPkiId4XO2KX3vttWOZpHG3XccXUaGFQH8gEGqlLFFm84MolxEsp2oJ5BHigzyXXHKJCGFj/VHwKkUhMEgIFNMapKdVZV1wBNgbZfjnP/9pmbCpFo75ccSDjYfNDokTt+ClrQIUApMjQGnpqjiuWJe/nL8PfvCDXY1vCfzXv/51zjnn+MvvWq4QKARmikAxrZkiVvFHHQFDVjfeeKOOfkwU87PJJpvo/Re7GnXNGMz6Z5077c1YrErwYFrmENvo7G9/+9uED2YVq9SFwAIjUExrgR9AZT9wCBjHuuaaa9pxjkzUlltuKVBFwr1SI1YqhmrgKlgFHh0E9BOaohrNav71119/1VVXFaILQbcvv/xyMWvv4egoRtW0uwgU0+ouniVtyBFgdXzi0NShjYdhVypsUUsbGPA38y+uncRryHGp6g0mArS0KWo8lJZbaaWVHvawh9HqnKR12WWXOVgrPKz6D4P5qKvUC4lAMa2FRL/yHkQEdO518ZUc5WKT7nGPe3R+h2cQa1RlLgTGIEC3jdS2A3idaeL0uDFx6m8hUAhME4FiWtMEqqIVAssQ0MvXp//d734XODAtGw99lLfQKQSGCQFK7og42q5fYQIR5Tr33HNp+zDVsepSCMwbAsW05g3qymhIELAVy2QKq5OPHm600UamWoakblWNQmA5ApiW70zf6173wrQEIFtnnnlmYVMIFAKzQ6CY1uxwq1QjigDDc9NNN1kRn/ozSA7UNtUyonBUtYcUAWu27Kh1JK/6WY9otdall16qazGk1a1qFQK9RaCYVm/xLenDh8AVV1xx22234Vh3uctd1A7TYpaGr5pVo1FGQI/i7ne/u5Pis9UDFEuWLLEofpQxqboXArNGoCzErKGrhKOIAFLl4yStc++vhcNY1yhiUXUeXgQwLeNYj3rUo1JFen7VVVf94Q9/GN4aV80KgR4iUEyrh+CW6OFDAKmy8TDUCt+6293ulu+WDF9Nq0ajjICFWUazjGmZOoy233HHHQ43GWVMqu6FwKwRKKY1a+gq4fAjwMbEzLSq6utjWpkudOs+97nPOuusI7BFKE8hMBwI2PNxv/vdz6L45Y1g2ahtth92toicttUOlhuOilctCoGuI1BMq+uQlsDhQYCx4Vp92Ji//OUv1mmhVhZpuWWR1l3vetfOOC1yeQqBQUfASfFOMMnJJurym9/8hubrZjTulS5H6f+gP+gqf68RKKbVa4RL/kAi0NlxV4GYFtc///nPf/rTn1Ilf7fYYgtmJvZmIOtZhS4EJkAAqfLp9I033jhtgZJffPHFPkLVogsPxyqm1TApTyEwLgLFtMaFpQILgf8gEEvjP2Nz9dVX//Wvf+XPovjNNtuspk7+g1T5hg6BbPjApbQCmm9RfAhWY1cIWfMPXe2rQoVAdxAoptUdHEvKkCHQjEejWQm54IILwrGEm0BcvHixtcMtzpCBUNUZWQSotH4FFrXNNtsAgfILsSg+Z/YKic4L50YWpap4ITBNBIppTROoijaKCDQKFXPi7+9//3tA5K8DhzpXsYwiQFXnoUbAeK2ttfQ8tfR1BEec8GNgXFqBa2smQw1GVa4QmD0CxbRmj12lHG4Emv2IRWF17LTKxsPc8sVDGw+HG4Sq3SgjQPNpuO9N4VX5EMJZZ52V/YZpFK2NjDJKVfdCYEoEimlNCVFFGF0EGJJYFBAwNmzMH//4xxZiQGu11VYT2EJGF6mq+XAhEAplZtwHeZz1oHJ6GvTcmO4///lPnuwCyUx66f9wPfyqTfcRKKbVfUxL4hAgkMmR2JusedenR7Ouv/76BLI0Nh4OQU2rCoXAighQ76i9W84vdc1ZDzfffHMmEDOyhYq1aCsKqZBCoBAIAsW0ShMKgXEQSDc9Hfd8+g3BYmZuueUWJCxWxxIWgeIIGUdEBRUCA4sA/hTFpupbb721qxCdjb/97W/nnXdeG8Si/2kdA1vRKnghMB8IFNOaD5Qrj4FDgC3JsFYrub+XXnqpRcGNfjniQaC/CWkxy1MIDDoC9J/L8O1DHvIQX52i6saxhPzud79Tu2y5FWfQa1rlLwTmAYFiWvMAcmUx2AiwLjr0+u6xMSrjr/Ura6+9dixN2ZvBfsBV+hUQ0HnIeJWrRfG+OkX/+UX0jQTHPfD4S/MxsISvIKMCCoFC4E4EimmVKhQC4yPAisSExKKI5IxsFohpcQvNYoH8xbqEjC+iQguBgUUgWk3VV1pppa222grT4lcbrcARphoF1+IMbC2r4IXAfCBQTGs+UK48BhGB2BUl58Go/v73v1sRn4oI0cv3rRKWhnN3ECtYZS4EJkGAktNtEUwUmkDMvDlVd0z8TTfdhGbx5zqJkLpVCBQCECgLUWpQCIyPQMyMe6FcPnd4ww03NANjOXxMUdGs8eGr0AFHIESKwqvHAx/4QH/TqbBa69xzz/WX/nPuJs6AV7eKXwj0EIFiWj0Et0QPNALsCkNiclAt+H3x8Pbbb29My9b3+JmcxBnoylbhC4EVEaDbCdxggw3ufe97aw5olh2Iv/71ryk/Z0pR0+BZMW2FFAKFQEOgmFaDojyFwH8QQJ6yu4qxYUhcly5dmnMaw6s233zzxGZ+2Jv/pCxfITD4CIQ8UXiaj0ttsskmq666agJdL7roImrPpWmIMPg1rhoUAj1EoJhWD8Et0YOLQOvNx5ywKFdeeSWLEuKlf7/mmmvmljrGAg1uZavkhcAYBKLb6UJQb4viH/zgB4dXGdayVOvaa6/NaFb6JGOS199CoBDoRKCYVica5S8E7kSgsaj8Z05yxEMYmOXwXAOrmFaDojzDhEAmB9VIc3joQx8aj+t1112n4yGwdUiGqdZVl0Kg6wgU0+o6pCVwqBBIP/4f//iHze2tYhtuuKHztPzNEFcLL08hMBwIUHtESl148C3jWLaANOJlH6JTfFNTgZlVH46KVy0KgV4gUEyrF6iWzCFBgLHJeNWNN96oH9/+Ll68OH7XTCkOSYWrGoXAcgSi9g0MPYpNN91U7yIMzBDvOeec427WLNbIVgOqPIXAuAgU0xoXlgosBO5EICbnkksucS52eJUb+vd6+YVRITCsCCBPWedO/9OXMF2+1lprqW/6GBdccAF/hrtchxWHqlch0BUEiml1BcYSMoQIhGOxK+pmkZYpEiHcXe5yly222EJ4buU6hPWvKo02Ak29Q7ksis9+W00AMBbFO16Op/R/tNWkaj8tBIppTQumijSCCMTAMCQ87EoMDByc/mCdlit/uvsjCE5VebgRoO0039V4VVTdVQfDX4FGvMynO/fE7KGQzCEONyBVu0JgLggU05oLepV2aBFgTpgWJoS9cfVV3VSVjUGzVl999faXJ5xsaLGoio0kArQ641U8moMx3e22205bCPH685//bPthJhlr9nAkFaQqPQMEimnNAKyKOjoIxMYwMEwLo2JMS93ToXc6/D3vec+YHxG4RB4dcKqmQ48Alcaiot48/joa3knx5hC1iIScd955WgH/0KNRFSwE5ohANZI5AljJhxkB1Iohue22290I9qUAAEAASURBVK666irGJuzKN+CE+8sOqTwPN8woVN1GGIEoeQDYaLkTgmwJ8U0eraMzwgjjVFUvBCZDoJjWZOjUvVFGAK9SfSzKt6XbxkOm5b73va+ZlE52VcZmlPVkWOtOq5f1If7di9AcDOVuttlmQtziHKlluDesa1hBqHoVAl1BoJhWV2AsIUOIQMyJ6/nnn696IV4WqWy88cYCU+HEqRMfhvDxj3aVKHbracQTnbf9kCdjvRbF//73v29UbLQBq9oXApMhUExrMnTq3sgigDwxIVmDcuGFFzItoBByj3vcw5gWvsX8uJsIlrCMLFBV8aFEgKpzYVdhWpkxf8hDHqK+xrHcdVL8b37zG+E1rDWUOlCV6iICxbS6CGaJGh4ElhuaZauvUC4bD5kcpMrV+Y1rrLFGCFbskJjDU+2qSSGwHIEofChUtF0wVfedaZ9X509P49xzz41/eaK6FAKFwPgIFNMaH5cKHXEEMohlPdZf/vKX66+/nsmJvbEm+G53u1sjXunuV59+xLVl+KqfXkSu6WNkinzdddddZ511EoJ4OVLLJ0FrTHf4FKBq1F0Eiml1F8+SNiQIoFAMCb517bXXXn311WqFTgmx8TATi+FeorFGoWVDUvOqRiGw/NPpYGgUKm2BqvtAwvbbb0/tc9qcr1TdeuutYrrFFXKFQCEwLgLFtMaFpQJHHYGMYLn65Mgtt9wCjvTjffEw5iejWTgWIzTqYFX9RwYBrcD2w1SX5lsUrytSY7oj8/yrorNEoJjWLIGrZEOPQLjUkiVLeDAqVxzLcngV5w8VC80qSzP0ylAVDALUXmfj7ne/e0Z2Ta+fc845NaZb6lEITI5AMa3J8am7I4oALhUW5dvSIMiA1pprrmmdSnhVsy5ijihGVe2RRGDTTTfFtFQ9A7qY1kjCUJUuBGaAQDGtGYBVUUcHAdQK09Jxv+CCC/jDrtZaay17DxkYIaDAsaxNEa2xrtHBp2o6sggsXrx4tdVWo/Yc/Xd+6d///veRRaMqXghMB4FiWtNBqeKMKAJ//etfLYfHqDjsCtPy3TdYZPFv2Bh7M6LoVLVHDwEN4a53vauzHlTdeVqagDNQsih+9MCoGhcC00WgmNZ0kap4I4UAi4JO+Q4PKxIu5WqFyjLO9W/XAKl1Wg2K8gw9AgZ6d9hhh3Q27EC0Ih7ZGvpaVwULgbkgUExrLuhV2qFFIPODf/zjH33ZLUYF03rQgx7k6pbpwgTmmshDi0VVrBDoQAC7si9EQzC4ZVjL1OFll13Wcb+8hUAhMBaBYlpjEan/Q4kAStRGnoxJpY5CuLClhPC3vzzGtOyuwqvsOtSVz+d1edwK2WJvJGxJhhK6qtQIItDaSNNtqk7zdSq0iE022cSXEv75z39qBdx5550nWiJoUEkrWmsaEvK7lZAmfASBrSqPJgLFtEbzuY9crZkBjj2Iiz2InYAFSxAzkDjxMxUOZsSx/BVh9dVXX7RoEY8+feKLHHNSY1ojp0/DXmEqHbX/d4tZ9pu24Lr22muvv/76MNAERPP1Q/HxJ06bEuiWZpIIru42OZpMtReYlBspBIppjdTjHt3KetF7v3vLI0mMQQwDOIQzDKyCQH53/eXnMTniiAcfG+Fxa8MNNxSNk0rymBNWx18GZnSRrZoPKQKUnLZH1cdouE8fbrDBBm6hWU6NN3totZa//A0MDcRdDUfaCElbE0d4i1aeQmAUECimNQpPuep459dCEKNwI4iwIt747EGMQcMIx+Lc9cVDx5by4GeuznfQlZeEC1eTRFqRGZKWvDyFwBAgQLE7a0Hh/aXqPPTf3a233jpth98W3auuukq4OEkoplYjcvvrVlpciFen8PIXAkOPwLIOerlCYOgRQIa84r39DVCpbMxA7Ac7YfPU+eeff9FFF1kCr3duv2Hsgb9shvj4mYUpApvJ4WdpGA+OtEbghh7JquAoIEC3aXh4kmsGpdKjCMHaZpttNCUjvpSfe9aznuXL07fffrsGsuqqq+qTOODUusb73//+W265pTaiHbmCjpCIHQUYq46FQBAoplWaMBII2CRl2oJtSG/bIde64NaXfOlLX/rlL3/pnOtEsMiXGYgtyfVud7sbcyLyt7/97euuu+7JT37yHnvs4WAtBoMjzTX0ayRwrEqOBgLIE/0PN6LkHL8QtdcKfvCDH3z5y1/+29/+pk1pOLoZl19+uWEtLUVzSCdEZB7nz/ko+y677LLXXns99KEPdZcErSmSRwPLqmUh8P8U0yolGAkEYiQQKWTL6/7rX//6Jz7xiZ/+9KfshPqjSoas9MK32GILS33xMCaEsbnpppuWLl1qxAsnu+2223784x+zMfrrz3jGM57//OfrsktIcvXRR0KHRqmSyBOtRrDCihAjvMpW3GOPPfab3/ymcd+0GsqPPxm42mijje55z3ve4x730CJuvvlmDccIMecT1GeeeeZZZ5119NFH77zzzi94wQt22203vZdRwrLqWggU0yodGA0EMrvHDPz6178+6qijDFCpNyviiKxHPepRe+65p3UnZj1Yjjh30zV31VNnY371q19Jdfrpp7MiH/zgBz/3uc+99KUvffnLX8661NThaCjRCNUyI7vaC6dFGMc64YQT0CzK75avf2o1Rqoe85jHrLfeeve61706ockAmHO2OM3t5JNP1qXBuvRSTj311Cc+8YlvfOMbNbfOJOUvBIYcAc1mLo4d0vXPjt8vfvGLTZTw5i9PITCfCOh8yy7zgNHDXK1wf8c73mHsSpNmP5iKL3zhCwINa02neIRwhrje/OY368ETwgJtt9127EeSMzA8uXZ6piO84hQCC4KAzkZccuf3Po+/afIPf/hDjYXCGwz20cPDDz/c6Se5q0XwSDVJ4d01ymWafscddwxvs3XxyCOPxMPcarmQ0OmfRGDdKgTmAQHWwRveRqgYCKo+l0zv3JM1axGyL6Y1a/QqYdcRSHugk3Hke31z11xzjZUipg4ZDB/V8d7HsdxFyFoT4mluxYLllnDmgbRXvvKV1qBoisa09PVlITz0Luu6xJRkRTkVUgj0DwKUVmForCuLEo3VdqLPAj/84Q+bSddqaPurXvWqK6+8shkecaaj4YkvI1tPrO7KnLthYOsdDZXJwq0UgL9cIdAnCBTT6pMHUcXoRwS8tdkJJWvEiF8XfPvtt9efZjCsFLn++usFitlpJxI/IZ3hrZKdEdgY4ZbSW+2bRb5vectbYp+aHRIhJWkSylMI9CEC0fbQJn6e1oJe/epX60jQcOsXzZtrMtH85lEdkRN/oqqRmV5N0pqIf85znqMlWvv1sIc97OKLLyYtcuKZSE6FFwLziUB3mVadA6TJlxsqBLzBdZGNNnmze3fbErX//vufccYZq6yyisGnj3/84yuvvLIWy364m5r7yyMJF88kiLArSJskD3/4w7/3ve9Zd+Kv2RBkK5Mj0maorDZYTQJj3eofBCgzPhT9jw5rO1ZTve997zMX/6QnPek73/mOCURNRhyROYUPLRM4iZ5rLJJYLJ/KanGmY44//vgPfOAD1sWfe+65Bx10kBHi5E5U/2BSJSkEuohAaXYXwSxRfYGAUaVsbmIzLBDRgbb1yaLdT33qUy95yUtYDncZEmWNzcg1HGvKCkho4iOzhDKyYOtrX/uafYiEvP/977cOjLVIAXiYmSkFVoRCYAERoM80HwHSWBQD46G9/Mccc8x73vMeIZqMzj09j86LzInAhWOl+UxUBY2FTPLDpVzlKC2x9pRoiT/72c+e+cxn3nHHHQIJaU1yIoEVXggMIgLFtAbxqVWZJ0TA29+yElbBC93r+5BDDrHdyQv9xBNP3H333d3NUi0GAA1yZTbIyjVCGQNuogzYg5AtohwGwS+mtSy65gRaLGwligII58ifSE6FFwL9gED4jUGpNAFEh/Z+/vOfP+yww2i4wWD9B2rM3+Kk2GLG41bzr1gjHIuTS6IRxS++q6Gyk046yQAzsnXAAQeM6ZZMInPFXCqkEOhzBIpp9fkDquLNDAGvdQlYBQ67cm4Wzzvf+U4njsaoIEB5iXvpJ7L4jWm5xc8qTJSrWy2COcrl+SyzUgYAHvnIRxJ46KGH2p8or+VcaxkPK1cI9C0C0fy0CBpLvZcsWWLlO/+22277kY98RK8jyuyW4a5WEQml4lpzaLc6PdJqaFgUgfyk8YgQXuV0lbe97W0iOKPrYx/72CQ9nE6Z5S8EBg6BCS3KwNWkClwIQCBvc1dLQBAsZuApT3nKC1/4Qu/32AljWsyDmHn1rwhabM+K4QlpqXgiinkg0FlcRrZ8dtehjm94wxsYEgNpk4uaKIsKLwTmDQF9gzQHuqrbQKtf85rXODSLJtNnc+7pkLibCK7ityT+Kmr+jltm8jUQQhA10Vz5pXLN34MPPnifffbxF+Vy5ta4QiqwEBh0BIppDfoTrPL/FwJe6zEGjid1PjWD8a53vQvpSd/ayz3vd2nYlaSMtVjR/19y/71evqXikZBjPAgX2SGoZg+Ff/WrXz3ttNOExLqMkZMyjAmsv4XAgiBAdTsV0tFZhpcEHnHEEfYbKpKJeGrcOdoUte8srZDOv51+oiQX4jomGpmctmk82DJ59O7d7353mF+y4JdQHCXslFn+QmDgECimNXCPrAo8GQJe6F7QdqR/97vf5Ud9Fi1aNA9vagNm3LOf/eyddtpJdjrolt6PMS0pd6zIZHWoe4XAfCGgsTQtta7ROJac6fDee++tz+CuZVu901iSNRbL7bVT+X7rW99yprxma2itAdC73FsW5SkEeo1AMa1eI1zy5xUBPWAWwjZyREen/OlPf7qJvGZLelcUBokzCfL6179eAex2RPVkNw9Z965SJXnoETDmFLqjpj/60Y+MaTmh9GUve5lj3I1mCRTBlUqjRBpXtwDJeFX6RWQidj63gOp99KMfTXaaraxFm4duUrcqVXIKgYkQKKY1ETIVPpAIMBvOKXX8j9f0i170ItsDx1SjR9QnvXDmwTpiH4PjMYdoyfyY3OtvIdBXCCBPnMbi6jQHZXOa6K677kqfsauEhxW5JaRbhcexQqTC4SwIO/DAA3VUDGvZUNJyUQwxi2w1QMozoAgU0xrQB1fFHh8BL2XfgXYmte8b6iizH17fGdbCsXpEsxRFRq6sgiGBpz3taayIpVpXX331+KWs0EKgbxCgtMpiy6HTFnj2228/o7ONZgkJJYqGd6vUaYmNw/lrH+Lqq69uKNp+YeGabXdz7FbJS04hMAsEimnNArRK0r8IIFWnnHKK8u22225e3Hmh945gNSAYJ0aC0WIkHNz1/7d33/G2VdX991/5JSaiggqC9CJFQDqIShMRkCIoggUQxQaKJqIvg2JQEBuxYIGgIKKCYAGNdBsIiKCAiPR6QToCUi0xyZPnfe+IM9tzzz33nH322Weffb/rj7XnnmuuOef6rDHWGLOsuRZddNHf/e53P/vZz1qCFuAL2trfBEJgGgmUm8Wn8WkpX6miMttttx351JlEkm2VQA35W5SrV1UtFZCnDJVFQ5daaqmtt95acT7ZXj6WNF7vVYc+6G+vriv5hMCoBOJpjYolkTOVAP/G+g5q76ndbEMPRz3mxYW1MFLJJNis+OAziwo18YXNsHW6VhLMK5PEh0CfCczxpma/4nfhhReSzE022WTJJZcUSXdsOpaIbvO3eqhHyqIX5cYpRQVoECdP5HXXXffb3/62FTpCffrMJ8WFQE8IxNPqCcZkMigErrnmGl/gMYS3wQYbqJOHuMlSnY7OFFWUWWI8FMR4cLlMxmc5rr766tiJKQKebHtCYI5DNXuVXS/9caR8Mb38npLb2pdse7W2h42EcqRkqGgXYq/05z73uT5obUW6m266ySEb5VUfiXtysckkBKaLQDyt6SKfcqeEwFVXXcXdWWWVVQxGKMDD2gCE/ZQU9pdMZ9uEOW10e3HsEz+Py6VpXuvFl6tXe2ajkv3l7PyGwHQSIK633XabzmCDg3wde04P6SWl9raqnPHxHtaS96ZcGSqLRvhrrzuN5irx8ssvt1eTcvuk6WHRySoE+k8gnlb/mafEKSRw++23y/2Zz3ymFRF5Nra+uTVsg+IYDAErpqrAww8//NBDD3XWQXgKLz5Zh8AECZS4crPIqr5Ycsvp6Y+UdiqmsHJVgLPFA6tXSThYfavMBLEleQhMjEA8rYnxSuoBJ2DoQQ2XWGIJreHOR3mfq73sssvqS/vjH//4yCOPNE9LfYT5YX2uTIoLgbEJaA94n0PbYOmll64Gw9jpe3K01LNTI+js4osvLvO77767J0UkkxAYEAJ56A/IjUg1ekPAbBIZ1RcJK0dN5D600auIapor8SlPeYrmOKNlAop9DZSoj3D5W7252uQSApMjQEoJJ60RIJmmScmvfKDJZTyfs5tGKMtGfSqG5tIRS5g6X39bHzR3PhXN4RDoBYF4Wr2gmDwGhkA9r+vxrVLT9aRmLar05oENDKFUJAT+igBl8Z+gEtqS27863N8/VYHpUtv+XmtKW4AIxNNagG72gnCp9aSunqR6XvfTeCixijYWI2xjxjh/zZiJcRfq74JwO3KNA06ghLOmpRPLWjGrpHRKa04rqxR7m6Kb5qqScUx7tYqmTOldSOZ9IxBPq2+oU1A/CJgLr5gHHnjA0INA357UVRCbURdpSq/Pxpl3ssgii7TLLqtm32ISCIHpJVAS+9SnPpWskth77723z/WhOE1r+HmWaFEB8+JbZJ/rk+JCYCoIxNOaCqrJc9oIeHlK2ZZXYDaa99Mff4tt0C4330UF7rzzThXwmV5bNdab5ehPZabtBqTgGUWg+pZ4WpoEOmLvuOMOTZQ+iCh1aE2OUg1/vUFCc5VeE/PVpBonM4poKhsCoxCIpzUKlETNRAKe17a1115b5Tk6Gsf+aiV7cBvRm+orYhLmlD+7T0vAV+QU7Zs8K6ywQo3IqEZZtT6Ysam+2OQ/NARII3FdZpllvPRHTSwZ6tLKv6le4frb8+tVqDZJqYxAlfXoo49af07kGmusYU9fbCrT89KTYQj0mUA8rT4DT3FTS2D11Vc3ycMgyPXXX8+KWG7RQ7wPKx+WSVAic2Vv6UWFrrzyyiozd+msyNRSSO4hMD4C5dDo0HrWs57F47n44ovtCXBnZxLZpkS9/daCPFVQv29VU4lifIdHA2nhhRe2VH0VqhoC0Zfx3cykGlwC8bQG996kZl0QME9rvfXW84A+55xzPKCZB5aji3wmeoqyeFTcLHuLQLJYYnxFrpb1ErbJk0Wxr/BEi0j6EOg5AQJZTZEtt9xS4LLLLuPrcG5KUOmRSIVSIoJdkT2pQ6lAfb+hDfSfd9554ldaaSWjh4pWor2YHpbbk8onkxCYKIF4WhMllvQDTcCCQBtttBFT8f3vf9+qofUSk+f1VFdaEbayRszVzTffzIpsu+22VS5r0WkwYjmm+nYk/3ESIJbVe7TpppvSHYN3v/71r0tWxduECbbcyu8ZZ7bzTSZbPlwpgo5ngccee+yss84S4PNpn5SH52+VPt8MkyAEBplAPK1Bvjup24QJsAc77LCDJviNN954ySWXON8jm8GYcEYTPEGJln9kP2zf+MY3WIg111zTdJPZ/tecVR466+DoBLNP8hCYKgKkkfQasCtxPemkk5RkcmH5OuVgNb+nV5UoH062NZNSQPukZom9/OUv53upkrLspazSe1V08gmB/hOYcgvU/0tKiQsyAQ9lbWLDdt5jOvbYYw3naR/3AQh3Sv+Zgm644YYzzzxT4DWveU1bcbu5VnP8rn6sWd+HS04RQ0CAZNZnFbx+uPvuu7uiU0899dprr61Rb+ojpnpqBZoY9+TCZcuRsleKAG21NPzGG2/sK9eaK+VgCZQj2JMSk0kITBeBeFrTRT7lThUBw3b77LOPZ/fZZ5/985//fHYv09TPQK+5vWzGF77whfvvv99ck1e+8pWsxajGadTIqcKRfENgTAKkUfuE6L7uda8zL96Y+1FHHUWeSa9N28DZ0gj0sG+ptFKeclbKz372s9NPP13gbW97my9Z1eu6VFjRfVDeMfHkYAj0gEA8rR5ATBaDQ8DT2fN6++23X2uttR5//PHDDjuMzShrMaWVXGihhdiqK6+88qtf/SrbsO+++y6//PIsE0Pib6tA2ZUprUkyD4EJEaAytVmU5C1veQsv55vf/OY111xTzlaJLrmVp2QTynmMxDKsjdZQkw996EPmaa2//vo77bSTs/SolYMljQpUHcbILYdCYMAJxNMa8BuU6o2XQD24PaA9uJ/+9Ke///3v17llIO+YY45hITzQK6MKtL/jzb0jnSJsnbmVJWCZ3ve+91n+cbXVVnvjG98osiwTz89W6VWyI6cEQ2D6CZT0lrjuvffez372sx966KH3vOc9aiay5mkJzy26tECCpgujXkk7WokrjXBtvDr5Gzf80Y9+xLs64IADrPTrUGdWlKipT2d8wiEwgwjE05pBNytVnT8B9sCj2RN811133WWXXTzHDzrooAsvvFBAJAdLwKO8zEbNUJl/ph0pyrTYi+PSVW4VPvjgg3/84x+zCp/4xCcWW2wxRSix49QEQ2DgCJRGkGQ1I9U+g6MbmFSff/7573rXu8iwQ0S63vYYUfs6VGlGHGp/W86lcVZdcajcLDFy/ulPf3rggQcKvOpVr6Kw7cQEQmCYCMTTGqa7mWuZTaDaxJ7dH/7why3RrpPpDW94w+23367RXB6SNNXb5BWniSKTLQvh9GZ7Ks8TTzzxyCOPdHS//fbbeeedGRjxSpxo/kkfAv0kQGIVR55tVa5X/0xzJL1fmbOJp0H2UlZPcOtzEilZa7eMWu1qipRrJYd6a6RcNJF33333m9/8ZjPDrPH7kY98JPoyKsNEDgGBeFpDcBNzCf9HwEOcD+SRzR9aZZVVvvSlL1n/+je/+c2ee+55zz33eO5L6lBrW//fmeMLVTeYzqp6EZ2lkdsZZ5zxjne8w+ihBbR0oUmjIHbI+4/jyzWpQmB6CJS+NE+oAoceeuhLXvIS8mwM8ZRTTjEHsVSGVBN4Gwl3okjOk78CY9Reno5WGr6ardSQPr7+9a/33SodwJ/73OdWXHHFUq7Kauw8xyguh0JgAAnE0xrAm5IqdU+Af2N6lqd5+VIveMELzAIRc9FFF+22224W2fI09+jXti5TMdGSapVFZkAm/C2WRsv/ta99rfm8m2222dFHH22KmDSslARM1ETzT/oQ6CcBbZISaeJqI9hE19T44447zoILJmyZuaW/lpxLVqPhVExYTJ3i7xhekTRSSkMf+WQC5ZldffXVxgotCk83va7rFZZKKava+gkhZYXAVBOIpzXVhJN/Xwl4XivPw50vxd+yNxriUe7Vcc6WPidz5D3KpfHQl2CilWMnuGjOdSLD849zNm4Ws3TyyScvtdRSZYGqU03Kieaf9CHQTwJElEgrsRwgASoj7Hs43/72ty1NZ+iQs/XWt77Vm7ykmnhzxUh++UPUTeLywEatdjVsJCh9dBYvjaZst912vg2qWfLlL3/ZeigScMWqr2vUfBIZAjOaQDytGX37UvlRCDAe7AEDwAwI2+tzYjbM2brjjjtMvOUd3XbbbRJ4sjs6oU3O3CwG49xzz916663NzWIk9JZZ73HxxRdnihiMMkJqVg7ZKFVMVAgMBgEiShHUhWDb86L8FSbGlimxXrxlF/hGOmuNJxoll0YvlARcqEopTOznpUQSy1OC2psuaQGUvfba66677uLMnXDCCfSRkqqGDmArlw4GldQiBHpMIJ5Wj4Emu2knUMaDAeDxCNuYAXZCS9pgoupxj3yxR0fXvffe20Vtf/WrX7EWL3vZyyyLqqvMEkTa5V7aUkpn271a813kn1NCoJ8EKAi5pSwKrWHB6gzmSPleu7W1zKbSI+XbVj57QPIFnFL9W07hQo1RW16Uc+VvIPKII47QqWxc0ik0Uc477rijUuQmB4U++clPHiOrHAqBGUxgXm2RccbTE1q07LLLQuBzb+0s8S2cQAgMAgEyaZjPWgymoRBXrtiznvUsc34vvfTShx9+uBwjNkBVmQdS3VlnMbNmzeKrWTyCPXCuHDbYYAPfxGUh5Ny2zrMSDoGZS0C3Vqu8BdzXWWedEnvf7Xn1q1/9rW99Sw8x4e/UFFrgFPvSJoEHH3xQg+S9730vXdO/RWt0ZR1yyCFeFnFuJRagX62sBEJgEAjo0NX8WGaZZZowT6ZWsyf2kv6uN6dTkpVWWunOO+/kaWn0VFbiq5HUdc45MQR6SIA90HRmKkjm9ddfr3lt5MLUE0UYQ7Sg/HrrrbfuuuuyBwZN9FRpiLM0Or2YE7N3a+NsSUzgfT1aVxZ7oyurKtn0KGLfw7uWrKaLAH3Ra2WSlm93cpgozqOPPurlEsOIt956q6MUgRGiMjyw1Vdf3Xu+PDCNEFpDrZgDLxX6aLS15m1URibeAjZuSHGcVTmUsjgkUOHput6UGwIjCPBnvLGuYUDga3x8MiIaT2sE3vwdZgJlM+q5f/PNN5u8ZX7VFVdcwU/ih9VR10+jpDGSUvZAm0YkZeN+bb755gZT7E1+F6kPTDKJGZ5hBpdrW8AIEOka1Kvrbs6Qta+ojKUfrAZsQLDZHhqky6opji4rp1AZGsRL441509C7KZo00lAoWtPObWhlMndkO5pACPSTQG89rZiHft67lDVtBDz3beUPeaAL+2aOkcR3vvOdN9xwA+Nx3XXXaYX7OLR+LI97adRVQMPdbBWfKNloo428iiVQ7Rs5lDWSJm7WtN3XFDw1BLhZvCVNC+Jdcl5as/DCC+uX8orJTTfdxNm6+OKLr7rqqgceeMAMd8mMA3KhTGz3dojOAO+gcK28ZqjDWN9YNWb4XjWMODUVT64hMIgE4mkN4l1JnXpOQMOabyRbBsNWz3q2geXYcMMNn/e85zEAxkq8G7XVVlv97ne/4zzpr/Ji1OGHH17DIkyOHFo+/nK5ZKiBzoTYel7nZBgC00igrQZHtmkKgSf86lNaoKGy6qqrWgDC3EfDhe9+97vNYpSSOiyxxBI+5mM2pID0pXGlODKpPmApxTsqZhqvMUWHQH8IxNPqD+eUMv0EWAubBz0vSqAe8eUh+cttMo/EjEMGgC2xqbEYM7HK0ogpa9GcrTIhMqzE03+FqUEI9IgA2dZBRSl4TjRFgJBTE7rgb+kIRbD5JrTmCk2pNLVfbrnl9Ic5l65JU7pmL5MKVzXl0/52hnt0EckmBAaFQDytQbkTqcdUE2hjFuVmMQD6sWq8o/ytMi2q0QxDhcvAVJqqpHMFxDulpqdUfPYhMDQE+Ey8Hw0JV0RTKEWNkjft4DZJQC9sNII6VJOjtKNUQwKbU2ovZQWKUmUlPMIDGxqGuZAQKALxtCIJCxaBcptcM+PBlgiI8fRnRfz1gpUYBsAm3sZsONpMiJiyFmLKwLAoZYEWLI652gWAAMm3lUaQdgF/qYZ9uVNiKIK/9rbyt8ot0wIp1Wg51OkiS+/kI6a2zjR/ictvCAwPgXhaw3MvcyXjIVAGQ8p63AuU51Tn1tOfzai/5WaJrPhKbO9v5SMQN6tYZT9MBErgmzvVAhVf+7redqhdvqMaJP529oHVUYea3rX0Ak0rOyMTDoGhIZA14ofmVuZCQiAEQiAEQiAEBo5APK2BuyWpUAiEQAiEQAiEwNAQiKc1NLcyFxICIRACIRACITBwBOJpDdwtSYVCIARCIARCIASGhkA8raG5lbmQEAiBEAiBEAiBgSMQT2vgbkkqFAIhEAIhEAIhMDQE4mkNza3MhYRACIRACIRACAwcgXhaA3dLUqEQCIEQCIEQCIGhIRBPa2huZS4kBEIgBEIgBEJg4AjE0xq4W5IKhUAIhEAIhEAIDA2BeFpDcytzISEQAiEQAiEQAgNHIJ7WwN2SVCgEQiAEQiAEQmBoCMTTGppbmQsJgRAIgRAIgRAYOALxtAbulqRCIRACIRACIRACQ0MgntbQ3MpcSAiEQAiEQAiEwMARiKc1cLckFQqBEAiBEAiBEBgaAvG0huZW5kJCIARCIARCIAQGjkA8rYG7JalQCIRACIRACITA0BCIpzU0tzIXEgIhEAIhEAIhMHAE4mkN3C1JhUIgBEIgBEIgBIaGQDytobmVuZAQCIEQCIEQCIGBIxBPa+BuSSoUAiEQAiEQAiEwNATiaQ3NrcyFhEAIhEAIhEAIDByBeFoDd0tSoRAIgRAIgRAIgaEhEE9raG5lLiQEQiAEQiAEQmDgCMTTGrhbkgqFQAiEQAiEQAgMDYF4WkNzK3MhIRACIRACIRACA0cgntbA3ZJUKARCIARCIARCYGgIxNMamluZCwmBEAiBEAiBEBg4AvG0Bu6WpEIhEAIhEAIhEAJDQyCe1tDcylxICIRACIRACITAwBGIpzVwtyQVCoEQCIEQCIEQGBoC8bSG5lbmQkIgBEIgBEIgBAaOQDytgbslqVAIhEAIhEAIhMDQEIinNTS3MhcSAiEQAiEQAiEwcATiaQ3cLUmFQiAEQiAEQiAEhoZAPK2huZW5kBAIgRAIgRAIgYEjEE9r4G5JKhQCIRACIRACITA0BOJpDc2tzIWEQAiEQAiEQAgMHIF4WgN3S1KhEAiBEAiBEAiBoSEQT2tobmUuJARCIARCIARCYOAIxNMauFuSCoVACIRACIRACAwNgXhaQ3MrcyEhEAIhEAIhEAIDRyCe1sDdklQoBEIgBEIgBEJgaAjE0xqaW5kLCYEQCIEQCIEQGDgC8bQG7pakQiEQAiEQAiEQAkNDIJ7W0NzKXEgIhEAIhEAIhMDAEYinNXC3JBUKgRAIgRAIgRAYGgLxtIbmVuZCQiAEQiAEQiAEBo5APK2BuyWpUAiEQAiEQAiEwNAQiKc1NLcyFxICIRACIRACITBwBOJpDdwtSYVCIARCIARCIASGhkA8raG5lbmQEAiBEAiBEAiBgSMQT2vgbkkqFAIhEAIhEAIhMDQE4mkNza3MhYRACIRACIRACAwcgXhaA3dLUqEQCIEQCIEQCIGhIRBPa2huZS4kBEIgBEIgBEJg4AjE0xq4W5IKhUAIhEAIhEAIDA2BeFpDcytzISEQAiEQAiEQAgNHIJ7WwN2SVCgEQiAEQiAEQmBoCMTTGppbmQsJgRAIgRAIgRAYOALxtAbulqRCIRACIRACIRACQ0MgntbQ3MpcSAiEQAiEQAiEwMARiKc1cLckFQqBEAiBEAiBEBgaAvG0huZW5kJCIARCIARCIAQGjkA8rYG7JalQCIRACIRACITA0BCIpzU0tzIXEgIhEAIhEAIhMHAE4mkN3C1JhUIgBEIgBEIgBIaGQDytobmVuZAQCIEQCIEQCIGBIxBPa+BuSSoUAiEQAiEQAiEwNATiaQ3NrcyFhEAIhEAIhEAIDByBCXta//M//1MX8f/N2YT9/s3f/I1AHfrv//7virFviQfuulOhEAiBEAiBEAiBEBiNQDkw5ds43gKjpZ1/3IQ9rc4slT1G8WMf7cwn4RAIgRAIgRAIgRAYEALNgSknR7fRZHqOJutpFZSqQe1H1G9AqKUaIRACIRACIRACITBfApyZ//f/ZntHk/GuOkuZsKfFkRq17BZfDmBnGQmHQAiEQAiEQAiEwEwhUH1GnZOgJuPbTNjTgqnKa6VyvKpO5YF1xo/qk80U0KlnCIRACIRACITAgkaAG8N7sVVg8pffjac1olRV+du//duqVh0SHpEmf0MgBEIgBEIgBEJgRhDwbp968m3K2bKfTLW78bTKkaqChQ1n/t3f/Z2AfjZbq40ElabFJBACIRACIRACIRACA07gv/7rv9TwCU94QnNjJtOFNGFPS2EjyuNp8fvUiZs14tCAo0z1QiAEQiAEQiAEQqCTAE9GnxYfSy9STY13tLMjqTPxeMIT9rRm91P9ZQhTAcJcvyc/+cnCv//97+tQFRzHazw3IGlCIARCIARCIAQGgcDsnqQ505/+/Oc/82Ge+MQnqlU5Ns3l6qKeE/a0qgwFC1SFdGgttNBCYnhaYqpOFahkXVQrp4RACIRACIRACIRA/wlwYB5//HHlPuUpTymXxt7WdU0m7GmpgU15Sq3ONI7ewgsvLOaRRx5p9ZBmMtVq+SQQAiEQAiEQAiEQAv0k8PDDDyvuqU99ak88mQl7WqOW2jytmrAljW0yg5r9BJqyQiAEQiAEQiAEQqAIcGAeffRR4UUWWaS6jaqDqWs+E/a0lKQSrTYCavC0pz3Nvvq0OFiz/ax5LHDadUVzYgiEQAiEQAiEQAhMNQEOTPVplaeluOnxtKrUmiAmvPjii6vKAw88IGxTywIhPNVEkn8IhEAIhEAIhEAI9JAAf4Yns9hii/Ukzwn3abUxweZF8bee+cxn2t97773/+Z//KVCHyg/rSS2TSQiEQAiEQAiEQAj0gQBPhj/D0yrfRomt/6i70rv3tKq86sEyeqgeDz30kPoJ8MZsk6xZd9eTs0IgBEIgBEIgBEKgawLWruLP8GGe/vSny2Ty/syEPS0LeVXtq+NKDfzl91nmy1uRDz74oL/lbAm0fq86JfsQCIEQCIEQCIEQGAQCXJT66o6AfiJV4r3Yfvvb31q1yqGll1666jlJZ2bCnlaVWrWpatl7E/JJT3rSH//4x3vuucdf44b1EmIlzj4EQiAEQiAEQiAEBooAT6bVp/NTN3feeSdPy5Lsiy66qASSlUPWEk800I2nVf1YVVJVVJ+WAcQ//elPt9xyS7l+4iff4TbRi0n6EAiBEAiBEAiBEBgnAb5KOS01s7zCd911l56jTk+rXJ1x5jl3sm48rapK7eUo8IxnPIPrJ3DHHXeUj1Xxk6zc3NVNTAiEQAiEQAiEQAj0hMCIV/c4Lba7775b5rwavg3HxjYi2USL7t7TUlLVwN6K9SokpuonRniSNZvolSR9CIRACIRACIRACHRHoHlUs2bNksMyyyxjVXaOV73qV45Ndzl342kpWGFtr3jhFVdcUeTtt99u0LB8rErQXbVyVgiEQAiEQAiEQAhMNQG+io3rUr4Uv+o3v/mN8HLLLVcxbQpX1zXpgaeliopfd9117W+++ebHHnusKt11nXJiCIRACIRACIRACEw1Ab5UuVMKKmfGXHielr9rrLGG5R7MhZ/8G35delpVs6qWHixVWXXVVf317mF9AXuSE/WnGm7yD4EQCIEQCIEQWMAJzHG0/vdjNnwYf82F52kJ87Se8IQnVF+Xjq7J+Ftdeloq0Xl71OBZz3rWE5/4ROtpmRSvZupXq1N0Jks4BEIgBEIgBEIgBAaEAGemeotq1hPv5dZbb/UR53/4h39YaaWVVLIcrHK5uq5zN57WqIX5PFBV64orrlBXadRMz9uoiRMZAiEQAiEQAiEQAtNIoEbn7Mud4roIXH755aq0/PLLmxEvUH6YQ+WKdVfbnnlaFq1XM5VQS+vI1+jhZGrW3fXkrBAIgRAIgRAIgRCYL4ERo3OV/sorrxQwTMer4WDV8GL5ZPPNcF4JeuZp6cF69rOfrd7XX3/9n//8Z9WapA84rxonPgRCIARCIARCIAQmT4Cvwm8pR0rAdPibbrpJgD8j8zqk80hf12ScrZ55Wiqx2Wab2d9www3mxdfnETlbkweRHEIgBEIgBEIgBEKgtwS4KHwpedqXu+KLh3wYnsxzn/vcinfIJjwZf6ZnnpZKrL/++ibFP/DAA9Z6qCpOxgeUQ7YQCIEQCIEQCIEQmAoC5UXV23umlfvrrcP77ruPJ8Of6Sxxkms99MzTUidfP1xrrbV4VxdddJG/Apmn1XmrEg6BEAiBEAiBEBgQAlwrjkrbq9XPfvYz3UbWd6h55/VW32R6s+pKe+Zpcaqe9KQnVYebunIA42YNiDClGiEQAiEQAiEQAiMIcLNMKzfZScBcc0fPP/98e56MbwyWE1Z+mHlak1kltGeeljqpX03VuvHGG++9915/K1IgWwhMLwGNEtJYW9VEWEC8jS4Ja778/d//ff2tGOGKF6j0/tJMe39L8Vq8yGwhMDQEOu1KKUJdWgsLtHC1q0trhGvxoXmpRjtraFjlQmYoARJr3SyCaiOWPido7pPIzTffnPyXPLu0WgOi9t1dac88LdplM3rIE1TdX//616ouprtq5awQ6C0BokhtauvMueLFlP9E2RgJoiuGXgk7RYunJRPfvDEJOGcxG508Ex4OAmau1NObeDM5FRaosEibSBsVEEl9WCyBsltW2aZEdMfR0iZYKmXswnBIyNBcBVEnmR7mhFknkaXXfVV67bXXFkPI7V2pgH2T5C6uvZeeEDVbZZVVVlttNdX6xS9+Qc3+9Kc/dVGnnBICU0Gg9IRwsgpUi3xWKcIi+U+UioUgxgK2sh/2kkngdOH6SycFnFhv/wpMRYWTZwhMF4FqY5B5akIXVEN4jlrMDossdRCudggH6z/+4z/8pReU6MlPfrIEYmpcphRE2InCpUQSZwuB6SVASom6raTXxCfyufLKK9cSD472qno987QoD/NjqtYLXvAC6vTjH/+YPTOBv1cVTT4hMBkC5JNYkslyqjz0hStDakZ0mQcJFllkkYqkb9IstNBC9VqKBI46xNjIQUBMWSA5S1lnZR8Cw0GghJzMl9hXS8OllZ8kkvDb118GqVSAUkj5tKc9TUph7pe/klV8RUrp73BQylXMdAKEs/z+6pH9wQ9+4Iq22GKLEt32hC+Jlbjr6/3bQw45pOuTO0+kbFUbBuzkk09+6KGHdtxxx6WWWqozTcIhMF0ECGdpFL9KgJQKEFqWwCFv9lpx99RTTz3xxBMvu+wy7RtK5ZBV7HwA6+6772ZRdHpRP4md5W8poTQCYiajhNPFJOWGwLwIlDwTb8pC5v21EXt+Emmv7bHHHrvlllt+8pOffPe73/3e975HU6R3iHJ5/pvvIoG2CsWha06XlaNKlOG8yk18CPSZAJkkmR7jV1999Uc+8hF/DzroIN1aFVkSS3oF7LuuW8/a4mWBaNomm2zCwbIixTnnnLPuuutGqbq+NzmxhwRKT6gTEdVNVb2tt956Kwtx5plnWhS4uVPViUWpmIfrrrvu0EMPpXJ8LMPiXkjZaaedXvKSl7AfzAkTUnrYw3omqxAYEAL8KlrAtSr/yZO8wuaEnHfeeZrT2iS33Xab1ghNKSdMSsk0VD73uc9VC2TxxRe3LtH222+/zTbbGJFxtLKdjNEaED6pxnAQKEH1JP/hD39oZGPZZZclsQTVY98Fihcm2P6S864v+X8Xoe/6/HZiWbL6u/vuu3/zm99kkM444wzK2dIkEALTRaAaKGUP1OHSSy/9yle+8o1vfIOdKC3iNq266qrLLbfcoosuWu/3EukH52ze8LjzzjudS9P4Yeutt97ee++95557PuMZz/BXZHld03VpKTcEpoIAvZAtLSjJ91ev1de//nWK44Un9olOMUIrrLCCprXFh8QYfKcRf/jDH373u99RGS0Z+sUEyMFqi7vuuusb3vAG6hOjMBX3K3l2QaAJuXN32WWX008//dWvfrWRDcJcxqIMh70EpL3rFkLPPC31oJMqRIto4+te9zp26JJLLllxxRUdyhYC00uAcNqoiu6rT3/600SUPVAlBmDrrbf2Tq+9abyLLbZYqVPTKF7U/fff74UU66ycdtppV1xxhROl8f3R/fff/81vfjMXrSWe3mtM6SHQKwKUpaS6AhwmKvOpT33KmCAjRFO8nPXSl77Usj6e8LRGJzGj1ewTrdFIMXr405/+1ODGBRdc4CMnnLCnPvWpe+yxB8XRQ9yrqiafEOiaAKH1MCfkemd1ZWlLHH/88XvttRdPRiRnRoBU174Sd1mW7Hq1VeXkZtZLzdD64he/6K/6tX0FeIsC2UKg5wQImwe6bD3r7YWbWAofffTR5fpTHs/6I444QrPbYEelrMrU6fKxVUzt/ZXVhRde+Pa3v9033tkh28tf/nKv2UrQRLqdXoHOHBIOgQEkQFBLtktTOsXeIYL9y1/+kpwzMARer9U//uM/Gjc0zlLX0vRrXpdGv2iZ5o01gGRC9ZZZZhkdY060dRbXGZ5XbokPgR4SIIFGw2V4zDHHEM4ll1yS90IOey6KszuierWpXFkX+1e96lU0ygAig+fvHJ36X6Xq+TX0qv7JZ2gIMAP0p7wfXVBE7tFHH91nn300X6jTEkss8ZnPfEbzhWSWm+XCyzMTIKv2TrF1AvG3DtkbPdFrW2ZDM91YuZQl/PJRboWb+9WZT8IhMDgESqRLC4irvxVDgEt6v/3tb5trRdS5Wdr61157LcUZf/2b1gjo5aJ3jJmsZPjWt76VnuotkxttbSnHn3lShkBPCBBCL/DxWAxwk0PPcPue5Nwy6aWnVZmWjfnyl7+s3qa8eKVLfEWqfc8voF1JAiGAQNmJMhKkrkyILxa84hWv8HA30rfDDjtcc801laxJo7+dYfm0v42qGFuzQAKmeRkiN0/LfHkmRErFNe+q+XAthwRCYNAIEOkmsepGqsv1EaYURx11lIV7KM7SSy990kkntco71M4SKG1qRzsDMvS3ug0qGV9NC5yzZTP+6C1FCRyqo53nJhwCU01AO1wRN9xwQy1NcsIJJ/g76J4WpVXLUirTIXURG+b813/9V5Glb3Sp0tRefLYQ6DkBwkbSyukhaQ888MC2227LWpjnfuCBB+rcYhukcUgagQpXNWY/7/8ipSMqJr2tRVbflWlbW265pUYFUT/yyCPrqAzjZjVQCQw4AeKqhsS+OU9kW+RnP/tZUk1xNt10Uy/h1nBhqcAcLZn9MHdKO2telymB9PK0OUXObMQBBxxAa/Qxey3RFC4JnN6pX/PKLfEh0HMChx12GFHkseh2LXnuuSj2sk+rqkiRqpb77bef2m+wwQZsWylSaRpM9bfnvJJhCJCxTgF7/PHH9WZ5ppvD+/nPf74ks5mWEbgIcMnwiPj661wb0XW6dr+Uwjbi7aUVBkkpBvsrTe1HzSeRITBoBIixKhFpsl0qcNxxx1nKhFSTbS8SirS1Z3urPzkXb99iRgQ0ORwtjXOoTEAV96UvfUkRerZoKD2tNBLXNiKf/A2BqSBA2MjehhtuSA5NQFTEXwRwniLdXTV66WlVDVRUk4XaXHTRRTWwYvGVOtQUtTStuxrnrBAYgwDxc9TT314r3FwQ1oIWeTmD1DlKCB11qFK2rByts8SMRz6r16ry5HgxSDwtQy0WZSlvr1WjFZFACAwagRGiXqJrJdLmZrXBxCbVLsFZpUfjuRzmoDSrlKVOqRijk2wE9bT6Q8XTyraNJ/OkCYHJECBs55xzjg8d6hXyniwhJ6WEU/xksp373F56WirX9FaYiparuO+++9ZoqOLrAlqyuSuUmBCYJAEyVj69ZVE8xHlaBg3ryV4jIPIvCWxKNUJ0x5bPaqa3SiqLfhou9967srzSaDRETMW3ZAmEwMASKNNSOmIJXyuYaDasueaat956qzqXMAsQadvcV1FP9bnjxVSeAvwt+QjIoYoTcOJ73/teSqq4r33ta/52bqNmmMgQ6C2BN73pTdwsq1Lr3Go5k8MW7kmgZ55W0yhWqmmjacJsj1e9LEdUfQBNkXpS+2QSAqMSIGY333yzNRU9xE3SMsAnmWe9fQlnPfQ71anCpNc2ap4VWadLTJ6lFLA5ZK9JZGEhAq8jzVHbGPnkUAgMJgHdSwyPVz0sIKeGbXpWe8IT9Tla8r+Tbud7FU6sc+tE6UtlqJJ86KYJ8rTG8iuzZs1yqG3zzTkJQmCSBG688UaiTvzqlaYS1HqwTzLnEaf37PtTlFN1a6sww7bbbruZZaaJf+yxx3rtywVIoAbV0/CX5PkNgZ4R8JiWF4WhOfx7C5MKmAsv3jiFvdYzCRSWrFMOK0x0S3rnVaGaIywxeZZSwFYi7TtUH/jAB5xoAsrPf/5zCRRX+jav3BIfAoNAgL6oBln9yU9+Uq9fHXzwwVr5rW4e3RSn/hL4OVoy3vWynVjn1okyKZURKR8DNzRUa9zSkSYmUxlH7cvmVa38bTVJIAS6I1D+Uzkh1QyWj/fHvTK17LLLWt+hCXk92LsrZV5n/Z97NK8U44ynHpWSuqqxvVWD2blXvvKV4r/1rW9ZhaUuwKFx5plkITBRAvUQ963QGoxgMAyCcPrl45CtAhPNdr7pGQPb61//ei9qScxmMBVTV9x865MEITAeAvU05vR4aNsOP/xwe20GS2eZqqXbyUNbPuUqkfDx5DmeNHN0cfY3pyX2FSzf9BWwdteVV14pUkHaQuX/lRKNJ8+kCYF5ESBLZJi0l6hbl4dcedWDpyXwspe9TJdQSZo0JZbzyqq7+J55WopvSutiSidpi24trZZbbrnl1FNPrSr2UF27u+acNdwEKIzl3Ay6P+c5zyF+5I3TX1rkwlugtxCqFWFRln/6p3+iCPoGfvzjHwtMUXG9rXxyW2AJkM/23D733HPPPvtsfbFeG7ceL+PkAV5jEdLQo/K6esKqjFk5cPqJNch9C+Xhhx/WHyz/6nIWr1xbT0pMJgsygRqLaARK/Ei79T69xvTa176WbJO0ck6m4qHdY0+rtEKlbSptMyn+xS9+MaU1gGjI36W6DH137ZoTCIHeEjAMccoppxCzN77xjdbOJXvCbettWZ25kXnTv3baaafnPe95etHafPzONAmHwEAR8MSmGnRErbRP/OXxaOLrzap6lk0i25L1sOatNa5Em2Xo99hjD+aQ5hr0VxBVUmKV3tuie3gVyWqmECgxI3VE3d7GG7Huj/r74u0666xTkiYZYSPtPb+unuVYVeRauZJWXZXWnfCWt7xF1S+//HJtJgmoUzVZen4xyTAEyN4ZZ5xx3333medo6J3gkTdSN9VkKCpp1wFgzKVaSLq1ymZMddHJPwS6JlA+FsNz++23+6Yn9dlzzz0tPkdrRJJqGiQg3tZ1KaOeKGeKaZOzImirdpFJM2eeeWaZQ2c5FDdrVHqJnBABUlS+FKkrmTfmcNVVVxlGtIyWPQmsraRuQpmPJ3HPPC0K42LU1b7pZCmJl798dcGiD2Y+tuUexlO5pAmBiRIgh9///vedRerMcxQovZpoPl2kJ/bKos/bbLONNvpdd91VH59u6tBFnjklBKaUgEYvlWF+vDnr1SXvjnhWk2GSTG7Fe4ZL4G85Rr2qTGlleXJlAldaaaWtttpK/meddVYVrdxqk0eDeoV9Qc6Hc1JiDIJRtSOOOEK3FpEzK9GhIkPkpghRzzytVj+VppN0Q6Xt69osWaGtT5kvvvhiqitBS59ACPSQgDaxL+TIcMs5H8khfvqZepj/vLIqma+eAMsRrbXWWlISeCrQtnmdm/gQmEYCZV0MOFAWA9/LL7+8ZzgXp57S9RjvucdDU+iFq2YOZF7OluUeRPp8u4+i1CF7h6rFPo2IUvRMJ2A0vKSIPJO9C+ZsYnRolYEgZrbShamQt555PGVpqrruStXVvhwvU7W8M+xqvdvCnazrmek3L/UfQAI33XTTPffcozd4s802Uz0PbvajAlNaW6JeHlWp9MYbb0yBDcdUoWVUprQCyTwEuiDgiU10TYryuq7ARhtt5ElOhsWU4vjrGe6JLVKgiyLmdYo8mwOnGpKxERrkOoMtrOVvVUyhAvPKJPEhMB4CRIi88bHIs4G18kNe9KIXbbHFFgSMtJeYtQbAePKcUJqeeVquxKa6tqqBSxIoG2O2lk+KugwjO6eddpo05Wx17mnyhKqexCEwNwFD74Rq5ZVXtkIP2fMoJ2xEkXDOnbhXMTIvORcg5PZee2Q8DMeYnq90R0WWOVG9Styr0pNPCHRNgHaQTBMKLQ0vk3XXXbe0phTHocqZDJdX1HVBc5/YMqcRmiW0Y+mll6a5Uv7qV78qfWkPg/LNAAAlzElEQVTWZO7TExMC4ydQPlY1Hk4//XSTtMS84x3vMCVRJtWtVR5LE8vxZz6elD3ztMYuzBUaEDWg45I++clP1nslVNq1UbAyPK68TNHYWeVoCIxBgGfj6FJLLaVxLFCiVfsxzpr8IfpZVoEMCxuC0brw1rolWxiS0uFWnylS5slfRXJY0AgQV8JptO6hhx6iMuSWcJLY/nCgmLZSB+rjffsll1xS0b5tpQ5ibBL0pzIpZbgJGEzjY5gv/rnPfY5DokNrhx126NslT7mnRY1dm/YQH2v//fenVNorxx9/fClYuVyull45ZOvblaegoSRg6MF16dAib02c+vmwrkJ9CMgIpm5qzlbjTBfUpHldLT6BEJheAtwsskpi6yWS/ugLTamCmkaoAM2FgqfVlHd6yaT04SCgRUG6uBmG1C677DIOiYUPxfTt6qbc03Ilrofa2HbccUcrtXAnOZWWjBdgDimbhouwlP3R8L7BTUH9J1BLtVWHVpVOqMjeVNekiS5hptWLLLJIFWpMvBysqkYZlZZ4qmuV/ENgbALElfmx/JsAia3BlD7oi0JVTEGtrIphLOjIY489Jp4eRVPGvn05Ok4CxJuQ67s95JBDPJNf9apXbb/99iVy48xhksmm3NPSa6XLjv0re/Pud7+bMl933XVHHnlkxdfVCguUHZrkJeX0BZmAp7PLb4JU/k17mk8dmU6ToDhtJnuRVZ+pKzc5h8AkCZSglqbUZKw+6IsiaqvKN/VhEcWk4T3Je5rTRxDwHDad45hjjrn55pt9yeOd73wnSWtSNyLxVPydck9Lr5V6Vzedq/UWsTFEAWtrXXvtteLpNr2idSLtp+Iik+eCQ6Ae32SJs1VOfH+Eqny7cq2ENZtKjZVeTQgBMcK2/lRpwbnpudKuCdRTV0O3AvZdZzWhE5sKUAqbv6VBKkBBGAWRatWSTSjzJA6BEQT4VfwNc8TFc7M6v54+IuUU/Z1yT0u9aU7VvnRpn332efazn2308KMf/Sh1cmi2qs15TaylnKKrTbZDT8CSoa6x5qEL9PlJTYyLsJUm9OMyGJaCbHVwVLilGfp7kQucKQQMdnNrjD94W7ZvLYFShE6N0OSulbRqttZMoZd6Dj4BHvzHP/5xH8P1JWkeCNkj7dWB2p/K98PTKgerJqzQJZf6nve8x+WdfPLJPt4uhpJL4+IrZX+uPKUMJQHSRZAYjJK3eo7XM32qr7cEuDqlTek1xdi31fVUl6dVrYgKT3VNkn8IjJNAiavvSdtIrBdKPJDHee5kklGW1q4u9bQ3k4bmqpLlHmiKmvTN7ZvMteTcwSfA0/jWt75FqD7wgQ+QLsJmtK0/ol5wptzTKi1SWM0AoEWu1qd/fdaRm+myvZxV5se+pjMP/m1LDQeQAEmzrbHGGgTJWg+6tVSSRInsg0YRZuXaK1SglvVabLHFeH5VulZENSTKtg0gwFRpASRQcvvMZz7Td0IJ6g033KDdiwOtIcYFhLvjb2/htMx1LVTmSuHqaaKo0pprrukvfalkwr0tPbkNKwGyZCMwhLnCrvT+++8/+OCDtb19hMBHaR0tuaoHcn9QTLmn1TSqXU/FHHbYYabGs4gf/OAHXTkK9jWdq6VMIAQmSsCSoRorBu9uvfVWmkaiiFZ5+RPNakLp+U9WM7FXnHLNCVCNlVZayehhmS7ibas851aKCZWVxCHQKwJlbHha1negLJdccomc+ToVT5L9rTDB7mGLRc60QIbUhIJQDaV4U4rmqobpJf7a1ERKgV5db/IZbgKklFwRmOrT8df1HnTQQczB05/+dAHz4h0lVE3I+wNk2iSYRdxvv/1c8Ne+9rUf/ehHbGFdf38uO6UMK4HlllvOY9rVnXPOOaTLE5xoNRdnSq/auosKouGPPvqob0vTZO9/UGyFqoktDtaU8k/mXRAgk/p97Z///OfrXrLYoRUWyHBlRZ7Lu5KAP2TroohRT5GhB769oypQ4fPOO4+arLLKKr4cSn0ckkCgP/o7aj0TObMI1JggB6tkhlz95Cc/OfHEE4kxf4OQO0TGxBPyfspVvz2tUq1Ss3/5l3/ZfPPN9Ri/733v05Sh5+JRmFm3NrUdKAL6kDbYYAMmwScXKFU9wfugUcoq6bW/5pprtM7VYZtttgGHSNuqJgPFKpUJAZLJOOFgYIXE+rrzjTfeKLJUpjoGmtMjvofEFFEFaQsJmKR11llnyX/TTTe1Hp4YmwqoFZ3qYbnJalgJNJkpiSJgvIs3velNRMuK8BY9cOEO2VfKfnLot6fl2kpt6I/RQ86WmZhXXnnlJz7xifJGi0I/EaSsYSJAunbZZRd7M06sBUzZ2AnCNtXXqAhNcy0nRZt6SZNXX331+oqcsEjbVNch+YfARAlQEJJJRNdff/3VVltNe+DrX/+6v+KrY6CcLTFyLpdrokXMK71ySzEVSnd+/vOfc/JE7rTTTuVgqcO8zk18CIwgUCJaMmNPtMQceOCBt99+Ox/DPC0zEcUTsNo8qwneiEym7m//Suq8Bpdaf1/84hdztlz/scceaxix6DhU1DpPSTgExkOAMdA6X2uttQyCHH300XTJU3s8J04yTWmvKSa/+c1vvvOd7xBpyxDXEg/qUAIv0ka2I96TpJ3Te0WAdvCoaI1upFe/+tVkVTvBB6fLByKuCiqDRGh7q0rNCqiAQfavfOUr3o5aZ511tthii7q6OYoy+3WWqkavLjn5DB+BeqKWwNiTWGJzyimnfOELXyA81jp44QtfaNBMWLzLF9C5RfD6hmJ6PK26PERc8L777rvtttta6OLQQw815tK3K09BQ0mAjukc9XKrgAHEq6++usRsqi+Wrap+ae7d3Xff7UXi3XbbTR06y1WTcsgEOuMTDoFpJMCpshFgr2VZlOS+++7T7mWEyLN4j2h1s++5WWLzbHRBQd7VPeOMMxS09957W9xLWTaOHX1Rh956eNOIOkVPNQGC6qlLmG+55RYfpBHeaqut3vGOd/zxj39kFwgScVIH0mXfz+fwX1mCqabQmb+LLEWiVz6D6BPus2bN8tHHUa+/n0Q6K5nwjCNAVKiZ/iSDd5rIH/7whz3NR3g8U3FRimAVjINrmguYHGBWbxXUpLfSiGwxU1GT5BkCEyJAQagMO+RV2be85S2kV2vBR0uM6MnHUXvP6ia9E8p8XonLIpaHJw09tSwLndWv5q947peasIiUJfoyL4wLbPzcIlExxJho8av4EiZ/GzE86qijjC3Ul3ClqVVFDD6YvCVx/wAqe7o2RErJ6fnxxx/vsqmWRR/UBw6RVTHJpquGKXfGESiJUu0vf/nL9cj+6le/6i8pKkGqfelbe45P9DJpaecpJass0ytf+UqFWkNLx4C/nWkSDoHBJFBaUGMrxg2XX355TpW2CiEvZRmhJiXts9VpzpOZxo3/utopFSg9oqHVHywwO9O/bOPPNikXQALExFWXNJYQCtff97///Z7D3KnjjjuuWYTpRTS7eT0tW6EpWCrg7wEHHEDDNZ70ClSVeKbi7aelhil0hhIoZbO61a677krfNGu8u+5aCFsZD0LFeFSyiV5jya2zvNVSOZRdEGPSZak3g1HJjIlPNP+kD4E+EyDArVVApE866SRibDvkkENKZdSnmr6OEuxKLFDNlTo6rzpLVmfJitKVXnRmcvnll1vNS3FeZKEvpU21n1eeiQ8BQlhCQgirJWAvBhkTvr1sR6L02tShQcA1bZ6Wiy+tK71lt4z1WPRBtxbF87JxJ6NKOQi8UofBJ0BaSniM5ZkvReVe8IIXkC41r4a7QOlkp4yN/7qcWz5WawOI+cEPfuDbO8rSGVDZNjs0/pyTMgSmhQB5JsMUx14TpYbwjLmcdtpp6uPhLL4pi3BVUvo6Zb51Ln1xoqaOU1p6I4aWOPLM97lSU7XES9O2liyBEBiVQPWJOuRhW46EhQzLcfdehfmyJbR1aNQc+hY5bZ4WdWrX35r+FiLypjFz5VPb9957L52Esml436CkoBlNgGipf+010DlA+kpf+tKXMhjN0/LoJ1eVZkIX6xQnkkz7ysT+wgsvNNGQ3G6yySbePSwfi3jH2ZoQ2yTuPwEPWALcqTLqYAxxo402ojWM1gUXXNBqVZIvva0inTjCeWqJK1AqQF/aKcIV+dBDD+l1NiXLHJpaGEVubRuRT/6GQCcB4tREpT1mya3FSjjuK6+8srfrKn3zxjpP73942jytUjz78rfKCrr+73//+4suuiijxTSWB1YpG9b+M0qJM4gAaSkfqDqciI0XqeqVE6s/mD7lqMuxb/o5oatrcussrX97bzhqkZNYn1y0iJeYkuru8p9QZZI4BHpCgJpUPkSXJyTs1S1rtXOD9AqTcDGlOJWstTTqxHZ6HZ17L1tbKZ3ETmcUd9xxR1pjhpZX8Z3CEFTRc5+emBCYm0DrqSFajlrWpyTKV3fOPvtsMRK0p/3cp/c5Zto8LddJ5QpEkaq9+M9+9rOaUzRwzz33LByMlsRt6zOjFDeDCBCSqm0F7MnYEUccUa8y+XLtueee2x7oXThDJYSVg5wtTWKQhcFYb731rrjiCkeJcUlyC8wgeqnqgkaADJe4CpT0IlCtlOuvv966dGTbwo8f+chH2lGdBK2foBTBoXlxa7qmlDKNzr3ooou8mcuNM5/mU5/6lHOVPq8cEh8CcxNoDemSPU/y173udfWGLIkqkSZ7AuU8zJ1Dn2OmzdNqLJAqNSvtFQ/QP//zP9Nwqmjt+IqRrG19ZpTiZhCBkpbak6j2oPcqorWCymx87GMfq2lbZV2aXI0n4BQbIPwqbxoSUXmaB2ZOWFGSiYAKzCBoqeoCS6CskcsvqW4cxNsMwZBtEm4z0md2RyUj5CTcXpqxtUaGErB2deL999//yU9+kuvGKBrWt5xEJZCPNNGaxj+B+RLweC8JlJJ3RUSNG/qyH1kibPbiKzzfrPqQYNo8raIw4gqbs0XluKjY+Wqv9TAk69TnEWflbwh0Emg2oz24K/DDH/7Qx6d1l9rYj2984xs11bdTtOYbVpCBlfe+970175LBMH3YoGRVoAlw5VPa3lm3hENg0AjQDipTOkJuS2ir/0mk+bJ77LEHOfc09hqv97n0dbmE0jLpBcajNY888giNM5GROZQVTfSVQ/lUl0PLbdDgpD6DSaA9Womo+SG1RNQb3vAG4tRZ4Uo2IrIzQd/C0+lpjXqRBQU+k7S22247amlVjJNPPlkMfbZ3VqVprEfNJ5EhMIIA+TE7xJqitYod0fLixeGHH37TTTd50DfBq4e+c6WvHOrQgw8+aOa75YZXWGGFshZGQI477jhpnNKMzYhC8zcEZiIB8lzNBpUn3hYuMWFLE4XkL7XUUrTg/PPPf/TRRx0t7ahrdJbHcj2rxVQms2bN0uVA13xyh49lxNAnHDROKn/pbXV69iEwgsAIW19/yVW1BAROPPFEEkUsTcM1UiGmthH5TPvf2d8WJf2Ds6kPUppQAt7S3HnnnXVZG6MB1JdHSyf5XiosQRm8wal8ajKwBKgoKWIq1PCnP/3pxz/+cV1cTAIR8pUCb6zo5TKLy6uvyyyzjJ5UEkiZvR7lXULz3H3Vx/vDRgxL5HRoaT9x2iyrXXk2PYpMDqwMpGLjJ+AhTLCpgIctT4s68I0+//nPf+lLX9LkkI/myoorrkhrvKW46qqrWu/UTGQ2T2IemJ6wa6+9Vu+Xr7zbdGjRC3n6RNU+++yzzTbb0MdaoZsOyq2USCDqM/57tCCkZPHJXgmPvc2T1lYC8+1vf5s4GZpYd911v/vd7y633HIOFRYpB4rPwHla6NC98rTAMv2Fcup18Ba9Fcl8IZG6SgN0MR00oAN1d1OZRqAsR7lWhIcC66BiNjTN77rrLsmInKOe/jYGQwLJNLu9YFgiV2n4ZBpPGuU6tCrPVkQCITA0BMh/WbWaidgMmKFzg4CsGkeKt0RHaAHd4Xh56URifzlbDsmBQjlR/GKLLbb11lvvueeefCyndD60pRkRMzQMcyE9IUBCCBUpkhuhKoEUqansK5m//e1vvST7zW9+c8MNNyRsnaLVk9J7lcnAeVqF0psFuppLhy3w/YpXvOK2227zLr15zTvssAPFlgwCWIV7xSL5DDeBaqC7RnLl4V6SZmjDKtXnnHPOJZdcotXuVWEtcmnKhAhoqfPytZY23XTTF73oRWuvvbb5vHKg1XTevoWHm16ubkEjUHaL28Sq1dMYgdILUzs8lktrbrzxRl1WGiT0SwIPZCdKpt932WWX1eO1+eabW57UmLt4CehdPbfrr7BtQWOb6x0ngeZmkRai6JFbj26T/N72trf5sqGO1VNOOWWDDTYo0So/bJyZ9zPZwHlagIJbvNiwUsJLL71Ue+jWW2/1Rj3v1fwtrphubdD7CStlzVwCbbSihIpcdUpa6fMDDzxgwJqzxWy4UgJmM7bI0+Lll42xd6JMWBR7yUrzB1bDZ+4tS82nkQDZLlEn7QJqQkfIPHdK74IYf+3pEa258847jbPrAHZUJLdM+8S8LlpTXRH1SG/6IjfZ2pxua38FqiyBbCHQCJTsNQnk4u+11171SXIjXRtvvDF/gOQYjihxaicOTmDgPC1oaGD1N5QPiy911eXwmte8hrOlI/rf/u3fvPBFscWnT2twhGmm1KTsAeEhZmVR1JyrJCyGupYNIH70Vry/hFCYMksjvub2luXwl0M2U6499QyBcRLQ3iDnJfMes1SDFhB1expRD14qUHpRKtOZc2lNqVWlt5dA+hGJW3zn6QmHAAL1TCZF5LAE79RTT91vv/1q0NA8LQsZStOkUbLB5DaInhZDCBy4hYwlq4bRxRdfbFxWZ7WeLcOIhhQlo7eDSTa1GigCnuYUsp7pJVrEjNkQWcrJkAjYWsr6W1fRjIEAkavEAjYJKquBut5UJgQmQ4BVK+slk7JwtEaAUrS/hJ862KQRpkoCFWNf1lF7uJolTUc6Fa3Up+ngZCqcc4eSAEEqIanACSecsP/+++vNMjfLfEFuFjGrQ03SBpPDwHla5VfRPXxLpblZIv3F9Je//OXrX/96kzGtemdR03333XcwsaZWA0jAI75cc3KlesIlbDWwSF1tDEnVXLg03FkEr0WWZJZDJoFkMtENNoDXmyqFQNcESv5pCiEvaZeVsJjmgXVm3vRFZAuXC1Va1uLb0QrYS1Z5tpSdOSccAggQEitrHnjggQYKV199dR/KfM5znkN4HCKW9ZSel3AOAsCB87TmBQXo4jhr1iwv2Puegw4J3G2lpY6yiJLhbnMPbAJ1J8T7O+ozYl4lJj4EQiAEQiAEQmCqCTRjraAy9Ex2daCy2hwp34PybQ+++JZbbvnFL37RyrdTXaXe5j+TPC1XXl0O3kN85zvfedppp4nZfffdjzzySB+ldg/qaLlT7T65ba3LoSJ7SzC5hUAIhEAIhEAITIYA61w+VvWh8q50lOg9MVb49re/3ZQsCXwS6tOf/rT3WCdT0LScO6DTx+Zmwed1A6xR5masuOKK3jh461vfKsYbnl5L1NFVs+PL2ZK4cvCXm+UOGSESIzB3zokJgRAIgRAIgRCYLgJlshlxNtqUPj6WMDeLZfddPmOF4vlbvlXAzSprPl1V7a7cvz3kkEO6O7P/Z7kZ1Tul+8raklYx5fZa79u6pj/60Y/WWWed+l5E3TM+lqPC5XvVVJsK97/mKTEEQiAEQiAEQmBUAlwrfShMdjlYAoz1BRdcwM2yxDTzfdBBBx122GHermD9DVvNOFM+wzwtN8n9KMr21h22Pp6vPRhP9PKnBSAslOeeuU9cYPdMGuEaTyxPecbdoVHlMpEhEAIhEAIhMBwEWGfdKCy1AL+KmTYpyBtvPoZmpeijjz5ah5ajuk7q6Iy76hkzTwtZPpM90HBzp/i2fCkxZsf74qk1i0VaN/bggw9eYoklKr3EApVeIFsIhEAIhEAIhMBAEaiJPdUPYuV33Vdf+MIXmHhfPzP/3RLweli8A2f6kI/SDlTNx1mZGeNpAc2l5Wxxnri9oLtCt4d3Zc/zNUfeh5CM4Fox1mpb3k3gh9X9KxbVv1W+1zjpJFkIhEAIhEAIhMBUE9Ahwspfd911viprnEpxvjDL3/IlNLbbxppL09yAqa5Pb/OfMTPieVSunJ/E2eJm8Xb9rc4q6H3u1zpm73vf+xyymrxRRR8P5pC5PXyvdpMEeosvuYVACIRACIRACEySAMt+7LHHvvjFL77iiivYdGNTZgQts8wyjD4PzNFysxh0RydZVv9PnzF9WvNCg76NC8X3sj/99NP5Wz44z//dY489zPf3qkL1Y0lWY472LaayLTduXkUkPgRCIARCIARCYJwE2F/muGyuU2pIqiJrYKrC4qVhjr3W9sEPftBHjXlRq6666kc/+tGXvexlchga0zzjPa268TVnq26h2fGWM617Zp0tH0nceeed9XW5qRK7ke6x+2frDLip45ShJAuBEAiBEAiBEBiDgMXcF1poIY4UO8vslnW2d0p1SjlUZvcrX/mKVwt9ylDMS1/6UiOGz3jGM0z+0X3V1sIco6AZcWhI3Iu6c1xjN3L55Zc/6aST3C3fk3/kkUd8i/pNb3qTiVxuqo2/VQ6WvTvE3xIjfkbcrVQyBEIgBEIgBAacAEPMzVJJgTKvZaOZ3TLT5WYZfdprr70sjXnvvfdauekzn/nMv//7vy+11FISs8tD42bhMOP7tNy5upHuqNtTnlPd1EsvvfTDH/7wD37wA66xpbY+8IEP+Gai21+eVnOo24kDLrupXgiEQAiEQAgMPoHqyGBby1sSqBk7as4cC3OkvFRowXedICJ32WUXE7PWXntt1ry6spzCRtfyAoN/vfOt4Yz3tOoK3ZK6tf6W4+VGup2+720pjs9+9rN33XWXEcatttrqQx/60GabbSZ9JahhR/smB3y1+VJLghAIgRAIgRAIgXkRqE6Q5mOxxdYdlVj8+eeff+ihh5533nn++uLLAQccsPfee9d6Wm3EkIFmyofGHM94T4vPZDy41tiomyqm7r1bJaB/y4r+psZb0Z9H5c75QPV73vOeNdZYw1GnuPHucTtL5NDc3eKQfQiEQAiEQAj0jUC9+F89UixsmVe2+Nprrz3iiCOOO+441tlm6FBXlqUD2FzWWQLelfgalWrLOfWt2lNX0Iz3tMpxdm/cqurNqptqb3PDJIDPobPPPvv9739/vUFqZXlrnFqC1sy7ueHG05qbSWJCIARCIARCYPwEOE9llBniO++88+tf//rhhx9+//33y8HX8z72sY9tt912DknWfDJ9Hzo+xBhlGiZDPOM9LfeML2Wr4T8ul5jyiEXWbatIt+3hhx/2iUqDiXfccYf0K620kvVOTZnnb3HLmgAN0w1uF5VACIRACIRACPSBAONbPpay7rvvPksBeEfthhtuYFuXXXbZd73rXT5o6Ot5DDRjLZKNlp4Vtq9wuV9DY4uHwdMaVW46PafOBO7czTff7K57s5Tj5ZBhRB/zee1rX2uyPPfLDSYltQa9o+66U0oIxBMLOdftL2GyL3+us5SEQyAEQiAEQmA4CJQ9bX5P518Wk1lkItlBBrQspgQiH3zwQZN2jjnmmF//+tc4PO1pTzN1x2iSFbMklhvrqTerLOlwgJrXVQytpzWvCyYHJMDRK6+80oDxKaecUv7Waqut5huWu+66q0VpHSUH9tVPRmiIgj1hKuGoHIwikxKRVZY0tjqlYrIPgRAIgRAIgSEgwCaWEXQtZQr9FS6bWJ4Wy1jemFEjX2054YQTrr76ammsuPSKV7xi//33f85zniNBm/bOYjqxuq+GANEYl7DAeVpYkJhyldxv36X2rul3v/tdYZ6T8URz9Cwuz/EiECTJnhyQhjqlxTRPnKyU9ybNGKBzKARCIARCIARmIgFGc0QnQrlZ5SqxgNWbxUqa825NLENGlm9wlpk522677X777bfppptW75cTbcylc8sza68lzkQy46zzAudpdTrR7jdHSswvf/nLo446ypd89HaSAMKx0047veY1r9lyyy1xJENSSlbyIYFAhR0VsC+3jLvWhh1FZguBEAiBEAiBmU6gehMYO94Sg1h2s3ofXJqj7ONFF11kGrQ3zx544AGRxgp9UWefffbZeOONK32ZTmFHZeUUAZEVIzzE2wLnabmXTWjcabdZTN1pryVaXN77Effcc48Yb0A897nPNa78whe+0GuolaxEjYQtIPIxxKKfSwuBEAiBEBgnAT6WlPWSYOtfYEytVcm7OvHEE3la/vLDTHXXT2HO+wYbbMDIOlEHhED1RIxwsEZMwhlnZWZcsgXR03KT3PuSGPe+FtOq28+F8qLE9773PR8V19FV8mRJCEue7rbbbrq4fEhRZPPKS7BkKCCy/LYZJwSpcAiEQAiEQAiMQaAMH0PJ2LGeDOXFF1/8ne98xzKkZmU5kY+l+2r33XdnK5dccknpjR6Wna0ZO0xks55iZOWoSGHnjlH0EBxa4DwtUlLdUXwsfpWtbnPzvdx+m9VQL7zwwuOPP/7cc8/15UvSwCEzi8v6H9tvvz15WmSRReQjJSFwtLIlRjIcArHIJYRACIRACIRAI1CG8tFHH9V35Rt3LKO3yhxl/hZffHGdEdZL2mabbXy+UErxnCf2sXofWEabvyIddUoZSpHClXMraCgDC5yn5S7W7S8nqbylkoaKd++lKefJ3icwzzzzTFPmf/GLX/DGxEhmYYgttthi66233mSTTXxRUXqeFtEpuRlKQclFhUAIhEAILJgEbrvtNis1nHXWWXqwhA35MYU+zfK85z1v5513fslLXrL66qsjwziKL0RlK9nW8rE6XasytZW+ErSzhhXvguhpdXEvvRzhlQpT5m3XXXedvySDd2VJiHXXXZfXZWBxlVVWWXjhhas71CHiVT2i5X6VK6boEjviVbJVR1uVRvxt8QmEQAiEQAiEwNgEWJBKMC/7Ukf5Os31EdOZuHqY5OP9sBtvvJFrZXjHJGbz3A0EsVxs3FprrWVFJFbv+c9//qj1qQxHPbRgRsbTms99bx5SyR9RI3P6t0499VQBsljdoXJZaaWVTADU3WUe/YYbbrjEEkvUEHXz32UlWcl3+f5NvqsS7S8pJ9DzqVkOh0AIhEAIhMBoBBiRZkeYm7I4rYXvjIrpdIn+8Ic/+FSOMcHLLrvsqquu0oml+0oyhsx4jncJGbgddtjBEKFVkOpz0YoYrfD/dd1GPbRgRsbTms99b56WdKSq0xnybQEj1hdccIGJgbNmzSpHSgK+l86tlVdeef31119zzTUFfH/AnmiW79WKdEp5VCWvnZmXQ9ZSJhACIRACIRACoxLgD4kvO9Ja6c0NYlnKuFQa8dJwnky6Mpn91ltv9VFCS4xefvnlDNljjz1W82QkY7A4Vb5RyLvSfWWIsOWjRAlip0a9HXNHxtOam8lfxXCGyBPxGuESiedROaSv6/HHH7dK2yWXXMLruuaaa8iuvq46pZKZPq9B4HWMFVdccfm/bDq9jHObP+gNWAF7UquUyO5f3YD8CYEQCIEQGAeBMlWVkOnhDOmmMtfl97//vT075YXB22+/3Tte7NS9995rPSOfSOFvsWJ1FgPEWi233HLrrbeeWTE6sVZYYQXGq8wZD0xKXQb+yr+ZxXFUbUFPEk9rvBJAiCUlW/aErPyhGlIUUwHx5XWZR0+U9cHq9yLcpJlbRkylFKj0cuBg6f2yJ9zlcjlqI+72kmULgRAIgRAIgbEJMExloarxb5aLSessDgfLe/R8qUceeYTXxUK1fJxiY2gYIM1+HVfmHOu1MgFGj0ANDkogPXskW5tAnS4ff2OkGsz5BuJpzRfRX30DUSthjnzOfgNRwL6zC8pfssjrEllHibv+Lb1cphZa4U3frLCA9kS1JKR0lk09SqxJcAvPv3JJEQIhEAIhEAJ/GT1EokyJQLlH/lbvgO8P6q+yQqRZxea02AR879kyDSyXZNLXuUxS+VVlm1o+/spqxBTksJ8vgXha80HUJE/A1oRPoImg+JLO8roqvkltHWpptDM0OLQzeGC2u+++W9euTi9tDgHx1RaRZj41y+EQCIEQCIEQmONaMTQ2NogbpEdqoYUWsgYkF0qXlQW3zV3RccXTckiaGjlhlcBjy1ofFfPkr01WDuk1qDwrbO9EZ7FxLY3IbPMlEE9rPohKFstPKuFrJ1Rk7UUSVsLnb+0r0OIFnC6SjApII6adK1AJ7LOFQAiEQAiEwPgJlPVpJsaJ5QmVuSnLVV0ADvlbMcIVWfaIm1WdVWWnHO3sO2g2q9NsVaSU2cYmEE9rbD45GgIhEAIhEAIhEALdE8iiTd2zy5khEAIhEAIhEAIhMDaBeFpj88nREAiBEAiBEAiBEOieQDyt7tnlzBAIgRAIgRAIgRAYm0A8rbH55GgIhEAIhEAIhEAIdE8gnlb37HJmCIRACIRACIRACIxNIJ7W2HxyNARCIARCIARCIAS6JxBPq3t2OTMEQiAEQiAEQiAExiYQT2tsPjkaAiEQAiEQAiEQAt0TiKfVPbucGQIhEAIhEAIhEAJjE4inNTafHA2BEAiBEAiBEAiB7gnE0+qeXc4MgRAIgRAIgRAIgbEJxNMam0+OhkAIhEAIhEAIhED3BOJpdc8uZ4ZACIRACIRACITA2ATiaY3NJ0dDIARCIARCIARCoHsC8bS6Z5czQyAEQiAEQiAEQmBsAvG0xuaToyEQAiEQAiEQAiHQPYF4Wt2zy5khEAIhEAIhEAIhMDaBeFpj88nREAiBEAiBEAiBEOieQDyt7tnlzBAIgRAIgRAIgRAYm0A8rbH55GgIhEAIhEAIhEAIdE8gnlb37HJmCIRACIRACIRACIxNIJ7W2HxyNARCIARCIARCIAS6JxBPq3t2OTMEQiAEQiAEQiAExibw/wNGKz3uelMoFQAAAABJRU5ErkJggg==;" vertex="1" parent="1">
          <mxGeometry x="1070" y="1180" width="803" height="1000" as="geometry" />
        </mxCell>
        <mxCell id="V1xVhpWKba1b41n8vRxY-294" value="" style="ellipse;whiteSpace=wrap;html=1;aspect=fixed;fillColor=#f8cecc;strokeColor=#b85450;" vertex="1" parent="1">
          <mxGeometry x="670" y="1232.5" width="20" height="20" as="geometry" />
        </mxCell>
        <mxCell id="V1xVhpWKba1b41n8vRxY-295" value="" style="ellipse;whiteSpace=wrap;html=1;aspect=fixed;fillColor=#e1d5e7;strokeColor=#9673a6;" vertex="1" parent="1">
          <mxGeometry x="670" y="1292.5" width="20" height="20" as="geometry" />
        </mxCell>
        <mxCell id="V1xVhpWKba1b41n8vRxY-296" value="" style="ellipse;whiteSpace=wrap;html=1;aspect=fixed;" vertex="1" parent="1">
          <mxGeometry x="670" y="1392.5" width="20" height="20" as="geometry" />
        </mxCell>
        <mxCell id="V1xVhpWKba1b41n8vRxY-297" value="" style="ellipse;whiteSpace=wrap;html=1;aspect=fixed;" vertex="1" parent="1">
          <mxGeometry x="620" y="1402.5" width="20" height="20" as="geometry" />
        </mxCell>
        <mxCell id="V1xVhpWKba1b41n8vRxY-298" value="" style="ellipse;whiteSpace=wrap;html=1;aspect=fixed;" vertex="1" parent="1">
          <mxGeometry x="720" y="1402.5" width="20" height="20" as="geometry" />
        </mxCell>
        <mxCell id="V1xVhpWKba1b41n8vRxY-299" value="" style="ellipse;whiteSpace=wrap;html=1;aspect=fixed;" vertex="1" parent="1">
          <mxGeometry x="730" y="1462.5" width="20" height="20" as="geometry" />
        </mxCell>
        <mxCell id="V1xVhpWKba1b41n8vRxY-300" value="" style="ellipse;whiteSpace=wrap;html=1;aspect=fixed;" vertex="1" parent="1">
          <mxGeometry x="610" y="1462.5" width="20" height="20" as="geometry" />
        </mxCell>
        <mxCell id="V1xVhpWKba1b41n8vRxY-301" value="" style="ellipse;whiteSpace=wrap;html=1;aspect=fixed;fillColor=#e1d5e7;strokeColor=#9673a6;" vertex="1" parent="1">
          <mxGeometry x="670" y="1172.5" width="20" height="20" as="geometry" />
        </mxCell>
        <mxCell id="V1xVhpWKba1b41n8vRxY-302" value="" style="ellipse;whiteSpace=wrap;html=1;aspect=fixed;" vertex="1" parent="1">
          <mxGeometry x="610" y="1532.5" width="20" height="20" as="geometry" />
        </mxCell>
        <mxCell id="V1xVhpWKba1b41n8vRxY-303" value="" style="ellipse;whiteSpace=wrap;html=1;aspect=fixed;" vertex="1" parent="1">
          <mxGeometry x="730" y="1532.5" width="20" height="20" as="geometry" />
        </mxCell>
        <mxCell id="V1xVhpWKba1b41n8vRxY-304" value="" style="ellipse;whiteSpace=wrap;html=1;aspect=fixed;fillColor=#e1d5e7;strokeColor=#9673a6;" vertex="1" parent="1">
          <mxGeometry x="600" y="1252.5" width="20" height="20" as="geometry" />
        </mxCell>
        <mxCell id="V1xVhpWKba1b41n8vRxY-305" value="" style="ellipse;whiteSpace=wrap;html=1;aspect=fixed;fillColor=#e1d5e7;strokeColor=#9673a6;" vertex="1" parent="1">
          <mxGeometry x="740" y="1252.5" width="20" height="20" as="geometry" />
        </mxCell>
        <mxCell id="V1xVhpWKba1b41n8vRxY-306" value="" style="ellipse;whiteSpace=wrap;html=1;aspect=fixed;" vertex="1" parent="1">
          <mxGeometry x="570" y="1312.5" width="20" height="20" as="geometry" />
        </mxCell>
        <mxCell id="V1xVhpWKba1b41n8vRxY-307" value="" style="ellipse;whiteSpace=wrap;html=1;aspect=fixed;" vertex="1" parent="1">
          <mxGeometry x="550" y="1382.5" width="20" height="20" as="geometry" />
        </mxCell>
        <mxCell id="V1xVhpWKba1b41n8vRxY-308" value="" style="ellipse;whiteSpace=wrap;html=1;aspect=fixed;" vertex="1" parent="1">
          <mxGeometry x="780" y="1312.5" width="20" height="20" as="geometry" />
        </mxCell>
        <mxCell id="V1xVhpWKba1b41n8vRxY-309" value="" style="ellipse;whiteSpace=wrap;html=1;aspect=fixed;" vertex="1" parent="1">
          <mxGeometry x="800" y="1382.5" width="20" height="20" as="geometry" />
        </mxCell>
        <mxCell id="V1xVhpWKba1b41n8vRxY-310" value="" style="endArrow=none;html=1;rounded=0;strokeWidth=2;" edge="1" parent="1" source="V1xVhpWKba1b41n8vRxY-303" target="V1xVhpWKba1b41n8vRxY-299">
          <mxGeometry width="50" height="50" relative="1" as="geometry">
            <mxPoint x="930" y="1512.5" as="sourcePoint" />
            <mxPoint x="980" y="1462.5" as="targetPoint" />
          </mxGeometry>
        </mxCell>
        <mxCell id="V1xVhpWKba1b41n8vRxY-311" value="" style="endArrow=none;html=1;rounded=0;strokeWidth=2;entryX=0.5;entryY=1;entryDx=0;entryDy=0;" edge="1" parent="1" source="V1xVhpWKba1b41n8vRxY-299" target="V1xVhpWKba1b41n8vRxY-298">
          <mxGeometry width="50" height="50" relative="1" as="geometry">
            <mxPoint x="750" y="1542.5" as="sourcePoint" />
            <mxPoint x="750" y="1492.5" as="targetPoint" />
          </mxGeometry>
        </mxCell>
        <mxCell id="V1xVhpWKba1b41n8vRxY-312" value="" style="endArrow=none;html=1;rounded=0;strokeWidth=2;" edge="1" parent="1" source="V1xVhpWKba1b41n8vRxY-298" target="V1xVhpWKba1b41n8vRxY-296">
          <mxGeometry width="50" height="50" relative="1" as="geometry">
            <mxPoint x="748" y="1472.5" as="sourcePoint" />
            <mxPoint x="740" y="1432.5" as="targetPoint" />
          </mxGeometry>
        </mxCell>
        <mxCell id="V1xVhpWKba1b41n8vRxY-313" value="" style="endArrow=none;html=1;rounded=0;strokeWidth=2;" edge="1" parent="1" source="V1xVhpWKba1b41n8vRxY-296" target="V1xVhpWKba1b41n8vRxY-297">
          <mxGeometry width="50" height="50" relative="1" as="geometry">
            <mxPoint x="730" y="1422.5" as="sourcePoint" />
            <mxPoint x="700" y="1422.5" as="targetPoint" />
          </mxGeometry>
        </mxCell>
        <mxCell id="V1xVhpWKba1b41n8vRxY-314" value="" style="endArrow=none;html=1;rounded=0;strokeWidth=2;" edge="1" parent="1" source="V1xVhpWKba1b41n8vRxY-300" target="V1xVhpWKba1b41n8vRxY-297">
          <mxGeometry width="50" height="50" relative="1" as="geometry">
            <mxPoint x="680" y="1414.5" as="sourcePoint" />
            <mxPoint x="650" y="1420.5" as="targetPoint" />
          </mxGeometry>
        </mxCell>
        <mxCell id="V1xVhpWKba1b41n8vRxY-315" value="" style="endArrow=none;html=1;rounded=0;strokeWidth=2;" edge="1" parent="1" source="V1xVhpWKba1b41n8vRxY-302" target="V1xVhpWKba1b41n8vRxY-300">
          <mxGeometry width="50" height="50" relative="1" as="geometry">
            <mxPoint x="632" y="1472.5" as="sourcePoint" />
            <mxPoint x="638" y="1432.5" as="targetPoint" />
          </mxGeometry>
        </mxCell>
        <mxCell id="V1xVhpWKba1b41n8vRxY-316" value="" style="endArrow=none;html=1;rounded=0;strokeWidth=2;" edge="1" parent="1" source="V1xVhpWKba1b41n8vRxY-295" target="V1xVhpWKba1b41n8vRxY-296">
          <mxGeometry width="50" height="50" relative="1" as="geometry">
            <mxPoint x="680" y="1414.5" as="sourcePoint" />
            <mxPoint x="650" y="1420.5" as="targetPoint" />
          </mxGeometry>
        </mxCell>
        <mxCell id="V1xVhpWKba1b41n8vRxY-317" value="" style="endArrow=none;html=1;rounded=0;strokeWidth=2;" edge="1" parent="1" source="V1xVhpWKba1b41n8vRxY-294" target="V1xVhpWKba1b41n8vRxY-295">
          <mxGeometry width="50" height="50" relative="1" as="geometry">
            <mxPoint x="690" y="1322.5" as="sourcePoint" />
            <mxPoint x="690" y="1402.5" as="targetPoint" />
          </mxGeometry>
        </mxCell>
        <mxCell id="V1xVhpWKba1b41n8vRxY-318" value="" style="endArrow=none;html=1;rounded=0;strokeWidth=2;" edge="1" parent="1" source="V1xVhpWKba1b41n8vRxY-301" target="V1xVhpWKba1b41n8vRxY-294">
          <mxGeometry width="50" height="50" relative="1" as="geometry">
            <mxPoint x="690" y="1262.5" as="sourcePoint" />
            <mxPoint x="690" y="1302.5" as="targetPoint" />
          </mxGeometry>
        </mxCell>
        <mxCell id="V1xVhpWKba1b41n8vRxY-319" value="" style="endArrow=none;html=1;rounded=0;strokeWidth=2;" edge="1" parent="1" source="V1xVhpWKba1b41n8vRxY-304" target="V1xVhpWKba1b41n8vRxY-294">
          <mxGeometry width="50" height="50" relative="1" as="geometry">
            <mxPoint x="690" y="1202.5" as="sourcePoint" />
            <mxPoint x="690" y="1242.5" as="targetPoint" />
          </mxGeometry>
        </mxCell>
        <mxCell id="V1xVhpWKba1b41n8vRxY-320" value="" style="endArrow=none;html=1;rounded=0;strokeWidth=2;" edge="1" parent="1" source="V1xVhpWKba1b41n8vRxY-306" target="V1xVhpWKba1b41n8vRxY-304">
          <mxGeometry width="50" height="50" relative="1" as="geometry">
            <mxPoint x="570" y="1316.5" as="sourcePoint" />
            <mxPoint x="620" y="1302.5" as="targetPoint" />
          </mxGeometry>
        </mxCell>
        <mxCell id="V1xVhpWKba1b41n8vRxY-321" value="" style="endArrow=none;html=1;rounded=0;strokeWidth=2;" edge="1" parent="1" source="V1xVhpWKba1b41n8vRxY-307" target="V1xVhpWKba1b41n8vRxY-306">
          <mxGeometry width="50" height="50" relative="1" as="geometry">
            <mxPoint x="530" y="1366.5" as="sourcePoint" />
            <mxPoint x="580" y="1352.5" as="targetPoint" />
          </mxGeometry>
        </mxCell>
        <mxCell id="V1xVhpWKba1b41n8vRxY-322" value="" style="endArrow=none;html=1;rounded=0;strokeWidth=2;" edge="1" parent="1" source="V1xVhpWKba1b41n8vRxY-294" target="V1xVhpWKba1b41n8vRxY-305">
          <mxGeometry width="50" height="50" relative="1" as="geometry">
            <mxPoint x="630" y="1269.5" as="sourcePoint" />
            <mxPoint x="680" y="1255.5" as="targetPoint" />
          </mxGeometry>
        </mxCell>
        <mxCell id="V1xVhpWKba1b41n8vRxY-323" value="" style="endArrow=none;html=1;rounded=0;strokeWidth=2;" edge="1" parent="1" source="V1xVhpWKba1b41n8vRxY-305" target="V1xVhpWKba1b41n8vRxY-308">
          <mxGeometry width="50" height="50" relative="1" as="geometry">
            <mxPoint x="700" y="1255.5" as="sourcePoint" />
            <mxPoint x="750" y="1269.5" as="targetPoint" />
          </mxGeometry>
        </mxCell>
        <mxCell id="V1xVhpWKba1b41n8vRxY-324" value="" style="endArrow=none;html=1;rounded=0;strokeWidth=2;" edge="1" parent="1" source="V1xVhpWKba1b41n8vRxY-308" target="V1xVhpWKba1b41n8vRxY-309">
          <mxGeometry width="50" height="50" relative="1" as="geometry">
            <mxPoint x="710" y="1265.5" as="sourcePoint" />
            <mxPoint x="760" y="1279.5" as="targetPoint" />
          </mxGeometry>
        </mxCell>
      </root>
    </mxGraphModel>
  </diagram>
</mxfile>
